  0
SECTION
  2
HEADER
  9
$ACADVER
  1
AC1009
  9
$EXTMIN
 10
0.0
 20
0.0
 30
0.0
  9
$EXTMAX
 10
1000.0
 20
1000.0
 30
0.0
  9
$FILLMODE
 70
 0
  9
$SPLFRAME
 70
 1
  0
ENDSEC
  0
SECTION
  2
TABLES
  0
TABLE
  2
LAYER
 70
1
  0
LAYER
  2
0
 70
     0
 62
     7
  6
CONTINUOUS
  0
ENDTAB
  0
ENDSEC
  0
SECTION
  2
ENTITIES
  0
LINE
  8
0
 62
     0
 10
291.527
 20
117.027
 30
0.0
 11
292.311
 21
116.997
 31
0.0
  0
LINE
  8
0
 62
     0
 10
292.311
 20
116.997
 30
0.0
 11
293.091
 21
116.903
 31
0.0
  0
LINE
  8
0
 62
     0
 10
293.091
 20
116.903
 30
0.0
 11
293.861
 21
116.75
 31
0.0
  0
LINE
  8
0
 62
     0
 10
293.861
 20
116.75
 30
0.0
 11
294.616
 21
116.538
 31
0.0
  0
LINE
  8
0
 62
     0
 10
294.616
 20
116.538
 30
0.0
 11
295.354
 21
116.265
 31
0.0
  0
LINE
  8
0
 62
     0
 10
295.354
 20
116.265
 30
0.0
 11
296.066
 21
115.937
 31
0.0
  0
LINE
  8
0
 62
     0
 10
296.066
 20
115.937
 30
0.0
 11
296.751
 21
115.554
 31
0.0
  0
LINE
  8
0
 62
     0
 10
296.751
 20
115.554
 30
0.0
 11
297.404
 21
115.117
 31
0.0
  0
LINE
  8
0
 62
     0
 10
297.404
 20
115.117
 30
0.0
 11
298.021
 21
114.632
 31
0.0
  0
LINE
  8
0
 62
     0
 10
298.021
 20
114.632
 30
0.0
 11
298.597
 21
114.099
 31
0.0
  0
LINE
  8
0
 62
     0
 10
298.597
 20
114.099
 30
0.0
 11
299.131
 21
113.521
 31
0.0
  0
LINE
  8
0
 62
     0
 10
299.131
 20
113.521
 30
0.0
 11
299.616
 21
112.904
 31
0.0
  0
LINE
  8
0
 62
     0
 10
299.616
 20
112.904
 30
0.0
 11
300.054
 21
112.252
 31
0.0
  0
LINE
  8
0
 62
     0
 10
300.054
 20
112.252
 30
0.0
 11
300.437
 21
111.567
 31
0.0
  0
LINE
  8
0
 62
     0
 10
300.437
 20
111.567
 30
0.0
 11
300.765
 21
110.853
 31
0.0
  0
LINE
  8
0
 62
     0
 10
300.765
 20
110.853
 30
0.0
 11
301.038
 21
110.118
 31
0.0
  0
LINE
  8
0
 62
     0
 10
301.038
 20
110.118
 30
0.0
 11
301.25
 21
109.361
 31
0.0
  0
LINE
  8
0
 62
     0
 10
301.25
 20
109.361
 30
0.0
 11
301.403
 21
108.592
 31
0.0
  0
LINE
  8
0
 62
     0
 10
301.403
 20
108.592
 30
0.0
 11
301.497
 21
107.812
 31
0.0
  0
LINE
  8
0
 62
     0
 10
301.497
 20
107.812
 30
0.0
 11
301.527
 21
107.027
 31
0.0
  0
LINE
  8
0
 62
     0
 10
301.527
 20
107.027
 30
0.0
 11
301.527
 21
10.1548
 31
0.0
  0
LINE
  8
0
 62
     0
 10
301.527
 20
10.1548
 30
0.0
 11
301.497
 21
9.36928
 31
0.0
  0
LINE
  8
0
 62
     0
 10
301.497
 20
9.36928
 30
0.0
 11
301.403
 21
8.5907
 31
0.0
  0
LINE
  8
0
 62
     0
 10
301.403
 20
8.5907
 30
0.0
 11
301.25
 21
7.82038
 31
0.0
  0
LINE
  8
0
 62
     0
 10
301.25
 20
7.82038
 30
0.0
 11
301.038
 21
7.06519
 31
0.0
  0
LINE
  8
0
 62
     0
 10
301.038
 20
7.06519
 30
0.0
 11
300.765
 21
6.32795
 31
0.0
  0
LINE
  8
0
 62
     0
 10
300.765
 20
6.32795
 30
0.0
 11
300.437
 21
5.61414
 31
0.0
  0
LINE
  8
0
 62
     0
 10
300.437
 20
5.61414
 30
0.0
 11
300.054
 21
4.92926
 31
0.0
  0
LINE
  8
0
 62
     0
 10
300.054
 20
4.92926
 30
0.0
 11
299.616
 21
4.27605
 31
0.0
  0
LINE
  8
0
 62
     0
 10
299.616
 20
4.27605
 30
0.0
 11
299.131
 21
3.66007
 31
0.0
  0
LINE
  8
0
 62
     0
 10
299.131
 20
3.66007
 30
0.0
 11
298.597
 21
3.08405
 31
0.0
  0
LINE
  8
0
 62
     0
 10
298.597
 20
3.08405
 30
0.0
 11
298.021
 21
2.55075
 31
0.0
  0
LINE
  8
0
 62
     0
 10
298.021
 20
2.55075
 30
0.0
 11
297.404
 21
2.0643
 31
0.0
  0
LINE
  8
0
 62
     0
 10
297.404
 20
2.0643
 30
0.0
 11
296.751
 21
1.62884
 31
0.0
  0
LINE
  8
0
 62
     0
 10
296.751
 20
1.62884
 30
0.0
 11
296.066
 21
1.24437
 31
0.0
  0
LINE
  8
0
 62
     0
 10
296.066
 20
1.24437
 30
0.0
 11
295.354
 21
0.916397
 31
0.0
  0
LINE
  8
0
 62
     0
 10
295.354
 20
0.916397
 30
0.0
 11
294.616
 21
0.643544
 31
0.0
  0
LINE
  8
0
 62
     0
 10
294.616
 20
0.643544
 30
0.0
 11
293.861
 21
0.431327
 31
0.0
  0
LINE
  8
0
 62
     0
 10
293.861
 20
0.431327
 30
0.0
 11
293.091
 21
0.278364
 31
0.0
  0
LINE
  8
0
 62
     0
 10
293.091
 20
0.278364
 30
0.0
 11
292.311
 21
0.186035
 31
0.0
  0
LINE
  8
0
 62
     0
 10
292.311
 20
0.186035
 30
0.0
 11
291.527
 21
0.15434
 31
0.0
  0
LINE
  8
0
 62
     0
 10
291.527
 20
0.15434
 30
0.0
 11
10.0955
 21
0.15434
 31
0.0
  0
LINE
  8
0
 62
     0
 10
10.0955
 20
0.15434
 30
0.0
 11
9.31002
 21
0.186035
 31
0.0
  0
LINE
  8
0
 62
     0
 10
9.31002
 20
0.186035
 30
0.0
 11
8.53006
 21
0.278364
 31
0.0
  0
LINE
  8
0
 62
     0
 10
8.53006
 20
0.278364
 30
0.0
 11
7.76111
 21
0.431327
 31
0.0
  0
LINE
  8
0
 62
     0
 10
7.76111
 20
0.431327
 30
0.0
 11
7.00458
 21
0.643544
 31
0.0
  0
LINE
  8
0
 62
     0
 10
7.00458
 20
0.643544
 30
0.0
 11
6.26869
 21
0.916397
 31
0.0
  0
LINE
  8
0
 62
     0
 10
6.26869
 20
0.916397
 30
0.0
 11
5.55487
 21
1.24437
 31
0.0
  0
LINE
  8
0
 62
     0
 10
5.55487
 20
1.24437
 30
0.0
 11
4.86999
 21
1.62884
 31
0.0
  0
LINE
  8
0
 62
     0
 10
4.86999
 20
1.62884
 30
0.0
 11
4.21816
 21
2.0643
 31
0.0
  0
LINE
  8
0
 62
     0
 10
4.21816
 20
2.0643
 30
0.0
 11
3.6008
 21
2.55075
 31
0.0
  0
LINE
  8
0
 62
     0
 10
3.6008
 20
2.55075
 30
0.0
 11
3.02341
 21
3.08405
 31
0.0
  0
LINE
  8
0
 62
     0
 10
3.02341
 20
3.08405
 30
0.0
 11
2.49011
 21
3.66007
 31
0.0
  0
LINE
  8
0
 62
     0
 10
2.49011
 20
3.66007
 30
0.0
 11
2.00504
 21
4.27605
 31
0.0
  0
LINE
  8
0
 62
     0
 10
2.00504
 20
4.27605
 30
0.0
 11
1.56821
 21
4.92926
 31
0.0
  0
LINE
  8
0
 62
     0
 10
1.56821
 20
4.92926
 30
0.0
 11
1.18511
 21
5.61414
 31
0.0
  0
LINE
  8
0
 62
     0
 10
1.18511
 20
5.61414
 30
0.0
 11
0.857141
 21
6.32795
 31
0.0
  0
LINE
  8
0
 62
     0
 10
0.857141
 20
6.32795
 30
0.0
 11
0.584288
 21
7.06519
 31
0.0
  0
LINE
  8
0
 62
     0
 10
0.584288
 20
7.06519
 30
0.0
 11
0.372071
 21
7.82038
 31
0.0
  0
LINE
  8
0
 62
     0
 10
0.372071
 20
7.82038
 30
0.0
 11
0.219108
 21
8.5907
 31
0.0
  0
LINE
  8
0
 62
     0
 10
0.219108
 20
8.5907
 30
0.0
 11
0.125402
 21
9.36928
 31
0.0
  0
LINE
  8
0
 62
     0
 10
0.125402
 20
9.36928
 30
0.0
 11
0.0950846
 21
10.1548
 31
0.0
  0
LINE
  8
0
 62
     0
 10
0.0950846
 20
10.1548
 30
0.0
 11
0.0950846
 21
107.027
 31
0.0
  0
LINE
  8
0
 62
     0
 10
0.0950846
 20
107.027
 30
0.0
 11
0.125402
 21
107.812
 31
0.0
  0
LINE
  8
0
 62
     0
 10
0.125402
 20
107.812
 30
0.0
 11
0.219108
 21
108.592
 31
0.0
  0
LINE
  8
0
 62
     0
 10
0.219108
 20
108.592
 30
0.0
 11
0.372071
 21
109.361
 31
0.0
  0
LINE
  8
0
 62
     0
 10
0.372071
 20
109.361
 30
0.0
 11
0.584288
 21
110.118
 31
0.0
  0
LINE
  8
0
 62
     0
 10
0.584288
 20
110.118
 30
0.0
 11
0.857141
 21
110.853
 31
0.0
  0
LINE
  8
0
 62
     0
 10
0.857141
 20
110.853
 30
0.0
 11
1.18511
 21
111.567
 31
0.0
  0
LINE
  8
0
 62
     0
 10
1.18511
 20
111.567
 30
0.0
 11
1.56821
 21
112.252
 31
0.0
  0
LINE
  8
0
 62
     0
 10
1.56821
 20
112.252
 30
0.0
 11
2.00504
 21
112.904
 31
0.0
  0
LINE
  8
0
 62
     0
 10
2.00504
 20
112.904
 30
0.0
 11
2.49011
 21
113.521
 31
0.0
  0
LINE
  8
0
 62
     0
 10
2.49011
 20
113.521
 30
0.0
 11
3.02341
 21
114.099
 31
0.0
  0
LINE
  8
0
 62
     0
 10
3.02341
 20
114.099
 30
0.0
 11
3.6008
 21
114.632
 31
0.0
  0
LINE
  8
0
 62
     0
 10
3.6008
 20
114.632
 30
0.0
 11
4.21816
 21
115.117
 31
0.0
  0
LINE
  8
0
 62
     0
 10
4.21816
 20
115.117
 30
0.0
 11
4.86999
 21
115.554
 31
0.0
  0
LINE
  8
0
 62
     0
 10
4.86999
 20
115.554
 30
0.0
 11
5.55487
 21
115.937
 31
0.0
  0
LINE
  8
0
 62
     0
 10
5.55487
 20
115.937
 30
0.0
 11
6.26869
 21
116.265
 31
0.0
  0
LINE
  8
0
 62
     0
 10
6.26869
 20
116.265
 30
0.0
 11
7.00458
 21
116.538
 31
0.0
  0
LINE
  8
0
 62
     0
 10
7.00458
 20
116.538
 30
0.0
 11
7.76111
 21
116.75
 31
0.0
  0
LINE
  8
0
 62
     0
 10
7.76111
 20
116.75
 30
0.0
 11
8.53006
 21
116.903
 31
0.0
  0
LINE
  8
0
 62
     0
 10
8.53006
 20
116.903
 30
0.0
 11
9.31002
 21
116.997
 31
0.0
  0
LINE
  8
0
 62
     0
 10
9.31002
 20
116.997
 30
0.0
 11
10.0955
 21
117.027
 31
0.0
  0
LINE
  8
0
 62
     0
 10
10.0955
 20
117.027
 30
0.0
 11
291.527
 21
117.027
 31
0.0
  0
LINE
  8
0
 62
     0
 10
143.734
 20
24.6807
 30
0.0
 11
143.734
 21
23.6802
 31
0.0
  0
LINE
  8
0
 62
     0
 10
143.734
 20
23.6802
 30
0.0
 11
142.933
 21
23.6802
 31
0.0
  0
LINE
  8
0
 62
     0
 10
142.933
 20
23.6802
 30
0.0
 11
142.933
 21
20.581
 31
0.0
  0
LINE
  8
0
 62
     0
 10
142.933
 20
20.581
 30
0.0
 11
143.734
 21
20.581
 31
0.0
  0
LINE
  8
0
 62
     0
 10
143.734
 20
20.581
 30
0.0
 11
143.734
 21
14.7808
 31
0.0
  0
LINE
  8
0
 62
     0
 10
143.734
 20
14.7808
 30
0.0
 11
142.933
 21
14.7808
 31
0.0
  0
LINE
  8
0
 62
     0
 10
142.933
 20
14.7808
 30
0.0
 11
142.933
 21
11.6803
 31
0.0
  0
LINE
  8
0
 62
     0
 10
142.933
 20
11.6803
 30
0.0
 11
143.734
 21
11.6803
 31
0.0
  0
LINE
  8
0
 62
     0
 10
143.734
 20
11.6803
 30
0.0
 11
143.734
 21
10.6812
 31
0.0
  0
LINE
  8
0
 62
     0
 10
143.734
 20
10.6812
 30
0.0
 11
157.733
 21
10.6812
 31
0.0
  0
LINE
  8
0
 62
     0
 10
157.733
 20
10.6812
 30
0.0
 11
157.733
 21
11.6803
 31
0.0
  0
LINE
  8
0
 62
     0
 10
157.733
 20
11.6803
 30
0.0
 11
158.534
 21
11.6803
 31
0.0
  0
LINE
  8
0
 62
     0
 10
158.534
 20
11.6803
 30
0.0
 11
158.534
 21
14.7808
 31
0.0
  0
LINE
  8
0
 62
     0
 10
158.534
 20
14.7808
 30
0.0
 11
157.733
 21
14.7808
 31
0.0
  0
LINE
  8
0
 62
     0
 10
157.733
 20
14.7808
 30
0.0
 11
157.733
 21
20.581
 31
0.0
  0
LINE
  8
0
 62
     0
 10
157.733
 20
20.581
 30
0.0
 11
158.534
 21
20.581
 31
0.0
  0
LINE
  8
0
 62
     0
 10
158.534
 20
20.581
 30
0.0
 11
158.534
 21
23.6802
 31
0.0
  0
LINE
  8
0
 62
     0
 10
158.534
 20
23.6802
 30
0.0
 11
157.733
 21
23.6802
 31
0.0
  0
LINE
  8
0
 62
     0
 10
157.733
 20
23.6802
 30
0.0
 11
157.733
 21
24.6807
 31
0.0
  0
LINE
  8
0
 62
     0
 10
157.733
 20
24.6807
 30
0.0
 11
143.734
 21
24.6807
 31
0.0
  0
LINE
  8
0
 62
     0
 10
198.868
 20
30.3403
 30
0.0
 11
199.041
 21
29.3563
 31
0.0
  0
LINE
  8
0
 62
     0
 10
199.041
 20
29.3563
 30
0.0
 11
198.253
 21
29.2172
 31
0.0
  0
LINE
  8
0
 62
     0
 10
198.253
 20
29.2172
 30
0.0
 11
198.792
 21
26.1634
 31
0.0
  0
LINE
  8
0
 62
     0
 10
198.792
 20
26.1634
 30
0.0
 11
199.58
 21
26.3026
 31
0.0
  0
LINE
  8
0
 62
     0
 10
199.58
 20
26.3026
 30
0.0
 11
199.683
 21
25.7114
 31
0.0
  0
LINE
  8
0
 62
     0
 10
199.683
 20
25.7114
 30
0.0
 11
198.181
 21
25.4468
 31
0.0
  0
LINE
  8
0
 62
     0
 10
198.181
 20
25.4468
 30
0.0
 11
197.62
 21
28.6274
 31
0.0
  0
LINE
  8
0
 62
     0
 10
197.62
 20
28.6274
 30
0.0
 11
190.974
 21
27.456
 31
0.0
  0
LINE
  8
0
 62
     0
 10
190.974
 20
27.456
 30
0.0
 11
191.535
 21
24.2741
 31
0.0
  0
LINE
  8
0
 62
     0
 10
191.535
 20
24.2741
 30
0.0
 11
190.722
 21
24.1322
 31
0.0
  0
LINE
  8
0
 62
     0
 10
190.722
 20
24.1322
 30
0.0
 11
191.208
 21
21.3734
 31
0.0
  0
LINE
  8
0
 62
     0
 10
191.208
 20
21.3734
 30
0.0
 11
192.02
 21
21.5167
 31
0.0
  0
LINE
  8
0
 62
     0
 10
192.02
 20
21.5167
 30
0.0
 11
193.11
 21
15.3431
 31
0.0
  0
LINE
  8
0
 62
     0
 10
193.11
 20
15.3431
 30
0.0
 11
194.809
 21
15.6421
 31
0.0
  0
LINE
  8
0
 62
     0
 10
194.809
 20
15.6421
 30
0.0
 11
195.016
 21
14.4611
 31
0.0
  0
LINE
  8
0
 62
     0
 10
195.016
 20
14.4611
 30
0.0
 11
198.267
 21
15.0344
 31
0.0
  0
LINE
  8
0
 62
     0
 10
198.267
 20
15.0344
 30
0.0
 11
198.057
 21
16.2154
 31
0.0
  0
LINE
  8
0
 62
     0
 10
198.057
 20
16.2154
 30
0.0
 11
199.756
 21
16.5144
 31
0.0
  0
LINE
  8
0
 62
     0
 10
199.756
 20
16.5144
 30
0.0
 11
198.98
 21
20.9173
 31
0.0
  0
LINE
  8
0
 62
     0
 10
198.98
 20
20.9173
 30
0.0
 11
200.483
 21
21.1818
 31
0.0
  0
LINE
  8
0
 62
     0
 10
200.483
 20
21.1818
 30
0.0
 11
200.586
 21
20.5907
 31
0.0
  0
LINE
  8
0
 62
     0
 10
200.586
 20
20.5907
 30
0.0
 11
199.799
 21
20.4515
 31
0.0
  0
LINE
  8
0
 62
     0
 10
199.799
 20
20.4515
 30
0.0
 11
200.338
 21
17.3991
 31
0.0
  0
LINE
  8
0
 62
     0
 10
200.338
 20
17.3991
 30
0.0
 11
201.125
 21
17.5383
 31
0.0
  0
LINE
  8
0
 62
     0
 10
201.125
 20
17.5383
 30
0.0
 11
201.298
 21
16.553
 31
0.0
  0
LINE
  8
0
 62
     0
 10
201.298
 20
16.553
 30
0.0
 11
215.085
 21
18.9839
 31
0.0
  0
LINE
  8
0
 62
     0
 10
215.085
 20
18.9839
 30
0.0
 11
214.912
 21
19.9692
 31
0.0
  0
LINE
  8
0
 62
     0
 10
214.912
 20
19.9692
 30
0.0
 11
215.7
 21
20.1083
 31
0.0
  0
LINE
  8
0
 62
     0
 10
215.7
 20
20.1083
 30
0.0
 11
215.161
 21
23.1607
 31
0.0
  0
LINE
  8
0
 62
     0
 10
215.161
 20
23.1607
 30
0.0
 11
214.373
 21
23.0215
 31
0.0
  0
LINE
  8
0
 62
     0
 10
214.373
 20
23.0215
 30
0.0
 11
214.27
 21
23.6127
 31
0.0
  0
LINE
  8
0
 62
     0
 10
214.27
 20
23.6127
 30
0.0
 11
215.772
 21
23.8773
 31
0.0
  0
LINE
  8
0
 62
     0
 10
215.772
 20
23.8773
 30
0.0
 11
216.548
 21
19.4758
 31
0.0
  0
LINE
  8
0
 62
     0
 10
216.548
 20
19.4758
 30
0.0
 11
218.247
 21
19.7749
 31
0.0
  0
LINE
  8
0
 62
     0
 10
218.247
 20
19.7749
 30
0.0
 11
218.455
 21
18.5925
 31
0.0
  0
LINE
  8
0
 62
     0
 10
218.455
 20
18.5925
 30
0.0
 11
221.704
 21
19.1657
 31
0.0
  0
LINE
  8
0
 62
     0
 10
221.704
 20
19.1657
 30
0.0
 11
221.496
 21
20.3481
 31
0.0
  0
LINE
  8
0
 62
     0
 10
221.496
 20
20.3481
 30
0.0
 11
223.195
 21
20.6471
 31
0.0
  0
LINE
  8
0
 62
     0
 10
223.195
 20
20.6471
 30
0.0
 11
222.107
 21
26.8222
 31
0.0
  0
LINE
  8
0
 62
     0
 10
222.107
 20
26.8222
 30
0.0
 11
222.919
 21
26.9655
 31
0.0
  0
LINE
  8
0
 62
     0
 10
222.919
 20
26.9655
 30
0.0
 11
222.432
 21
29.7229
 31
0.0
  0
LINE
  8
0
 62
     0
 10
222.432
 20
29.7229
 30
0.0
 11
221.62
 21
29.5796
 31
0.0
  0
LINE
  8
0
 62
     0
 10
221.62
 20
29.5796
 30
0.0
 11
221.059
 21
32.7601
 31
0.0
  0
LINE
  8
0
 62
     0
 10
221.059
 20
32.7601
 30
0.0
 11
214.412
 21
31.5888
 31
0.0
  0
LINE
  8
0
 62
     0
 10
214.412
 20
31.5888
 30
0.0
 11
214.973
 21
28.4082
 31
0.0
  0
LINE
  8
0
 62
     0
 10
214.973
 20
28.4082
 30
0.0
 11
213.47
 21
28.1423
 31
0.0
  0
LINE
  8
0
 62
     0
 10
213.47
 20
28.1423
 30
0.0
 11
213.367
 21
28.7335
 31
0.0
  0
LINE
  8
0
 62
     0
 10
213.367
 20
28.7335
 30
0.0
 11
214.154
 21
28.8727
 31
0.0
  0
LINE
  8
0
 62
     0
 10
214.154
 20
28.8727
 30
0.0
 11
213.616
 21
31.9264
 31
0.0
  0
LINE
  8
0
 62
     0
 10
213.616
 20
31.9264
 30
0.0
 11
212.828
 21
31.7872
 31
0.0
  0
LINE
  8
0
 62
     0
 10
212.828
 20
31.7872
 30
0.0
 11
212.655
 21
32.7711
 31
0.0
  0
LINE
  8
0
 62
     0
 10
212.655
 20
32.7711
 30
0.0
 11
198.868
 21
30.3403
 31
0.0
  0
LINE
  8
0
 62
     0
 10
82.7828
 20
33.9011
 30
0.0
 11
81.0839
 21
34.2001
 31
0.0
  0
LINE
  8
0
 62
     0
 10
81.0839
 20
34.2001
 30
0.0
 11
79.9952
 21
28.0252
 31
0.0
  0
LINE
  8
0
 62
     0
 10
79.9952
 20
28.0252
 30
0.0
 11
79.182
 21
28.1685
 31
0.0
  0
LINE
  8
0
 62
     0
 10
79.182
 20
28.1685
 30
0.0
 11
78.697
 21
25.4124
 31
0.0
  0
LINE
  8
0
 62
     0
 10
78.697
 20
25.4124
 30
0.0
 11
79.5087
 21
25.2691
 31
0.0
  0
LINE
  8
0
 62
     0
 10
79.5087
 20
25.2691
 30
0.0
 11
78.9478
 21
22.0872
 31
0.0
  0
LINE
  8
0
 62
     0
 10
78.9478
 20
22.0872
 30
0.0
 11
85.5955
 21
20.9159
 31
0.0
  0
LINE
  8
0
 62
     0
 10
85.5955
 20
20.9159
 30
0.0
 11
86.155
 21
24.0964
 31
0.0
  0
LINE
  8
0
 62
     0
 10
86.155
 20
24.0964
 30
0.0
 11
87.6572
 21
23.8318
 31
0.0
  0
LINE
  8
0
 62
     0
 10
87.6572
 20
23.8318
 30
0.0
 11
87.5538
 21
23.2406
 31
0.0
  0
LINE
  8
0
 62
     0
 10
87.5538
 20
23.2406
 30
0.0
 11
86.7653
 21
23.3798
 31
0.0
  0
LINE
  8
0
 62
     0
 10
86.7653
 20
23.3798
 30
0.0
 11
86.2281
 21
20.3261
 31
0.0
  0
LINE
  8
0
 62
     0
 10
86.2281
 20
20.3261
 30
0.0
 11
87.0148
 21
20.1883
 31
0.0
  0
LINE
  8
0
 62
     0
 10
87.0148
 20
20.1883
 30
0.0
 11
86.8412
 21
19.203
 31
0.0
  0
LINE
  8
0
 62
     0
 10
86.8412
 20
19.203
 30
0.0
 11
100.628
 21
16.7721
 31
0.0
  0
LINE
  8
0
 62
     0
 10
100.628
 20
16.7721
 30
0.0
 11
100.802
 21
17.7574
 31
0.0
  0
LINE
  8
0
 62
     0
 10
100.802
 20
17.7574
 30
0.0
 11
101.59
 21
17.6182
 31
0.0
  0
LINE
  8
0
 62
     0
 10
101.59
 20
17.6182
 30
0.0
 11
102.129
 21
20.6706
 31
0.0
  0
LINE
  8
0
 62
     0
 10
102.129
 20
20.6706
 30
0.0
 11
101.341
 21
20.8098
 31
0.0
  0
LINE
  8
0
 62
     0
 10
101.341
 20
20.8098
 30
0.0
 11
101.444
 21
21.4009
 31
0.0
  0
LINE
  8
0
 62
     0
 10
101.444
 20
21.4009
 30
0.0
 11
102.946
 21
21.1364
 31
0.0
  0
LINE
  8
0
 62
     0
 10
102.946
 20
21.1364
 30
0.0
 11
102.387
 21
17.9544
 31
0.0
  0
LINE
  8
0
 62
     0
 10
102.387
 20
17.9544
 30
0.0
 11
109.033
 21
16.7831
 31
0.0
  0
LINE
  8
0
 62
     0
 10
109.033
 20
16.7831
 30
0.0
 11
109.594
 21
19.9636
 31
0.0
  0
LINE
  8
0
 62
     0
 10
109.594
 20
19.9636
 30
0.0
 11
110.407
 21
19.8203
 31
0.0
  0
LINE
  8
0
 62
     0
 10
110.407
 20
19.8203
 30
0.0
 11
110.894
 21
22.5778
 31
0.0
  0
LINE
  8
0
 62
     0
 10
110.894
 20
22.5778
 30
0.0
 11
110.08
 21
22.7211
 31
0.0
  0
LINE
  8
0
 62
     0
 10
110.08
 20
22.7211
 30
0.0
 11
111.169
 21
28.8961
 31
0.0
  0
LINE
  8
0
 62
     0
 10
111.169
 20
28.8961
 30
0.0
 11
109.47
 21
29.1951
 31
0.0
  0
LINE
  8
0
 62
     0
 10
109.47
 20
29.1951
 30
0.0
 11
109.678
 21
30.3761
 31
0.0
  0
LINE
  8
0
 62
     0
 10
109.678
 20
30.3761
 30
0.0
 11
106.43
 21
30.9494
 31
0.0
  0
LINE
  8
0
 62
     0
 10
106.43
 20
30.9494
 30
0.0
 11
106.221
 21
29.7684
 31
0.0
  0
LINE
  8
0
 62
     0
 10
106.221
 20
29.7684
 30
0.0
 11
104.521
 21
30.0674
 31
0.0
  0
LINE
  8
0
 62
     0
 10
104.521
 20
30.0674
 30
0.0
 11
103.746
 21
25.666
 31
0.0
  0
LINE
  8
0
 62
     0
 10
103.746
 20
25.666
 30
0.0
 11
102.245
 21
25.9305
 31
0.0
  0
LINE
  8
0
 62
     0
 10
102.245
 20
25.9305
 30
0.0
 11
102.348
 21
26.5217
 31
0.0
  0
LINE
  8
0
 62
     0
 10
102.348
 20
26.5217
 30
0.0
 11
103.135
 21
26.3826
 31
0.0
  0
LINE
  8
0
 62
     0
 10
103.135
 20
26.3826
 30
0.0
 11
103.674
 21
29.4363
 31
0.0
  0
LINE
  8
0
 62
     0
 10
103.674
 20
29.4363
 30
0.0
 11
102.887
 21
29.5741
 31
0.0
  0
LINE
  8
0
 62
     0
 10
102.887
 20
29.5741
 30
0.0
 11
103.061
 21
30.5594
 31
0.0
  0
LINE
  8
0
 62
     0
 10
103.061
 20
30.5594
 30
0.0
 11
89.2722
 21
32.9902
 31
0.0
  0
LINE
  8
0
 62
     0
 10
89.2722
 20
32.9902
 30
0.0
 11
89.0997
 21
32.0063
 31
0.0
  0
LINE
  8
0
 62
     0
 10
89.0997
 20
32.0063
 30
0.0
 11
88.3116
 21
32.1441
 31
0.0
  0
LINE
  8
0
 62
     0
 10
88.3116
 20
32.1441
 30
0.0
 11
87.7729
 21
29.0917
 31
0.0
  0
LINE
  8
0
 62
     0
 10
87.7729
 20
29.0917
 30
0.0
 11
88.561
 21
28.9526
 31
0.0
  0
LINE
  8
0
 62
     0
 10
88.561
 20
28.9526
 30
0.0
 11
88.4562
 21
28.3614
 31
0.0
  0
LINE
  8
0
 62
     0
 10
88.4562
 20
28.3614
 30
0.0
 11
86.9541
 21
28.6274
 31
0.0
  0
LINE
  8
0
 62
     0
 10
86.9541
 20
28.6274
 30
0.0
 11
87.7302
 21
33.0288
 31
0.0
  0
LINE
  8
0
 62
     0
 10
87.7302
 20
33.0288
 30
0.0
 11
86.0323
 21
33.3279
 31
0.0
  0
LINE
  8
0
 62
     0
 10
86.0323
 20
33.3279
 30
0.0
 11
86.2404
 21
34.5102
 31
0.0
  0
LINE
  8
0
 62
     0
 10
86.2404
 20
34.5102
 30
0.0
 11
82.991
 21
35.0821
 31
0.0
  0
LINE
  8
0
 62
     0
 10
82.991
 20
35.0821
 30
0.0
 11
82.7828
 21
33.9011
 31
0.0
  0
LINE
  8
0
 62
     0
 10
253.384
 20
42.6766
 30
0.0
 11
253.607
 21
41.7022
 31
0.0
  0
LINE
  8
0
 62
     0
 10
253.607
 20
41.7022
 30
0.0
 11
252.829
 21
41.5216
 31
0.0
  0
LINE
  8
0
 62
     0
 10
252.829
 20
41.5216
 30
0.0
 11
253.526
 21
38.5025
 31
0.0
  0
LINE
  8
0
 62
     0
 10
253.526
 20
38.5025
 30
0.0
 11
254.304
 21
38.6814
 31
0.0
  0
LINE
  8
0
 62
     0
 10
254.304
 20
38.6814
 30
0.0
 11
255.611
 21
33.0302
 31
0.0
  0
LINE
  8
0
 62
     0
 10
255.611
 20
33.0302
 30
0.0
 11
254.831
 21
32.8497
 31
0.0
  0
LINE
  8
0
 62
     0
 10
254.831
 20
32.8497
 30
0.0
 11
255.528
 21
29.8304
 31
0.0
  0
LINE
  8
0
 62
     0
 10
255.528
 20
29.8304
 30
0.0
 11
256.308
 21
30.0095
 31
0.0
  0
LINE
  8
0
 62
     0
 10
256.308
 20
30.0095
 30
0.0
 11
256.533
 21
29.0353
 31
0.0
  0
LINE
  8
0
 62
     0
 10
256.533
 20
29.0353
 30
0.0
 11
270.174
 21
32.1841
 31
0.0
  0
LINE
  8
0
 62
     0
 10
270.174
 20
32.1841
 30
0.0
 11
269.949
 21
33.1584
 31
0.0
  0
LINE
  8
0
 62
     0
 10
269.949
 20
33.1584
 30
0.0
 11
270.728
 21
33.3389
 31
0.0
  0
LINE
  8
0
 62
     0
 10
270.728
 20
33.3389
 30
0.0
 11
270.032
 21
36.3594
 31
0.0
  0
LINE
  8
0
 62
     0
 10
270.032
 20
36.3594
 30
0.0
 11
269.252
 21
36.1805
 31
0.0
  0
LINE
  8
0
 62
     0
 10
269.252
 20
36.1805
 30
0.0
 11
267.947
 21
41.8303
 31
0.0
  0
LINE
  8
0
 62
     0
 10
267.947
 20
41.8303
 30
0.0
 11
268.727
 21
42.0109
 31
0.0
  0
LINE
  8
0
 62
     0
 10
268.727
 20
42.0109
 30
0.0
 11
268.03
 21
45.0314
 31
0.0
  0
LINE
  8
0
 62
     0
 10
268.03
 20
45.0314
 30
0.0
 11
267.25
 21
44.8525
 31
0.0
  0
LINE
  8
0
 62
     0
 10
267.25
 20
44.8525
 30
0.0
 11
267.024
 21
45.8251
 31
0.0
  0
LINE
  8
0
 62
     0
 10
267.024
 20
45.8251
 30
0.0
 11
253.384
 21
42.6766
 31
0.0
  0
LINE
  8
0
 62
     0
 10
35.0022
 20
45.037
 30
0.0
 11
34.2236
 21
45.2162
 31
0.0
  0
LINE
  8
0
 62
     0
 10
34.2236
 20
45.2162
 30
0.0
 11
33.5249
 21
42.1968
 31
0.0
  0
LINE
  8
0
 62
     0
 10
33.5249
 20
42.1968
 30
0.0
 11
34.3049
 21
42.0165
 31
0.0
  0
LINE
  8
0
 62
     0
 10
34.3049
 20
42.0165
 30
0.0
 11
32.9999
 21
36.365
 31
0.0
  0
LINE
  8
0
 62
     0
 10
32.9999
 20
36.365
 30
0.0
 11
32.2199
 21
36.5442
 31
0.0
  0
LINE
  8
0
 62
     0
 10
32.2199
 20
36.5442
 30
0.0
 11
31.524
 21
33.5249
 31
0.0
  0
LINE
  8
0
 62
     0
 10
31.524
 20
33.5249
 30
0.0
 11
32.304
 21
33.3444
 31
0.0
  0
LINE
  8
0
 62
     0
 10
32.304
 20
33.3444
 30
0.0
 11
32.078
 21
32.3701
 31
0.0
  0
LINE
  8
0
 62
     0
 10
32.078
 20
32.3701
 30
0.0
 11
45.7193
 21
29.2213
 31
0.0
  0
LINE
  8
0
 62
     0
 10
45.7193
 20
29.2213
 30
0.0
 11
45.9451
 21
30.1942
 31
0.0
  0
LINE
  8
0
 62
     0
 10
45.9451
 20
30.1942
 30
0.0
 11
46.7237
 21
30.015
 31
0.0
  0
LINE
  8
0
 62
     0
 10
46.7237
 20
30.015
 30
0.0
 11
47.4211
 21
33.0357
 31
0.0
  0
LINE
  8
0
 62
     0
 10
47.4211
 20
33.0357
 30
0.0
 11
46.6411
 21
33.2163
 31
0.0
  0
LINE
  8
0
 62
     0
 10
46.6411
 20
33.2163
 30
0.0
 11
47.946
 21
38.8662
 31
0.0
  0
LINE
  8
0
 62
     0
 10
47.946
 20
38.8662
 30
0.0
 11
48.726
 21
38.687
 31
0.0
  0
LINE
  8
0
 62
     0
 10
48.726
 20
38.687
 30
0.0
 11
49.4235
 21
41.7079
 31
0.0
  0
LINE
  8
0
 62
     0
 10
49.4235
 20
41.7079
 30
0.0
 11
48.6435
 21
41.8881
 31
0.0
  0
LINE
  8
0
 62
     0
 10
48.6435
 20
41.8881
 30
0.0
 11
48.8678
 21
42.8611
 31
0.0
  0
LINE
  8
0
 62
     0
 10
48.8678
 20
42.8611
 30
0.0
 11
35.2282
 21
46.0114
 31
0.0
  0
LINE
  8
0
 62
     0
 10
35.2282
 20
46.0114
 30
0.0
 11
35.0022
 21
45.037
 31
0.0
  0
LINE
  8
0
 62
     0
 10
163.926
 20
44.6828
 30
0.0
 11
163.926
 21
43.6824
 31
0.0
  0
LINE
  8
0
 62
     0
 10
163.926
 20
43.6824
 30
0.0
 11
163.127
 21
43.6824
 31
0.0
  0
LINE
  8
0
 62
     0
 10
163.127
 20
43.6824
 30
0.0
 11
163.127
 21
40.5832
 31
0.0
  0
LINE
  8
0
 62
     0
 10
163.127
 20
40.5832
 30
0.0
 11
163.926
 21
40.5832
 31
0.0
  0
LINE
  8
0
 62
     0
 10
163.926
 20
40.5832
 30
0.0
 11
163.926
 21
34.7831
 31
0.0
  0
LINE
  8
0
 62
     0
 10
163.926
 20
34.7831
 30
0.0
 11
163.127
 21
34.7831
 31
0.0
  0
LINE
  8
0
 62
     0
 10
163.127
 20
34.7831
 30
0.0
 11
163.127
 21
31.6825
 31
0.0
  0
LINE
  8
0
 62
     0
 10
163.127
 20
31.6825
 30
0.0
 11
163.926
 21
31.6825
 31
0.0
  0
LINE
  8
0
 62
     0
 10
163.926
 20
31.6825
 30
0.0
 11
163.926
 21
30.6834
 31
0.0
  0
LINE
  8
0
 62
     0
 10
163.926
 20
30.6834
 30
0.0
 11
177.927
 21
30.6834
 31
0.0
  0
LINE
  8
0
 62
     0
 10
177.927
 20
30.6834
 30
0.0
 11
177.927
 21
31.6825
 31
0.0
  0
LINE
  8
0
 62
     0
 10
177.927
 20
31.6825
 30
0.0
 11
178.726
 21
31.6825
 31
0.0
  0
LINE
  8
0
 62
     0
 10
178.726
 20
31.6825
 30
0.0
 11
178.726
 21
34.7831
 31
0.0
  0
LINE
  8
0
 62
     0
 10
178.726
 20
34.7831
 30
0.0
 11
177.927
 21
34.7831
 31
0.0
  0
LINE
  8
0
 62
     0
 10
177.927
 20
34.7831
 30
0.0
 11
177.927
 21
40.5832
 31
0.0
  0
LINE
  8
0
 62
     0
 10
177.927
 20
40.5832
 30
0.0
 11
178.726
 21
40.5832
 31
0.0
  0
LINE
  8
0
 62
     0
 10
178.726
 20
40.5832
 30
0.0
 11
178.726
 21
43.6824
 31
0.0
  0
LINE
  8
0
 62
     0
 10
178.726
 20
43.6824
 30
0.0
 11
177.927
 21
43.6824
 31
0.0
  0
LINE
  8
0
 62
     0
 10
177.927
 20
43.6824
 30
0.0
 11
177.927
 21
44.6828
 31
0.0
  0
LINE
  8
0
 62
     0
 10
177.927
 20
44.6828
 30
0.0
 11
163.926
 21
44.6828
 31
0.0
  0
LINE
  8
0
 62
     0
 10
143.734
 20
44.6828
 30
0.0
 11
143.734
 21
43.6824
 31
0.0
  0
LINE
  8
0
 62
     0
 10
143.734
 20
43.6824
 30
0.0
 11
142.933
 21
43.6824
 31
0.0
  0
LINE
  8
0
 62
     0
 10
142.933
 20
43.6824
 30
0.0
 11
142.933
 21
40.5832
 31
0.0
  0
LINE
  8
0
 62
     0
 10
142.933
 20
40.5832
 30
0.0
 11
143.734
 21
40.5832
 31
0.0
  0
LINE
  8
0
 62
     0
 10
143.734
 20
40.5832
 30
0.0
 11
143.734
 21
34.7831
 31
0.0
  0
LINE
  8
0
 62
     0
 10
143.734
 20
34.7831
 30
0.0
 11
142.933
 21
34.7831
 31
0.0
  0
LINE
  8
0
 62
     0
 10
142.933
 20
34.7831
 30
0.0
 11
142.933
 21
31.6825
 31
0.0
  0
LINE
  8
0
 62
     0
 10
142.933
 20
31.6825
 30
0.0
 11
143.734
 21
31.6825
 31
0.0
  0
LINE
  8
0
 62
     0
 10
143.734
 20
31.6825
 30
0.0
 11
143.734
 21
30.6834
 31
0.0
  0
LINE
  8
0
 62
     0
 10
143.734
 20
30.6834
 30
0.0
 11
157.733
 21
30.6834
 31
0.0
  0
LINE
  8
0
 62
     0
 10
157.733
 20
30.6834
 30
0.0
 11
157.733
 21
31.6825
 31
0.0
  0
LINE
  8
0
 62
     0
 10
157.733
 20
31.6825
 30
0.0
 11
158.534
 21
31.6825
 31
0.0
  0
LINE
  8
0
 62
     0
 10
158.534
 20
31.6825
 30
0.0
 11
158.534
 21
34.7831
 31
0.0
  0
LINE
  8
0
 62
     0
 10
158.534
 20
34.7831
 30
0.0
 11
157.733
 21
34.7831
 31
0.0
  0
LINE
  8
0
 62
     0
 10
157.733
 20
34.7831
 30
0.0
 11
157.733
 21
40.5832
 31
0.0
  0
LINE
  8
0
 62
     0
 10
157.733
 20
40.5832
 30
0.0
 11
158.534
 21
40.5832
 31
0.0
  0
LINE
  8
0
 62
     0
 10
158.534
 20
40.5832
 30
0.0
 11
158.534
 21
43.6824
 31
0.0
  0
LINE
  8
0
 62
     0
 10
158.534
 20
43.6824
 30
0.0
 11
157.733
 21
43.6824
 31
0.0
  0
LINE
  8
0
 62
     0
 10
157.733
 20
43.6824
 30
0.0
 11
157.733
 21
44.6828
 31
0.0
  0
LINE
  8
0
 62
     0
 10
157.733
 20
44.6828
 30
0.0
 11
143.734
 21
44.6828
 31
0.0
  0
LINE
  8
0
 62
     0
 10
123.729
 20
44.6828
 30
0.0
 11
123.729
 21
43.6824
 31
0.0
  0
LINE
  8
0
 62
     0
 10
123.729
 20
43.6824
 30
0.0
 11
122.931
 21
43.6824
 31
0.0
  0
LINE
  8
0
 62
     0
 10
122.931
 20
43.6824
 30
0.0
 11
122.931
 21
40.5832
 31
0.0
  0
LINE
  8
0
 62
     0
 10
122.931
 20
40.5832
 30
0.0
 11
123.729
 21
40.5832
 31
0.0
  0
LINE
  8
0
 62
     0
 10
123.729
 20
40.5832
 30
0.0
 11
123.729
 21
34.7831
 31
0.0
  0
LINE
  8
0
 62
     0
 10
123.729
 20
34.7831
 30
0.0
 11
122.931
 21
34.7831
 31
0.0
  0
LINE
  8
0
 62
     0
 10
122.931
 20
34.7831
 30
0.0
 11
122.931
 21
31.6825
 31
0.0
  0
LINE
  8
0
 62
     0
 10
122.931
 20
31.6825
 30
0.0
 11
123.729
 21
31.6825
 31
0.0
  0
LINE
  8
0
 62
     0
 10
123.729
 20
31.6825
 30
0.0
 11
123.729
 21
30.6834
 31
0.0
  0
LINE
  8
0
 62
     0
 10
123.729
 20
30.6834
 30
0.0
 11
137.731
 21
30.6834
 31
0.0
  0
LINE
  8
0
 62
     0
 10
137.731
 20
30.6834
 30
0.0
 11
137.731
 21
31.6825
 31
0.0
  0
LINE
  8
0
 62
     0
 10
137.731
 20
31.6825
 30
0.0
 11
138.53
 21
31.6825
 31
0.0
  0
LINE
  8
0
 62
     0
 10
138.53
 20
31.6825
 30
0.0
 11
138.53
 21
34.7831
 31
0.0
  0
LINE
  8
0
 62
     0
 10
138.53
 20
34.7831
 30
0.0
 11
137.731
 21
34.7831
 31
0.0
  0
LINE
  8
0
 62
     0
 10
137.731
 20
34.7831
 30
0.0
 11
137.731
 21
40.5832
 31
0.0
  0
LINE
  8
0
 62
     0
 10
137.731
 20
40.5832
 30
0.0
 11
138.53
 21
40.5832
 31
0.0
  0
LINE
  8
0
 62
     0
 10
138.53
 20
40.5832
 30
0.0
 11
138.53
 21
43.6824
 31
0.0
  0
LINE
  8
0
 62
     0
 10
138.53
 20
43.6824
 30
0.0
 11
137.731
 21
43.6824
 31
0.0
  0
LINE
  8
0
 62
     0
 10
137.731
 20
43.6824
 30
0.0
 11
137.731
 21
44.6828
 31
0.0
  0
LINE
  8
0
 62
     0
 10
137.731
 20
44.6828
 30
0.0
 11
123.729
 21
44.6828
 31
0.0
  0
LINE
  8
0
 62
     0
 10
192.52
 20
50.1304
 30
0.0
 11
192.745
 21
49.1575
 31
0.0
  0
LINE
  8
0
 62
     0
 10
192.745
 20
49.1575
 30
0.0
 11
191.965
 21
48.9768
 31
0.0
  0
LINE
  8
0
 62
     0
 10
191.965
 20
48.9768
 30
0.0
 11
192.664
 21
45.9564
 31
0.0
  0
LINE
  8
0
 62
     0
 10
192.664
 20
45.9564
 30
0.0
 11
193.442
 21
46.1366
 31
0.0
  0
LINE
  8
0
 62
     0
 10
193.442
 20
46.1366
 30
0.0
 11
194.747
 21
40.4855
 31
0.0
  0
LINE
  8
0
 62
     0
 10
194.747
 20
40.4855
 30
0.0
 11
193.969
 21
40.3049
 31
0.0
  0
LINE
  8
0
 62
     0
 10
193.969
 20
40.3049
 30
0.0
 11
194.666
 21
37.2844
 31
0.0
  0
LINE
  8
0
 62
     0
 10
194.666
 20
37.2844
 30
0.0
 11
195.445
 21
37.4646
 31
0.0
  0
LINE
  8
0
 62
     0
 10
195.445
 20
37.4646
 30
0.0
 11
195.669
 21
36.4892
 31
0.0
  0
LINE
  8
0
 62
     0
 10
195.669
 20
36.4892
 30
0.0
 11
209.312
 21
39.6392
 31
0.0
  0
LINE
  8
0
 62
     0
 10
209.312
 20
39.6392
 30
0.0
 11
209.087
 21
40.6135
 31
0.0
  0
LINE
  8
0
 62
     0
 10
209.087
 20
40.6135
 30
0.0
 11
209.866
 21
40.7942
 31
0.0
  0
LINE
  8
0
 62
     0
 10
209.866
 20
40.7942
 30
0.0
 11
209.168
 21
43.8132
 31
0.0
  0
LINE
  8
0
 62
     0
 10
209.168
 20
43.8132
 30
0.0
 11
208.388
 21
43.6344
 31
0.0
  0
LINE
  8
0
 62
     0
 10
208.388
 20
43.6344
 30
0.0
 11
207.085
 21
49.2855
 31
0.0
  0
LINE
  8
0
 62
     0
 10
207.085
 20
49.2855
 30
0.0
 11
207.863
 21
49.4661
 31
0.0
  0
LINE
  8
0
 62
     0
 10
207.863
 20
49.4661
 30
0.0
 11
207.166
 21
52.4852
 31
0.0
  0
LINE
  8
0
 62
     0
 10
207.166
 20
52.4852
 30
0.0
 11
206.386
 21
52.3064
 31
0.0
  0
LINE
  8
0
 62
     0
 10
206.386
 20
52.3064
 30
0.0
 11
206.162
 21
53.2804
 31
0.0
  0
LINE
  8
0
 62
     0
 10
206.162
 20
53.2804
 30
0.0
 11
192.52
 21
50.1304
 31
0.0
  0
LINE
  8
0
 62
     0
 10
95.866
 20
52.4923
 30
0.0
 11
95.086
 21
52.6715
 31
0.0
  0
LINE
  8
0
 62
     0
 10
95.086
 20
52.6715
 30
0.0
 11
94.3889
 21
49.6507
 31
0.0
  0
LINE
  8
0
 62
     0
 10
94.3889
 20
49.6507
 30
0.0
 11
95.1689
 21
49.47
 31
0.0
  0
LINE
  8
0
 62
     0
 10
95.1689
 20
49.47
 30
0.0
 11
93.8636
 21
43.8203
 31
0.0
  0
LINE
  8
0
 62
     0
 10
93.8636
 20
43.8203
 30
0.0
 11
93.085
 21
43.9995
 31
0.0
  0
LINE
  8
0
 62
     0
 10
93.085
 20
43.9995
 30
0.0
 11
92.3865
 21
40.9801
 31
0.0
  0
LINE
  8
0
 62
     0
 10
92.3865
 20
40.9801
 30
0.0
 11
93.1665
 21
40.7995
 31
0.0
  0
LINE
  8
0
 62
     0
 10
93.1665
 20
40.7995
 30
0.0
 11
92.9418
 21
39.8254
 31
0.0
  0
LINE
  8
0
 62
     0
 10
92.9418
 20
39.8254
 30
0.0
 11
106.583
 21
36.6751
 31
0.0
  0
LINE
  8
0
 62
     0
 10
106.583
 20
36.6751
 30
0.0
 11
106.808
 21
37.6495
 31
0.0
  0
LINE
  8
0
 62
     0
 10
106.808
 20
37.6495
 30
0.0
 11
107.586
 21
37.4703
 31
0.0
  0
LINE
  8
0
 62
     0
 10
107.586
 20
37.4703
 30
0.0
 11
108.285
 21
40.4908
 31
0.0
  0
LINE
  8
0
 62
     0
 10
108.285
 20
40.4908
 30
0.0
 11
107.505
 21
40.6714
 31
0.0
  0
LINE
  8
0
 62
     0
 10
107.505
 20
40.6714
 30
0.0
 11
108.81
 21
46.3215
 31
0.0
  0
LINE
  8
0
 62
     0
 10
108.81
 20
46.3215
 30
0.0
 11
109.59
 21
46.1423
 31
0.0
  0
LINE
  8
0
 62
     0
 10
109.59
 20
46.1423
 30
0.0
 11
110.287
 21
49.1628
 31
0.0
  0
LINE
  8
0
 62
     0
 10
110.287
 20
49.1628
 30
0.0
 11
109.506
 21
49.3434
 31
0.0
  0
LINE
  8
0
 62
     0
 10
109.506
 20
49.3434
 30
0.0
 11
109.732
 21
50.3163
 31
0.0
  0
LINE
  8
0
 62
     0
 10
109.732
 20
50.3163
 30
0.0
 11
96.0907
 21
53.4652
 31
0.0
  0
LINE
  8
0
 62
     0
 10
96.0907
 20
53.4652
 30
0.0
 11
95.866
 21
52.4923
 31
0.0
  0
LINE
  8
0
 62
     0
 10
212.01
 20
54.6308
 30
0.0
 11
212.236
 21
53.6568
 31
0.0
  0
LINE
  8
0
 62
     0
 10
212.236
 20
53.6568
 30
0.0
 11
211.456
 21
53.4762
 31
0.0
  0
LINE
  8
0
 62
     0
 10
211.456
 20
53.4762
 30
0.0
 11
212.153
 21
50.4553
 31
0.0
  0
LINE
  8
0
 62
     0
 10
212.153
 20
50.4553
 30
0.0
 11
212.933
 21
50.636
 31
0.0
  0
LINE
  8
0
 62
     0
 10
212.933
 20
50.636
 30
0.0
 11
214.238
 21
44.9848
 31
0.0
  0
LINE
  8
0
 62
     0
 10
214.238
 20
44.9848
 30
0.0
 11
213.458
 21
44.8042
 31
0.0
  0
LINE
  8
0
 62
     0
 10
213.458
 20
44.8042
 30
0.0
 11
214.156
 21
41.7834
 31
0.0
  0
LINE
  8
0
 62
     0
 10
214.156
 20
41.7834
 30
0.0
 11
214.934
 21
41.964
 31
0.0
  0
LINE
  8
0
 62
     0
 10
214.934
 20
41.964
 30
0.0
 11
215.16
 21
40.9896
 31
0.0
  0
LINE
  8
0
 62
     0
 10
215.16
 20
40.9896
 30
0.0
 11
228.8
 21
44.1385
 31
0.0
  0
LINE
  8
0
 62
     0
 10
228.8
 20
44.1385
 30
0.0
 11
228.575
 21
45.1143
 31
0.0
  0
LINE
  8
0
 62
     0
 10
228.575
 20
45.1143
 30
0.0
 11
229.355
 21
45.2935
 31
0.0
  0
LINE
  8
0
 62
     0
 10
229.355
 20
45.2935
 30
0.0
 11
228.658
 21
48.314
 31
0.0
  0
LINE
  8
0
 62
     0
 10
228.658
 20
48.314
 30
0.0
 11
227.878
 21
48.1334
 31
0.0
  0
LINE
  8
0
 62
     0
 10
227.878
 20
48.1334
 30
0.0
 11
226.573
 21
53.7849
 31
0.0
  0
LINE
  8
0
 62
     0
 10
226.573
 20
53.7849
 30
0.0
 11
227.353
 21
53.9655
 31
0.0
  0
LINE
  8
0
 62
     0
 10
227.353
 20
53.9655
 30
0.0
 11
226.655
 21
56.986
 31
0.0
  0
LINE
  8
0
 62
     0
 10
226.655
 20
56.986
 30
0.0
 11
225.877
 21
56.8053
 31
0.0
  0
LINE
  8
0
 62
     0
 10
225.877
 20
56.8053
 30
0.0
 11
225.651
 21
57.7797
 31
0.0
  0
LINE
  8
0
 62
     0
 10
225.651
 20
57.7797
 30
0.0
 11
212.01
 21
54.6308
 31
0.0
  0
LINE
  8
0
 62
     0
 10
76.375
 20
56.9916
 30
0.0
 11
75.5964
 21
57.1722
 31
0.0
  0
LINE
  8
0
 62
     0
 10
75.5964
 20
57.1722
 30
0.0
 11
74.8993
 21
54.1514
 31
0.0
  0
LINE
  8
0
 62
     0
 10
74.8993
 20
54.1514
 30
0.0
 11
75.6789
 21
53.9708
 31
0.0
  0
LINE
  8
0
 62
     0
 10
75.6789
 20
53.9708
 30
0.0
 11
74.374
 21
48.3196
 31
0.0
  0
LINE
  8
0
 62
     0
 10
74.374
 20
48.3196
 30
0.0
 11
73.594
 21
48.4999
 31
0.0
  0
LINE
  8
0
 62
     0
 10
73.594
 20
48.4999
 30
0.0
 11
72.8969
 21
45.4794
 31
0.0
  0
LINE
  8
0
 62
     0
 10
72.8969
 20
45.4794
 30
0.0
 11
73.6769
 21
45.2988
 31
0.0
  0
LINE
  8
0
 62
     0
 10
73.6769
 20
45.2988
 30
0.0
 11
73.4508
 21
44.3248
 31
0.0
  0
LINE
  8
0
 62
     0
 10
73.4508
 20
44.3248
 30
0.0
 11
87.092
 21
41.1745
 31
0.0
  0
LINE
  8
0
 62
     0
 10
87.092
 20
41.1745
 30
0.0
 11
87.3181
 21
42.1499
 31
0.0
  0
LINE
  8
0
 62
     0
 10
87.3181
 20
42.1499
 30
0.0
 11
88.0981
 21
41.9696
 31
0.0
  0
LINE
  8
0
 62
     0
 10
88.0981
 20
41.9696
 30
0.0
 11
88.7938
 21
44.9901
 31
0.0
  0
LINE
  8
0
 62
     0
 10
88.7938
 20
44.9901
 30
0.0
 11
88.0138
 21
45.1693
 31
0.0
  0
LINE
  8
0
 62
     0
 10
88.0138
 20
45.1693
 30
0.0
 11
89.3191
 21
50.8222
 31
0.0
  0
LINE
  8
0
 62
     0
 10
89.3191
 20
50.8222
 30
0.0
 11
90.0987
 21
50.6416
 31
0.0
  0
LINE
  8
0
 62
     0
 10
90.0987
 20
50.6416
 30
0.0
 11
90.7962
 21
53.6621
 31
0.0
  0
LINE
  8
0
 62
     0
 10
90.7962
 20
53.6621
 30
0.0
 11
90.0176
 21
53.8413
 31
0.0
  0
LINE
  8
0
 62
     0
 10
90.0176
 20
53.8413
 30
0.0
 11
90.2409
 21
54.8171
 31
0.0
  0
LINE
  8
0
 62
     0
 10
90.2409
 20
54.8171
 30
0.0
 11
76.6011
 21
57.966
 31
0.0
  0
LINE
  8
0
 62
     0
 10
76.6011
 20
57.966
 30
0.0
 11
76.375
 21
56.9916
 31
0.0
  0
LINE
  8
0
 62
     0
 10
231.501
 20
59.1301
 30
0.0
 11
231.725
 21
58.1561
 31
0.0
  0
LINE
  8
0
 62
     0
 10
231.725
 20
58.1561
 30
0.0
 11
230.945
 21
57.9755
 31
0.0
  0
LINE
  8
0
 62
     0
 10
230.945
 20
57.9755
 30
0.0
 11
231.644
 21
54.9561
 31
0.0
  0
LINE
  8
0
 62
     0
 10
231.644
 20
54.9561
 30
0.0
 11
232.423
 21
55.1353
 31
0.0
  0
LINE
  8
0
 62
     0
 10
232.423
 20
55.1353
 30
0.0
 11
233.728
 21
49.4841
 31
0.0
  0
LINE
  8
0
 62
     0
 10
233.728
 20
49.4841
 30
0.0
 11
232.948
 21
49.3035
 31
0.0
  0
LINE
  8
0
 62
     0
 10
232.948
 20
49.3035
 30
0.0
 11
233.645
 21
46.2841
 31
0.0
  0
LINE
  8
0
 62
     0
 10
233.645
 20
46.2841
 30
0.0
 11
234.425
 21
46.4633
 31
0.0
  0
LINE
  8
0
 62
     0
 10
234.425
 20
46.4633
 30
0.0
 11
234.649
 21
45.4889
 31
0.0
  0
LINE
  8
0
 62
     0
 10
234.649
 20
45.4889
 30
0.0
 11
248.291
 21
48.6392
 31
0.0
  0
LINE
  8
0
 62
     0
 10
248.291
 20
48.6392
 30
0.0
 11
248.066
 21
49.6122
 31
0.0
  0
LINE
  8
0
 62
     0
 10
248.066
 20
49.6122
 30
0.0
 11
248.846
 21
49.7928
 31
0.0
  0
LINE
  8
0
 62
     0
 10
248.846
 20
49.7928
 30
0.0
 11
248.147
 21
52.8133
 31
0.0
  0
LINE
  8
0
 62
     0
 10
248.147
 20
52.8133
 30
0.0
 11
247.369
 21
52.6341
 31
0.0
  0
LINE
  8
0
 62
     0
 10
247.369
 20
52.6341
 30
0.0
 11
246.064
 21
58.2842
 31
0.0
  0
LINE
  8
0
 62
     0
 10
246.064
 20
58.2842
 30
0.0
 11
246.844
 21
58.4648
 31
0.0
  0
LINE
  8
0
 62
     0
 10
246.844
 20
58.4648
 30
0.0
 11
246.145
 21
61.4853
 31
0.0
  0
LINE
  8
0
 62
     0
 10
246.145
 20
61.4853
 30
0.0
 11
245.366
 21
61.3061
 31
0.0
  0
LINE
  8
0
 62
     0
 10
245.366
 20
61.3061
 30
0.0
 11
245.142
 21
62.279
 31
0.0
  0
LINE
  8
0
 62
     0
 10
245.142
 20
62.279
 30
0.0
 11
231.501
 21
59.1301
 31
0.0
  0
LINE
  8
0
 62
     0
 10
56.8868
 20
61.4909
 30
0.0
 11
56.1068
 21
61.6712
 31
0.0
  0
LINE
  8
0
 62
     0
 10
56.1068
 20
61.6712
 30
0.0
 11
55.4094
 21
58.6507
 31
0.0
  0
LINE
  8
0
 62
     0
 10
55.4094
 20
58.6507
 30
0.0
 11
56.188
 21
58.4701
 31
0.0
  0
LINE
  8
0
 62
     0
 10
56.188
 20
58.4701
 30
0.0
 11
54.8831
 21
52.8189
 31
0.0
  0
LINE
  8
0
 62
     0
 10
54.8831
 20
52.8189
 30
0.0
 11
54.1045
 21
52.9992
 31
0.0
  0
LINE
  8
0
 62
     0
 10
54.1045
 20
52.9992
 30
0.0
 11
53.4074
 21
49.9787
 31
0.0
  0
LINE
  8
0
 62
     0
 10
53.4074
 20
49.9787
 30
0.0
 11
54.186
 21
49.7981
 31
0.0
  0
LINE
  8
0
 62
     0
 10
54.186
 20
49.7981
 30
0.0
 11
53.9612
 21
48.8237
 31
0.0
  0
LINE
  8
0
 62
     0
 10
53.9612
 20
48.8237
 30
0.0
 11
67.6025
 21
45.6752
 31
0.0
  0
LINE
  8
0
 62
     0
 10
67.6025
 20
45.6752
 30
0.0
 11
67.8272
 21
46.6492
 31
0.0
  0
LINE
  8
0
 62
     0
 10
67.8272
 20
46.6492
 30
0.0
 11
68.6072
 21
46.4689
 31
0.0
  0
LINE
  8
0
 62
     0
 10
68.6072
 20
46.4689
 30
0.0
 11
69.3043
 21
49.4894
 31
0.0
  0
LINE
  8
0
 62
     0
 10
69.3043
 20
49.4894
 30
0.0
 11
68.5257
 21
49.6701
 31
0.0
  0
LINE
  8
0
 62
     0
 10
68.5257
 20
49.6701
 30
0.0
 11
69.8292
 21
55.3212
 31
0.0
  0
LINE
  8
0
 62
     0
 10
69.8292
 20
55.3212
 30
0.0
 11
70.6092
 21
55.1409
 31
0.0
  0
LINE
  8
0
 62
     0
 10
70.6092
 20
55.1409
 30
0.0
 11
71.3066
 21
58.1614
 31
0.0
  0
LINE
  8
0
 62
     0
 10
71.3066
 20
58.1614
 30
0.0
 11
70.528
 21
58.342
 31
0.0
  0
LINE
  8
0
 62
     0
 10
70.528
 20
58.342
 30
0.0
 11
70.7528
 21
59.3164
 31
0.0
  0
LINE
  8
0
 62
     0
 10
70.7528
 20
59.3164
 30
0.0
 11
57.1101
 21
62.4649
 31
0.0
  0
LINE
  8
0
 62
     0
 10
57.1101
 20
62.4649
 30
0.0
 11
56.8868
 21
61.4909
 31
0.0
  0
LINE
  8
0
 62
     0
 10
251.204
 20
62.702
 30
0.0
 11
251.43
 21
61.728
 31
0.0
  0
LINE
  8
0
 62
     0
 10
251.43
 20
61.728
 30
0.0
 11
250.65
 21
61.5474
 31
0.0
  0
LINE
  8
0
 62
     0
 10
250.65
 20
61.5474
 30
0.0
 11
251.347
 21
58.5265
 31
0.0
  0
LINE
  8
0
 62
     0
 10
251.347
 20
58.5265
 30
0.0
 11
252.126
 21
58.7072
 31
0.0
  0
LINE
  8
0
 62
     0
 10
252.126
 20
58.7072
 30
0.0
 11
253.431
 21
53.056
 31
0.0
  0
LINE
  8
0
 62
     0
 10
253.431
 20
53.056
 30
0.0
 11
252.651
 21
52.8754
 31
0.0
  0
LINE
  8
0
 62
     0
 10
252.651
 20
52.8754
 30
0.0
 11
253.349
 21
49.8546
 31
0.0
  0
LINE
  8
0
 62
     0
 10
253.349
 20
49.8546
 30
0.0
 11
254.128
 21
50.0352
 31
0.0
  0
LINE
  8
0
 62
     0
 10
254.128
 20
50.0352
 30
0.0
 11
254.353
 21
49.0608
 31
0.0
  0
LINE
  8
0
 62
     0
 10
254.353
 20
49.0608
 30
0.0
 11
267.994
 21
52.2097
 31
0.0
  0
LINE
  8
0
 62
     0
 10
267.994
 20
52.2097
 30
0.0
 11
267.769
 21
53.1855
 31
0.0
  0
LINE
  8
0
 62
     0
 10
267.769
 20
53.1855
 30
0.0
 11
268.549
 21
53.3647
 31
0.0
  0
LINE
  8
0
 62
     0
 10
268.549
 20
53.3647
 30
0.0
 11
267.852
 21
56.3852
 31
0.0
  0
LINE
  8
0
 62
     0
 10
267.852
 20
56.3852
 30
0.0
 11
267.072
 21
56.2046
 31
0.0
  0
LINE
  8
0
 62
     0
 10
267.072
 20
56.2046
 30
0.0
 11
265.767
 21
61.8575
 31
0.0
  0
LINE
  8
0
 62
     0
 10
265.767
 20
61.8575
 30
0.0
 11
266.547
 21
62.0353
 31
0.0
  0
LINE
  8
0
 62
     0
 10
266.547
 20
62.0353
 30
0.0
 11
265.85
 21
65.0572
 31
0.0
  0
LINE
  8
0
 62
     0
 10
265.85
 20
65.0572
 30
0.0
 11
265.071
 21
64.8765
 31
0.0
  0
LINE
  8
0
 62
     0
 10
265.071
 20
64.8765
 30
0.0
 11
264.845
 21
65.8509
 31
0.0
  0
LINE
  8
0
 62
     0
 10
264.845
 20
65.8509
 30
0.0
 11
251.204
 21
62.702
 31
0.0
  0
LINE
  8
0
 62
     0
 10
37.181
 20
65.0628
 30
0.0
 11
36.4024
 21
65.2431
 31
0.0
  0
LINE
  8
0
 62
     0
 10
36.4024
 20
65.2431
 30
0.0
 11
35.705
 21
62.2212
 31
0.0
  0
LINE
  8
0
 62
     0
 10
35.705
 20
62.2212
 30
0.0
 11
36.485
 21
62.042
 31
0.0
  0
LINE
  8
0
 62
     0
 10
36.485
 20
62.042
 30
0.0
 11
35.18
 21
56.3908
 31
0.0
  0
LINE
  8
0
 62
     0
 10
35.18
 20
56.3908
 30
0.0
 11
34.4
 21
56.5711
 31
0.0
  0
LINE
  8
0
 62
     0
 10
34.4
 20
56.5711
 30
0.0
 11
33.7041
 21
53.5492
 31
0.0
  0
LINE
  8
0
 62
     0
 10
33.7041
 20
53.5492
 30
0.0
 11
34.4827
 21
53.37
 31
0.0
  0
LINE
  8
0
 62
     0
 10
34.4827
 20
53.37
 30
0.0
 11
34.258
 21
52.3956
 31
0.0
  0
LINE
  8
0
 62
     0
 10
34.258
 20
52.3956
 30
0.0
 11
47.8977
 21
49.2471
 31
0.0
  0
LINE
  8
0
 62
     0
 10
47.8977
 20
49.2471
 30
0.0
 11
48.1238
 21
50.2211
 31
0.0
  0
LINE
  8
0
 62
     0
 10
48.1238
 20
50.2211
 30
0.0
 11
48.9038
 21
50.0408
 31
0.0
  0
LINE
  8
0
 62
     0
 10
48.9038
 20
50.0408
 30
0.0
 11
49.6013
 21
53.0613
 31
0.0
  0
LINE
  8
0
 62
     0
 10
49.6013
 20
53.0613
 30
0.0
 11
48.8213
 21
53.2405
 31
0.0
  0
LINE
  8
0
 62
     0
 10
48.8213
 20
53.2405
 30
0.0
 11
50.1262
 21
58.8931
 31
0.0
  0
LINE
  8
0
 62
     0
 10
50.1262
 20
58.8931
 30
0.0
 11
50.9062
 21
58.7128
 31
0.0
  0
LINE
  8
0
 62
     0
 10
50.9062
 20
58.7128
 30
0.0
 11
51.6019
 21
61.7333
 31
0.0
  0
LINE
  8
0
 62
     0
 10
51.6019
 20
61.7333
 30
0.0
 11
50.8233
 21
61.9125
 31
0.0
  0
LINE
  8
0
 62
     0
 10
50.8233
 20
61.9125
 30
0.0
 11
51.048
 21
62.8883
 31
0.0
  0
LINE
  8
0
 62
     0
 10
51.048
 20
62.8883
 30
0.0
 11
37.4068
 21
66.0368
 31
0.0
  0
LINE
  8
0
 62
     0
 10
37.4068
 20
66.0368
 30
0.0
 11
37.181
 21
65.0628
 31
0.0
  0
LINE
  8
0
 62
     0
 10
163.926
 20
64.685
 30
0.0
 11
163.926
 21
63.6859
 31
0.0
  0
LINE
  8
0
 62
     0
 10
163.926
 20
63.6859
 30
0.0
 11
163.127
 21
63.6859
 31
0.0
  0
LINE
  8
0
 62
     0
 10
163.127
 20
63.6859
 30
0.0
 11
163.127
 21
60.5854
 31
0.0
  0
LINE
  8
0
 62
     0
 10
163.127
 20
60.5854
 30
0.0
 11
163.926
 21
60.5854
 31
0.0
  0
LINE
  8
0
 62
     0
 10
163.926
 20
60.5854
 30
0.0
 11
163.926
 21
54.7853
 31
0.0
  0
LINE
  8
0
 62
     0
 10
163.926
 20
54.7853
 30
0.0
 11
163.127
 21
54.7853
 31
0.0
  0
LINE
  8
0
 62
     0
 10
163.127
 20
54.7853
 30
0.0
 11
163.127
 21
51.6862
 31
0.0
  0
LINE
  8
0
 62
     0
 10
163.127
 20
51.6862
 30
0.0
 11
163.926
 21
51.6862
 31
0.0
  0
LINE
  8
0
 62
     0
 10
163.926
 20
51.6862
 30
0.0
 11
163.926
 21
50.6857
 31
0.0
  0
LINE
  8
0
 62
     0
 10
163.926
 20
50.6857
 30
0.0
 11
177.927
 21
50.6857
 31
0.0
  0
LINE
  8
0
 62
     0
 10
177.927
 20
50.6857
 30
0.0
 11
177.927
 21
51.6862
 31
0.0
  0
LINE
  8
0
 62
     0
 10
177.927
 20
51.6862
 30
0.0
 11
178.726
 21
51.6862
 31
0.0
  0
LINE
  8
0
 62
     0
 10
178.726
 20
51.6862
 30
0.0
 11
178.726
 21
54.7853
 31
0.0
  0
LINE
  8
0
 62
     0
 10
178.726
 20
54.7853
 30
0.0
 11
177.927
 21
54.7853
 31
0.0
  0
LINE
  8
0
 62
     0
 10
177.927
 20
54.7853
 30
0.0
 11
177.927
 21
60.5854
 31
0.0
  0
LINE
  8
0
 62
     0
 10
177.927
 20
60.5854
 30
0.0
 11
178.726
 21
60.5854
 31
0.0
  0
LINE
  8
0
 62
     0
 10
178.726
 20
60.5854
 30
0.0
 11
178.726
 21
63.6859
 31
0.0
  0
LINE
  8
0
 62
     0
 10
178.726
 20
63.6859
 30
0.0
 11
177.927
 21
63.6859
 31
0.0
  0
LINE
  8
0
 62
     0
 10
177.927
 20
63.6859
 30
0.0
 11
177.927
 21
64.685
 31
0.0
  0
LINE
  8
0
 62
     0
 10
177.927
 20
64.685
 30
0.0
 11
163.926
 21
64.685
 31
0.0
  0
LINE
  8
0
 62
     0
 10
143.734
 20
64.685
 30
0.0
 11
143.734
 21
63.6859
 31
0.0
  0
LINE
  8
0
 62
     0
 10
143.734
 20
63.6859
 30
0.0
 11
142.933
 21
63.6859
 31
0.0
  0
LINE
  8
0
 62
     0
 10
142.933
 20
63.6859
 30
0.0
 11
142.933
 21
60.5854
 31
0.0
  0
LINE
  8
0
 62
     0
 10
142.933
 20
60.5854
 30
0.0
 11
143.734
 21
60.5854
 31
0.0
  0
LINE
  8
0
 62
     0
 10
143.734
 20
60.5854
 30
0.0
 11
143.734
 21
54.7853
 31
0.0
  0
LINE
  8
0
 62
     0
 10
143.734
 20
54.7853
 30
0.0
 11
142.933
 21
54.7853
 31
0.0
  0
LINE
  8
0
 62
     0
 10
142.933
 20
54.7853
 30
0.0
 11
142.933
 21
51.6862
 31
0.0
  0
LINE
  8
0
 62
     0
 10
142.933
 20
51.6862
 30
0.0
 11
143.734
 21
51.6862
 31
0.0
  0
LINE
  8
0
 62
     0
 10
143.734
 20
51.6862
 30
0.0
 11
143.734
 21
50.6857
 31
0.0
  0
LINE
  8
0
 62
     0
 10
143.734
 20
50.6857
 30
0.0
 11
157.733
 21
50.6857
 31
0.0
  0
LINE
  8
0
 62
     0
 10
157.733
 20
50.6857
 30
0.0
 11
157.733
 21
51.6862
 31
0.0
  0
LINE
  8
0
 62
     0
 10
157.733
 20
51.6862
 30
0.0
 11
158.534
 21
51.6862
 31
0.0
  0
LINE
  8
0
 62
     0
 10
158.534
 20
51.6862
 30
0.0
 11
158.534
 21
54.7853
 31
0.0
  0
LINE
  8
0
 62
     0
 10
158.534
 20
54.7853
 30
0.0
 11
157.733
 21
54.7853
 31
0.0
  0
LINE
  8
0
 62
     0
 10
157.733
 20
54.7853
 30
0.0
 11
157.733
 21
60.5854
 31
0.0
  0
LINE
  8
0
 62
     0
 10
157.733
 20
60.5854
 30
0.0
 11
158.534
 21
60.5854
 31
0.0
  0
LINE
  8
0
 62
     0
 10
158.534
 20
60.5854
 30
0.0
 11
158.534
 21
63.6859
 31
0.0
  0
LINE
  8
0
 62
     0
 10
158.534
 20
63.6859
 30
0.0
 11
157.733
 21
63.6859
 31
0.0
  0
LINE
  8
0
 62
     0
 10
157.733
 20
63.6859
 30
0.0
 11
157.733
 21
64.685
 31
0.0
  0
LINE
  8
0
 62
     0
 10
157.733
 20
64.685
 30
0.0
 11
143.734
 21
64.685
 31
0.0
  0
LINE
  8
0
 62
     0
 10
123.729
 20
64.685
 30
0.0
 11
123.729
 21
63.6859
 31
0.0
  0
LINE
  8
0
 62
     0
 10
123.729
 20
63.6859
 30
0.0
 11
122.931
 21
63.6859
 31
0.0
  0
LINE
  8
0
 62
     0
 10
122.931
 20
63.6859
 30
0.0
 11
122.931
 21
60.5854
 31
0.0
  0
LINE
  8
0
 62
     0
 10
122.931
 20
60.5854
 30
0.0
 11
123.729
 21
60.5854
 31
0.0
  0
LINE
  8
0
 62
     0
 10
123.729
 20
60.5854
 30
0.0
 11
123.729
 21
54.7853
 31
0.0
  0
LINE
  8
0
 62
     0
 10
123.729
 20
54.7853
 30
0.0
 11
122.931
 21
54.7853
 31
0.0
  0
LINE
  8
0
 62
     0
 10
122.931
 20
54.7853
 30
0.0
 11
122.931
 21
51.6862
 31
0.0
  0
LINE
  8
0
 62
     0
 10
122.931
 20
51.6862
 30
0.0
 11
123.729
 21
51.6862
 31
0.0
  0
LINE
  8
0
 62
     0
 10
123.729
 20
51.6862
 30
0.0
 11
123.729
 21
50.6857
 31
0.0
  0
LINE
  8
0
 62
     0
 10
123.729
 20
50.6857
 30
0.0
 11
137.731
 21
50.6857
 31
0.0
  0
LINE
  8
0
 62
     0
 10
137.731
 20
50.6857
 30
0.0
 11
137.731
 21
51.6862
 31
0.0
  0
LINE
  8
0
 62
     0
 10
137.731
 20
51.6862
 30
0.0
 11
138.53
 21
51.6862
 31
0.0
  0
LINE
  8
0
 62
     0
 10
138.53
 20
51.6862
 30
0.0
 11
138.53
 21
54.7853
 31
0.0
  0
LINE
  8
0
 62
     0
 10
138.53
 20
54.7853
 30
0.0
 11
137.731
 21
54.7853
 31
0.0
  0
LINE
  8
0
 62
     0
 10
137.731
 20
54.7853
 30
0.0
 11
137.731
 21
60.5854
 31
0.0
  0
LINE
  8
0
 62
     0
 10
137.731
 20
60.5854
 30
0.0
 11
138.53
 21
60.5854
 31
0.0
  0
LINE
  8
0
 62
     0
 10
138.53
 20
60.5854
 30
0.0
 11
138.53
 21
63.6859
 31
0.0
  0
LINE
  8
0
 62
     0
 10
138.53
 20
63.6859
 30
0.0
 11
137.731
 21
63.6859
 31
0.0
  0
LINE
  8
0
 62
     0
 10
137.731
 20
63.6859
 30
0.0
 11
137.731
 21
64.685
 31
0.0
  0
LINE
  8
0
 62
     0
 10
137.731
 20
64.685
 30
0.0
 11
123.729
 21
64.685
 31
0.0
  0
LINE
  8
0
 62
     0
 10
277.504
 20
66.1183
 30
0.0
 11
277.617
 21
65.1245
 31
0.0
  0
LINE
  8
0
 62
     0
 10
277.617
 20
65.1245
 30
0.0
 11
276.823
 21
65.0353
 31
0.0
  0
LINE
  8
0
 62
     0
 10
276.823
 20
65.0353
 30
0.0
 11
277.173
 21
61.9552
 31
0.0
  0
LINE
  8
0
 62
     0
 10
277.173
 20
61.9552
 30
0.0
 11
277.968
 21
62.0448
 31
0.0
  0
LINE
  8
0
 62
     0
 10
277.968
 20
62.0448
 30
0.0
 11
278.626
 21
56.2832
 31
0.0
  0
LINE
  8
0
 62
     0
 10
278.626
 20
56.2832
 30
0.0
 11
277.831
 21
56.1922
 31
0.0
  0
LINE
  8
0
 62
     0
 10
277.831
 20
56.1922
 30
0.0
 11
278.182
 21
53.1125
 31
0.0
  0
LINE
  8
0
 62
     0
 10
278.182
 20
53.1125
 30
0.0
 11
278.977
 21
53.2035
 31
0.0
  0
LINE
  8
0
 62
     0
 10
278.977
 20
53.2035
 30
0.0
 11
279.09
 21
52.2083
 31
0.0
  0
LINE
  8
0
 62
     0
 10
279.09
 20
52.2083
 30
0.0
 11
293
 21
53.793
 31
0.0
  0
LINE
  8
0
 62
     0
 10
293
 20
53.793
 30
0.0
 11
292.887
 21
54.7867
 31
0.0
  0
LINE
  8
0
 62
     0
 10
292.887
 20
54.7867
 30
0.0
 11
293.68
 21
54.8778
 31
0.0
  0
LINE
  8
0
 62
     0
 10
293.68
 20
54.8778
 30
0.0
 11
293.329
 21
57.9575
 31
0.0
  0
LINE
  8
0
 62
     0
 10
293.329
 20
57.9575
 30
0.0
 11
292.535
 21
57.8679
 31
0.0
  0
LINE
  8
0
 62
     0
 10
292.535
 20
57.8679
 30
0.0
 11
291.878
 21
63.6295
 31
0.0
  0
LINE
  8
0
 62
     0
 10
291.878
 20
63.6295
 30
0.0
 11
292.673
 21
63.7205
 31
0.0
  0
LINE
  8
0
 62
     0
 10
292.673
 20
63.7205
 30
0.0
 11
292.322
 21
66.8002
 31
0.0
  0
LINE
  8
0
 62
     0
 10
292.322
 20
66.8002
 30
0.0
 11
291.528
 21
66.7096
 31
0.0
  0
LINE
  8
0
 62
     0
 10
291.528
 20
66.7096
 30
0.0
 11
291.415
 21
67.7044
 31
0.0
  0
LINE
  8
0
 62
     0
 10
291.415
 20
67.7044
 30
0.0
 11
277.504
 21
66.1183
 31
0.0
  0
LINE
  8
0
 62
     0
 10
10.7997
 20
67.1449
 30
0.0
 11
10.0046
 21
67.2359
 31
0.0
  0
LINE
  8
0
 62
     0
 10
10.0046
 20
67.2359
 30
0.0
 11
9.65316
 21
64.1558
 31
0.0
  0
LINE
  8
0
 62
     0
 10
9.65316
 20
64.1558
 30
0.0
 11
10.4483
 21
64.0652
 31
0.0
  0
LINE
  8
0
 62
     0
 10
10.4483
 20
64.0652
 30
0.0
 11
9.79233
 21
58.3022
 31
0.0
  0
LINE
  8
0
 62
     0
 10
9.79233
 20
58.3022
 30
0.0
 11
8.99721
 21
58.3928
 31
0.0
  0
LINE
  8
0
 62
     0
 10
8.99721
 20
58.3928
 30
0.0
 11
8.64581
 21
55.3131
 31
0.0
  0
LINE
  8
0
 62
     0
 10
8.64581
 20
55.3131
 30
0.0
 11
9.44093
 21
55.2221
 31
0.0
  0
LINE
  8
0
 62
     0
 10
9.44093
 20
55.2221
 30
0.0
 11
9.32794
 21
54.2286
 31
0.0
  0
LINE
  8
0
 62
     0
 10
9.32794
 20
54.2286
 30
0.0
 11
23.2379
 21
52.644
 31
0.0
  0
LINE
  8
0
 62
     0
 10
23.2379
 20
52.644
 30
0.0
 11
23.3509
 21
53.6374
 31
0.0
  0
LINE
  8
0
 62
     0
 10
23.3509
 20
53.6374
 30
0.0
 11
24.146
 21
53.5464
 31
0.0
  0
LINE
  8
0
 62
     0
 10
24.146
 20
53.5464
 30
0.0
 11
24.4974
 21
56.6265
 31
0.0
  0
LINE
  8
0
 62
     0
 10
24.4974
 20
56.6265
 30
0.0
 11
23.7023
 21
56.7171
 31
0.0
  0
LINE
  8
0
 62
     0
 10
23.7023
 20
56.7171
 30
0.0
 11
24.3582
 21
62.4801
 31
0.0
  0
LINE
  8
0
 62
     0
 10
24.3582
 20
62.4801
 30
0.0
 11
25.1533
 21
62.3895
 31
0.0
  0
LINE
  8
0
 62
     0
 10
25.1533
 20
62.3895
 30
0.0
 11
25.5047
 21
65.4692
 31
0.0
  0
LINE
  8
0
 62
     0
 10
25.5047
 20
65.4692
 30
0.0
 11
24.7096
 21
65.5602
 31
0.0
  0
LINE
  8
0
 62
     0
 10
24.7096
 20
65.5602
 30
0.0
 11
24.8226
 21
66.5536
 31
0.0
  0
LINE
  8
0
 62
     0
 10
24.8226
 20
66.5536
 30
0.0
 11
10.9127
 21
68.1383
 31
0.0
  0
LINE
  8
0
 62
     0
 10
10.9127
 20
68.1383
 30
0.0
 11
10.7997
 21
67.1449
 31
0.0
  0
LINE
  8
0
 62
     0
 10
192.662
 20
70.6935
 30
0.0
 11
192.887
 21
69.7177
 31
0.0
  0
LINE
  8
0
 62
     0
 10
192.887
 20
69.7177
 30
0.0
 11
192.107
 21
69.5371
 31
0.0
  0
LINE
  8
0
 62
     0
 10
192.107
 20
69.5371
 30
0.0
 11
192.804
 21
66.518
 31
0.0
  0
LINE
  8
0
 62
     0
 10
192.804
 20
66.518
 30
0.0
 11
193.584
 21
66.6972
 31
0.0
  0
LINE
  8
0
 62
     0
 10
193.584
 20
66.6972
 30
0.0
 11
194.889
 21
61.0457
 31
0.0
  0
LINE
  8
0
 62
     0
 10
194.889
 20
61.0457
 30
0.0
 11
194.109
 21
60.8651
 31
0.0
  0
LINE
  8
0
 62
     0
 10
194.109
 20
60.8651
 30
0.0
 11
194.806
 21
57.846
 31
0.0
  0
LINE
  8
0
 62
     0
 10
194.806
 20
57.846
 30
0.0
 11
195.585
 21
58.0249
 31
0.0
  0
LINE
  8
0
 62
     0
 10
195.585
 20
58.0249
 30
0.0
 11
195.811
 21
57.0509
 31
0.0
  0
LINE
  8
0
 62
     0
 10
195.811
 20
57.0509
 30
0.0
 11
209.452
 21
60.2008
 31
0.0
  0
LINE
  8
0
 62
     0
 10
209.452
 20
60.2008
 30
0.0
 11
209.226
 21
61.1752
 31
0.0
  0
LINE
  8
0
 62
     0
 10
209.226
 20
61.1752
 30
0.0
 11
210.006
 21
61.3544
 31
0.0
  0
LINE
  8
0
 62
     0
 10
210.006
 20
61.3544
 30
0.0
 11
209.309
 21
64.3749
 31
0.0
  0
LINE
  8
0
 62
     0
 10
209.309
 20
64.3749
 30
0.0
 11
208.529
 21
64.196
 31
0.0
  0
LINE
  8
0
 62
     0
 10
208.529
 20
64.196
 30
0.0
 11
207.224
 21
69.8472
 31
0.0
  0
LINE
  8
0
 62
     0
 10
207.224
 20
69.8472
 30
0.0
 11
208.004
 21
70.0264
 31
0.0
  0
LINE
  8
0
 62
     0
 10
208.004
 20
70.0264
 30
0.0
 11
207.308
 21
73.0472
 31
0.0
  0
LINE
  8
0
 62
     0
 10
207.308
 20
73.0472
 30
0.0
 11
206.528
 21
72.868
 31
0.0
  0
LINE
  8
0
 62
     0
 10
206.528
 20
72.868
 30
0.0
 11
206.302
 21
73.842
 31
0.0
  0
LINE
  8
0
 62
     0
 10
206.302
 20
73.842
 30
0.0
 11
192.662
 21
70.6935
 31
0.0
  0
LINE
  8
0
 62
     0
 10
95.7241
 20
73.0525
 30
0.0
 11
94.9456
 21
73.2331
 31
0.0
  0
LINE
  8
0
 62
     0
 10
94.9456
 20
73.2331
 30
0.0
 11
94.2481
 21
70.2123
 31
0.0
  0
LINE
  8
0
 62
     0
 10
94.2481
 20
70.2123
 30
0.0
 11
95.0281
 21
70.0334
 31
0.0
  0
LINE
  8
0
 62
     0
 10
95.0281
 20
70.0334
 30
0.0
 11
93.7232
 21
64.3805
 31
0.0
  0
LINE
  8
0
 62
     0
 10
93.7232
 20
64.3805
 30
0.0
 11
92.9432
 21
64.5612
 31
0.0
  0
LINE
  8
0
 62
     0
 10
92.9432
 20
64.5612
 30
0.0
 11
92.2457
 21
61.5403
 31
0.0
  0
LINE
  8
0
 62
     0
 10
92.2457
 20
61.5403
 30
0.0
 11
93.0257
 21
61.3615
 31
0.0
  0
LINE
  8
0
 62
     0
 10
93.0257
 20
61.3615
 30
0.0
 11
92.8
 21
60.3857
 31
0.0
  0
LINE
  8
0
 62
     0
 10
92.8
 20
60.3857
 30
0.0
 11
106.441
 21
57.2368
 31
0.0
  0
LINE
  8
0
 62
     0
 10
106.441
 20
57.2368
 30
0.0
 11
106.667
 21
58.2112
 31
0.0
  0
LINE
  8
0
 62
     0
 10
106.667
 20
58.2112
 30
0.0
 11
107.447
 21
58.0305
 31
0.0
  0
LINE
  8
0
 62
     0
 10
107.447
 20
58.0305
 30
0.0
 11
108.143
 21
61.0514
 31
0.0
  0
LINE
  8
0
 62
     0
 10
108.143
 20
61.0514
 30
0.0
 11
107.363
 21
61.2316
 31
0.0
  0
LINE
  8
0
 62
     0
 10
107.363
 20
61.2316
 30
0.0
 11
108.668
 21
66.8831
 31
0.0
  0
LINE
  8
0
 62
     0
 10
108.668
 20
66.8831
 30
0.0
 11
109.448
 21
66.7025
 31
0.0
  0
LINE
  8
0
 62
     0
 10
109.448
 20
66.7025
 30
0.0
 11
110.145
 21
69.7234
 31
0.0
  0
LINE
  8
0
 62
     0
 10
110.145
 20
69.7234
 30
0.0
 11
109.367
 21
69.9036
 31
0.0
  0
LINE
  8
0
 62
     0
 10
109.367
 20
69.9036
 30
0.0
 11
109.59
 21
70.878
 31
0.0
  0
LINE
  8
0
 62
     0
 10
109.59
 20
70.878
 30
0.0
 11
95.9499
 21
74.0283
 31
0.0
  0
LINE
  8
0
 62
     0
 10
95.9499
 20
74.0283
 30
0.0
 11
95.7241
 21
73.0525
 31
0.0
  0
LINE
  8
0
 62
     0
 10
212.152
 20
75.1914
 30
0.0
 11
212.376
 21
74.2184
 31
0.0
  0
LINE
  8
0
 62
     0
 10
212.376
 20
74.2184
 30
0.0
 11
211.596
 21
74.0378
 31
0.0
  0
LINE
  8
0
 62
     0
 10
211.596
 20
74.0378
 30
0.0
 11
212.295
 21
71.0173
 31
0.0
  0
LINE
  8
0
 62
     0
 10
212.295
 20
71.0173
 30
0.0
 11
213.074
 21
71.1962
 31
0.0
  0
LINE
  8
0
 62
     0
 10
213.074
 20
71.1962
 30
0.0
 11
214.379
 21
65.5465
 31
0.0
  0
LINE
  8
0
 62
     0
 10
214.379
 20
65.5465
 30
0.0
 11
213.599
 21
65.3658
 31
0.0
  0
LINE
  8
0
 62
     0
 10
213.599
 20
65.3658
 30
0.0
 11
214.296
 21
62.3454
 31
0.0
  0
LINE
  8
0
 62
     0
 10
214.296
 20
62.3454
 30
0.0
 11
215.076
 21
62.5242
 31
0.0
  0
LINE
  8
0
 62
     0
 10
215.076
 20
62.5242
 30
0.0
 11
215.301
 21
61.5502
 31
0.0
  0
LINE
  8
0
 62
     0
 10
215.301
 20
61.5502
 30
0.0
 11
228.942
 21
64.7001
 31
0.0
  0
LINE
  8
0
 62
     0
 10
228.942
 20
64.7001
 30
0.0
 11
228.717
 21
65.6745
 31
0.0
  0
LINE
  8
0
 62
     0
 10
228.717
 20
65.6745
 30
0.0
 11
229.497
 21
65.8551
 31
0.0
  0
LINE
  8
0
 62
     0
 10
229.497
 20
65.8551
 30
0.0
 11
228.799
 21
68.8742
 31
0.0
  0
LINE
  8
0
 62
     0
 10
228.799
 20
68.8742
 30
0.0
 11
228.02
 21
68.6954
 31
0.0
  0
LINE
  8
0
 62
     0
 10
228.02
 20
68.6954
 30
0.0
 11
226.715
 21
74.3465
 31
0.0
  0
LINE
  8
0
 62
     0
 10
226.715
 20
74.3465
 30
0.0
 11
227.495
 21
74.5271
 31
0.0
  0
LINE
  8
0
 62
     0
 10
227.495
 20
74.5271
 30
0.0
 11
226.796
 21
77.5462
 31
0.0
  0
LINE
  8
0
 62
     0
 10
226.796
 20
77.5462
 30
0.0
 11
226.018
 21
77.3673
 31
0.0
  0
LINE
  8
0
 62
     0
 10
226.018
 20
77.3673
 30
0.0
 11
225.793
 21
78.3414
 31
0.0
  0
LINE
  8
0
 62
     0
 10
225.793
 20
78.3414
 30
0.0
 11
212.152
 21
75.1914
 31
0.0
  0
LINE
  8
0
 62
     0
 10
76.236
 20
77.5533
 30
0.0
 11
75.456
 21
77.7325
 31
0.0
  0
LINE
  8
0
 62
     0
 10
75.456
 20
77.7325
 30
0.0
 11
74.7586
 21
74.7116
 31
0.0
  0
LINE
  8
0
 62
     0
 10
74.7586
 20
74.7116
 30
0.0
 11
75.5371
 21
74.5314
 31
0.0
  0
LINE
  8
0
 62
     0
 10
75.5371
 20
74.5314
 30
0.0
 11
74.2322
 21
68.8813
 31
0.0
  0
LINE
  8
0
 62
     0
 10
74.2322
 20
68.8813
 30
0.0
 11
73.4536
 21
69.0605
 31
0.0
  0
LINE
  8
0
 62
     0
 10
73.4536
 20
69.0605
 30
0.0
 11
72.7562
 21
66.0396
 31
0.0
  0
LINE
  8
0
 62
     0
 10
72.7562
 20
66.0396
 30
0.0
 11
73.5348
 21
65.8594
 31
0.0
  0
LINE
  8
0
 62
     0
 10
73.5348
 20
65.8594
 30
0.0
 11
73.3104
 21
64.8864
 31
0.0
  0
LINE
  8
0
 62
     0
 10
73.3104
 20
64.8864
 30
0.0
 11
86.9516
 21
61.7361
 31
0.0
  0
LINE
  8
0
 62
     0
 10
86.9516
 20
61.7361
 30
0.0
 11
87.176
 21
62.7105
 31
0.0
  0
LINE
  8
0
 62
     0
 10
87.176
 20
62.7105
 30
0.0
 11
87.956
 21
62.5313
 31
0.0
  0
LINE
  8
0
 62
     0
 10
87.956
 20
62.5313
 30
0.0
 11
88.6534
 21
65.5518
 31
0.0
  0
LINE
  8
0
 62
     0
 10
88.6534
 20
65.5518
 30
0.0
 11
87.8748
 21
65.7324
 31
0.0
  0
LINE
  8
0
 62
     0
 10
87.8748
 20
65.7324
 30
0.0
 11
89.1783
 21
71.3825
 31
0.0
  0
LINE
  8
0
 62
     0
 10
89.1783
 20
71.3825
 30
0.0
 11
89.9583
 21
71.2033
 31
0.0
  0
LINE
  8
0
 62
     0
 10
89.9583
 20
71.2033
 30
0.0
 11
90.6558
 21
74.2227
 31
0.0
  0
LINE
  8
0
 62
     0
 10
90.6558
 20
74.2227
 30
0.0
 11
89.8772
 21
74.403
 31
0.0
  0
LINE
  8
0
 62
     0
 10
89.8772
 20
74.403
 30
0.0
 11
90.1016
 21
75.3773
 31
0.0
  0
LINE
  8
0
 62
     0
 10
90.1016
 20
75.3773
 30
0.0
 11
76.4589
 21
78.5262
 31
0.0
  0
LINE
  8
0
 62
     0
 10
76.4589
 20
78.5262
 30
0.0
 11
76.236
 21
77.5533
 31
0.0
  0
LINE
  8
0
 62
     0
 10
231.213
 20
81.5481
 30
0.0
 11
231.437
 21
80.5737
 31
0.0
  0
LINE
  8
0
 62
     0
 10
231.437
 20
80.5737
 30
0.0
 11
230.657
 21
80.3935
 31
0.0
  0
LINE
  8
0
 62
     0
 10
230.657
 20
80.3935
 30
0.0
 11
231.356
 21
77.3726
 31
0.0
  0
LINE
  8
0
 62
     0
 10
231.356
 20
77.3726
 30
0.0
 11
232.135
 21
77.5533
 31
0.0
  0
LINE
  8
0
 62
     0
 10
232.135
 20
77.5533
 30
0.0
 11
233.44
 21
71.9018
 31
0.0
  0
LINE
  8
0
 62
     0
 10
233.44
 20
71.9018
 30
0.0
 11
232.661
 21
71.7215
 31
0.0
  0
LINE
  8
0
 62
     0
 10
232.661
 20
71.7215
 30
0.0
 11
233.357
 21
68.7007
 31
0.0
  0
LINE
  8
0
 62
     0
 10
233.357
 20
68.7007
 30
0.0
 11
234.137
 21
68.8813
 31
0.0
  0
LINE
  8
0
 62
     0
 10
234.137
 20
68.8813
 30
0.0
 11
234.362
 21
67.9069
 31
0.0
  0
LINE
  8
0
 62
     0
 10
234.362
 20
67.9069
 30
0.0
 11
248.004
 21
71.0558
 31
0.0
  0
LINE
  8
0
 62
     0
 10
248.004
 20
71.0558
 30
0.0
 11
247.778
 21
72.0302
 31
0.0
  0
LINE
  8
0
 62
     0
 10
247.778
 20
72.0302
 30
0.0
 11
248.558
 21
72.2094
 31
0.0
  0
LINE
  8
0
 62
     0
 10
248.558
 20
72.2094
 30
0.0
 11
247.861
 21
75.2313
 31
0.0
  0
LINE
  8
0
 62
     0
 10
247.861
 20
75.2313
 30
0.0
 11
247.081
 21
75.0507
 31
0.0
  0
LINE
  8
0
 62
     0
 10
247.081
 20
75.0507
 30
0.0
 11
245.776
 21
80.7021
 31
0.0
  0
LINE
  8
0
 62
     0
 10
245.776
 20
80.7021
 30
0.0
 11
246.556
 21
80.8814
 31
0.0
  0
LINE
  8
0
 62
     0
 10
246.556
 20
80.8814
 30
0.0
 11
245.859
 21
83.9033
 31
0.0
  0
LINE
  8
0
 62
     0
 10
245.859
 20
83.9033
 30
0.0
 11
245.079
 21
83.7226
 31
0.0
  0
LINE
  8
0
 62
     0
 10
245.079
 20
83.7226
 30
0.0
 11
244.854
 21
84.697
 31
0.0
  0
LINE
  8
0
 62
     0
 10
244.854
 20
84.697
 30
0.0
 11
231.213
 21
81.5481
 31
0.0
  0
LINE
  8
0
 62
     0
 10
57.1733
 20
83.9089
 30
0.0
 11
56.3947
 21
84.0878
 31
0.0
  0
LINE
  8
0
 62
     0
 10
56.3947
 20
84.0878
 30
0.0
 11
55.6962
 21
81.0673
 31
0.0
  0
LINE
  8
0
 62
     0
 10
55.6962
 20
81.0673
 30
0.0
 11
56.4762
 21
80.8881
 31
0.0
  0
LINE
  8
0
 62
     0
 10
56.4762
 20
80.8881
 30
0.0
 11
55.1713
 21
75.2369
 31
0.0
  0
LINE
  8
0
 62
     0
 10
55.1713
 20
75.2369
 30
0.0
 11
54.3927
 21
75.4172
 31
0.0
  0
LINE
  8
0
 62
     0
 10
54.3927
 20
75.4172
 30
0.0
 11
53.6938
 21
72.3953
 31
0.0
  0
LINE
  8
0
 62
     0
 10
53.6938
 20
72.3953
 30
0.0
 11
54.4738
 21
72.2161
 31
0.0
  0
LINE
  8
0
 62
     0
 10
54.4738
 20
72.2161
 30
0.0
 11
54.2491
 21
71.2417
 31
0.0
  0
LINE
  8
0
 62
     0
 10
54.2491
 20
71.2417
 30
0.0
 11
67.8903
 21
68.0918
 31
0.0
  0
LINE
  8
0
 62
     0
 10
67.8903
 20
68.0918
 30
0.0
 11
68.115
 21
69.0672
 31
0.0
  0
LINE
  8
0
 62
     0
 10
68.115
 20
69.0672
 30
0.0
 11
68.895
 21
68.8869
 31
0.0
  0
LINE
  8
0
 62
     0
 10
68.895
 20
68.8869
 30
0.0
 11
69.5925
 21
71.9074
 31
0.0
  0
LINE
  8
0
 62
     0
 10
69.5925
 20
71.9074
 30
0.0
 11
68.8125
 21
72.0866
 31
0.0
  0
LINE
  8
0
 62
     0
 10
68.8125
 20
72.0866
 30
0.0
 11
70.1174
 21
77.7392
 31
0.0
  0
LINE
  8
0
 62
     0
 10
70.1174
 20
77.7392
 30
0.0
 11
70.8974
 21
77.5589
 31
0.0
  0
LINE
  8
0
 62
     0
 10
70.8974
 20
77.5589
 30
0.0
 11
71.5945
 21
80.5794
 31
0.0
  0
LINE
  8
0
 62
     0
 10
71.5945
 20
80.5794
 30
0.0
 11
70.8145
 21
80.7586
 31
0.0
  0
LINE
  8
0
 62
     0
 10
70.8145
 20
80.7586
 30
0.0
 11
71.0392
 21
81.7344
 31
0.0
  0
LINE
  8
0
 62
     0
 10
71.0392
 20
81.7344
 30
0.0
 11
57.398
 21
84.8829
 31
0.0
  0
LINE
  8
0
 62
     0
 10
57.398
 20
84.8829
 30
0.0
 11
57.1733
 21
83.9089
 31
0.0
  0
LINE
  8
0
 62
     0
 10
251.346
 20
83.2626
 30
0.0
 11
251.57
 21
82.2882
 31
0.0
  0
LINE
  8
0
 62
     0
 10
251.57
 20
82.2882
 30
0.0
 11
250.79
 21
82.109
 31
0.0
  0
LINE
  8
0
 62
     0
 10
250.79
 20
82.109
 30
0.0
 11
251.488
 21
79.0885
 31
0.0
  0
LINE
  8
0
 62
     0
 10
251.488
 20
79.0885
 30
0.0
 11
252.268
 21
79.2674
 31
0.0
  0
LINE
  8
0
 62
     0
 10
252.268
 20
79.2674
 30
0.0
 11
253.571
 21
73.6163
 31
0.0
  0
LINE
  8
0
 62
     0
 10
253.571
 20
73.6163
 30
0.0
 11
252.793
 21
73.437
 31
0.0
  0
LINE
  8
0
 62
     0
 10
252.793
 20
73.437
 30
0.0
 11
253.49
 21
70.4162
 31
0.0
  0
LINE
  8
0
 62
     0
 10
253.49
 20
70.4162
 30
0.0
 11
254.269
 21
70.5954
 31
0.0
  0
LINE
  8
0
 62
     0
 10
254.269
 20
70.5954
 30
0.0
 11
254.495
 21
69.6214
 31
0.0
  0
LINE
  8
0
 62
     0
 10
254.495
 20
69.6214
 30
0.0
 11
268.136
 21
72.7699
 31
0.0
  0
LINE
  8
0
 62
     0
 10
268.136
 20
72.7699
 30
0.0
 11
267.91
 21
73.7457
 31
0.0
  0
LINE
  8
0
 62
     0
 10
267.91
 20
73.7457
 30
0.0
 11
268.69
 21
73.9263
 31
0.0
  0
LINE
  8
0
 62
     0
 10
268.69
 20
73.9263
 30
0.0
 11
267.993
 21
76.9454
 31
0.0
  0
LINE
  8
0
 62
     0
 10
267.993
 20
76.9454
 30
0.0
 11
267.214
 21
76.7662
 31
0.0
  0
LINE
  8
0
 62
     0
 10
267.214
 20
76.7662
 30
0.0
 11
265.909
 21
82.4177
 31
0.0
  0
LINE
  8
0
 62
     0
 10
265.909
 20
82.4177
 30
0.0
 11
266.689
 21
82.5983
 31
0.0
  0
LINE
  8
0
 62
     0
 10
266.689
 20
82.5983
 30
0.0
 11
265.99
 21
85.6174
 31
0.0
  0
LINE
  8
0
 62
     0
 10
265.99
 20
85.6174
 30
0.0
 11
265.212
 21
85.4385
 31
0.0
  0
LINE
  8
0
 62
     0
 10
265.212
 20
85.4385
 30
0.0
 11
264.987
 21
86.4126
 31
0.0
  0
LINE
  8
0
 62
     0
 10
264.987
 20
86.4126
 30
0.0
 11
251.346
 21
83.2626
 31
0.0
  0
LINE
  8
0
 62
     0
 10
37.0417
 20
85.6245
 30
0.0
 11
36.2617
 21
85.8037
 31
0.0
  0
LINE
  8
0
 62
     0
 10
36.2617
 20
85.8037
 30
0.0
 11
35.5646
 21
82.7828
 31
0.0
  0
LINE
  8
0
 62
     0
 10
35.5646
 20
82.7828
 30
0.0
 11
36.3432
 21
82.6022
 31
0.0
  0
LINE
  8
0
 62
     0
 10
36.3432
 20
82.6022
 30
0.0
 11
35.038
 21
76.9525
 31
0.0
  0
LINE
  8
0
 62
     0
 10
35.038
 20
76.9525
 30
0.0
 11
34.2594
 21
77.1317
 31
0.0
  0
LINE
  8
0
 62
     0
 10
34.2594
 20
77.1317
 30
0.0
 11
33.5621
 21
74.1109
 31
0.0
  0
LINE
  8
0
 62
     0
 10
33.5621
 20
74.1109
 30
0.0
 11
34.3421
 21
73.9302
 31
0.0
  0
LINE
  8
0
 62
     0
 10
34.3421
 20
73.9302
 30
0.0
 11
34.1161
 21
72.9562
 31
0.0
  0
LINE
  8
0
 62
     0
 10
34.1161
 20
72.9562
 30
0.0
 11
47.7573
 21
69.8073
 31
0.0
  0
LINE
  8
0
 62
     0
 10
47.7573
 20
69.8073
 30
0.0
 11
47.982
 21
70.7817
 31
0.0
  0
LINE
  8
0
 62
     0
 10
47.982
 20
70.7817
 30
0.0
 11
48.762
 21
70.6025
 31
0.0
  0
LINE
  8
0
 62
     0
 10
48.762
 20
70.6025
 30
0.0
 11
49.4591
 21
73.623
 31
0.0
  0
LINE
  8
0
 62
     0
 10
49.4591
 20
73.623
 30
0.0
 11
48.6805
 21
73.8022
 31
0.0
  0
LINE
  8
0
 62
     0
 10
48.6805
 20
73.8022
 30
0.0
 11
49.9844
 21
79.4537
 31
0.0
  0
LINE
  8
0
 62
     0
 10
49.9844
 20
79.4537
 30
0.0
 11
50.764
 21
79.2745
 31
0.0
  0
LINE
  8
0
 62
     0
 10
50.764
 20
79.2745
 30
0.0
 11
51.4615
 21
82.2949
 31
0.0
  0
LINE
  8
0
 62
     0
 10
51.4615
 20
82.2949
 30
0.0
 11
50.6829
 21
82.4742
 31
0.0
  0
LINE
  8
0
 62
     0
 10
50.6829
 20
82.4742
 30
0.0
 11
50.9076
 21
83.4485
 31
0.0
  0
LINE
  8
0
 62
     0
 10
50.9076
 20
83.4485
 30
0.0
 11
37.2664
 21
86.5974
 31
0.0
  0
LINE
  8
0
 62
     0
 10
37.2664
 20
86.5974
 30
0.0
 11
37.0417
 21
85.6245
 31
0.0
  0
LINE
  8
0
 62
     0
 10
163.926
 20
84.6875
 30
0.0
 11
163.926
 21
83.6884
 31
0.0
  0
LINE
  8
0
 62
     0
 10
163.926
 20
83.6884
 30
0.0
 11
163.127
 21
83.6884
 31
0.0
  0
LINE
  8
0
 62
     0
 10
163.127
 20
83.6884
 30
0.0
 11
163.127
 21
80.5879
 31
0.0
  0
LINE
  8
0
 62
     0
 10
163.127
 20
80.5879
 30
0.0
 11
163.926
 21
80.5879
 31
0.0
  0
LINE
  8
0
 62
     0
 10
163.926
 20
80.5879
 30
0.0
 11
163.926
 21
74.7875
 31
0.0
  0
LINE
  8
0
 62
     0
 10
163.926
 20
74.7875
 30
0.0
 11
163.127
 21
74.7875
 31
0.0
  0
LINE
  8
0
 62
     0
 10
163.127
 20
74.7875
 30
0.0
 11
163.127
 21
71.6883
 31
0.0
  0
LINE
  8
0
 62
     0
 10
163.127
 20
71.6883
 30
0.0
 11
163.926
 21
71.6883
 31
0.0
  0
LINE
  8
0
 62
     0
 10
163.926
 20
71.6883
 30
0.0
 11
163.926
 21
70.6878
 31
0.0
  0
LINE
  8
0
 62
     0
 10
163.926
 20
70.6878
 30
0.0
 11
177.927
 21
70.6878
 31
0.0
  0
LINE
  8
0
 62
     0
 10
177.927
 20
70.6878
 30
0.0
 11
177.927
 21
71.6883
 31
0.0
  0
LINE
  8
0
 62
     0
 10
177.927
 20
71.6883
 30
0.0
 11
178.726
 21
71.6883
 31
0.0
  0
LINE
  8
0
 62
     0
 10
178.726
 20
71.6883
 30
0.0
 11
178.726
 21
74.7875
 31
0.0
  0
LINE
  8
0
 62
     0
 10
178.726
 20
74.7875
 30
0.0
 11
177.927
 21
74.7875
 31
0.0
  0
LINE
  8
0
 62
     0
 10
177.927
 20
74.7875
 30
0.0
 11
177.927
 21
80.5879
 31
0.0
  0
LINE
  8
0
 62
     0
 10
177.927
 20
80.5879
 30
0.0
 11
178.726
 21
80.5879
 31
0.0
  0
LINE
  8
0
 62
     0
 10
178.726
 20
80.5879
 30
0.0
 11
178.726
 21
83.6884
 31
0.0
  0
LINE
  8
0
 62
     0
 10
178.726
 20
83.6884
 30
0.0
 11
177.927
 21
83.6884
 31
0.0
  0
LINE
  8
0
 62
     0
 10
177.927
 20
83.6884
 30
0.0
 11
177.927
 21
84.6875
 31
0.0
  0
LINE
  8
0
 62
     0
 10
177.927
 20
84.6875
 30
0.0
 11
163.926
 21
84.6875
 31
0.0
  0
LINE
  8
0
 62
     0
 10
143.734
 20
84.6875
 30
0.0
 11
143.734
 21
83.6884
 31
0.0
  0
LINE
  8
0
 62
     0
 10
143.734
 20
83.6884
 30
0.0
 11
142.933
 21
83.6884
 31
0.0
  0
LINE
  8
0
 62
     0
 10
142.933
 20
83.6884
 30
0.0
 11
142.933
 21
80.5879
 31
0.0
  0
LINE
  8
0
 62
     0
 10
142.933
 20
80.5879
 30
0.0
 11
143.734
 21
80.5879
 31
0.0
  0
LINE
  8
0
 62
     0
 10
143.734
 20
80.5879
 30
0.0
 11
143.734
 21
74.7875
 31
0.0
  0
LINE
  8
0
 62
     0
 10
143.734
 20
74.7875
 30
0.0
 11
142.933
 21
74.7875
 31
0.0
  0
LINE
  8
0
 62
     0
 10
142.933
 20
74.7875
 30
0.0
 11
142.933
 21
71.6883
 31
0.0
  0
LINE
  8
0
 62
     0
 10
142.933
 20
71.6883
 30
0.0
 11
143.734
 21
71.6883
 31
0.0
  0
LINE
  8
0
 62
     0
 10
143.734
 20
71.6883
 30
0.0
 11
143.734
 21
70.6878
 31
0.0
  0
LINE
  8
0
 62
     0
 10
143.734
 20
70.6878
 30
0.0
 11
157.733
 21
70.6878
 31
0.0
  0
LINE
  8
0
 62
     0
 10
157.733
 20
70.6878
 30
0.0
 11
157.733
 21
71.6883
 31
0.0
  0
LINE
  8
0
 62
     0
 10
157.733
 20
71.6883
 30
0.0
 11
158.534
 21
71.6883
 31
0.0
  0
LINE
  8
0
 62
     0
 10
158.534
 20
71.6883
 30
0.0
 11
158.534
 21
74.7875
 31
0.0
  0
LINE
  8
0
 62
     0
 10
158.534
 20
74.7875
 30
0.0
 11
157.733
 21
74.7875
 31
0.0
  0
LINE
  8
0
 62
     0
 10
157.733
 20
74.7875
 30
0.0
 11
157.733
 21
80.5879
 31
0.0
  0
LINE
  8
0
 62
     0
 10
157.733
 20
80.5879
 30
0.0
 11
158.534
 21
80.5879
 31
0.0
  0
LINE
  8
0
 62
     0
 10
158.534
 20
80.5879
 30
0.0
 11
158.534
 21
83.6884
 31
0.0
  0
LINE
  8
0
 62
     0
 10
158.534
 20
83.6884
 30
0.0
 11
157.733
 21
83.6884
 31
0.0
  0
LINE
  8
0
 62
     0
 10
157.733
 20
83.6884
 30
0.0
 11
157.733
 21
84.6875
 31
0.0
  0
LINE
  8
0
 62
     0
 10
157.733
 20
84.6875
 30
0.0
 11
143.734
 21
84.6875
 31
0.0
  0
LINE
  8
0
 62
     0
 10
123.729
 20
84.6875
 30
0.0
 11
123.729
 21
83.6884
 31
0.0
  0
LINE
  8
0
 62
     0
 10
123.729
 20
83.6884
 30
0.0
 11
122.931
 21
83.6884
 31
0.0
  0
LINE
  8
0
 62
     0
 10
122.931
 20
83.6884
 30
0.0
 11
122.931
 21
80.5879
 31
0.0
  0
LINE
  8
0
 62
     0
 10
122.931
 20
80.5879
 30
0.0
 11
123.729
 21
80.5879
 31
0.0
  0
LINE
  8
0
 62
     0
 10
123.729
 20
80.5879
 30
0.0
 11
123.729
 21
74.7875
 31
0.0
  0
LINE
  8
0
 62
     0
 10
123.729
 20
74.7875
 30
0.0
 11
122.931
 21
74.7875
 31
0.0
  0
LINE
  8
0
 62
     0
 10
122.931
 20
74.7875
 30
0.0
 11
122.931
 21
71.6883
 31
0.0
  0
LINE
  8
0
 62
     0
 10
122.931
 20
71.6883
 30
0.0
 11
123.729
 21
71.6883
 31
0.0
  0
LINE
  8
0
 62
     0
 10
123.729
 20
71.6883
 30
0.0
 11
123.729
 21
70.6878
 31
0.0
  0
LINE
  8
0
 62
     0
 10
123.729
 20
70.6878
 30
0.0
 11
137.731
 21
70.6878
 31
0.0
  0
LINE
  8
0
 62
     0
 10
137.731
 20
70.6878
 30
0.0
 11
137.731
 21
71.6883
 31
0.0
  0
LINE
  8
0
 62
     0
 10
137.731
 20
71.6883
 30
0.0
 11
138.53
 21
71.6883
 31
0.0
  0
LINE
  8
0
 62
     0
 10
138.53
 20
71.6883
 30
0.0
 11
138.53
 21
74.7875
 31
0.0
  0
LINE
  8
0
 62
     0
 10
138.53
 20
74.7875
 30
0.0
 11
137.731
 21
74.7875
 31
0.0
  0
LINE
  8
0
 62
     0
 10
137.731
 20
74.7875
 30
0.0
 11
137.731
 21
80.5879
 31
0.0
  0
LINE
  8
0
 62
     0
 10
137.731
 20
80.5879
 30
0.0
 11
138.53
 21
80.5879
 31
0.0
  0
LINE
  8
0
 62
     0
 10
138.53
 20
80.5879
 30
0.0
 11
138.53
 21
83.6884
 31
0.0
  0
LINE
  8
0
 62
     0
 10
138.53
 20
83.6884
 30
0.0
 11
137.731
 21
83.6884
 31
0.0
  0
LINE
  8
0
 62
     0
 10
137.731
 20
83.6884
 30
0.0
 11
137.731
 21
84.6875
 31
0.0
  0
LINE
  8
0
 62
     0
 10
137.731
 20
84.6875
 30
0.0
 11
123.729
 21
84.6875
 31
0.0
  0
LINE
  8
0
 62
     0
 10
272.802
 20
85.5225
 30
0.0
 11
272.915
 21
84.5301
 31
0.0
  0
LINE
  8
0
 62
     0
 10
272.915
 20
84.5301
 30
0.0
 11
272.12
 21
84.4391
 31
0.0
  0
LINE
  8
0
 62
     0
 10
272.12
 20
84.4391
 30
0.0
 11
272.47
 21
81.3594
 31
0.0
  0
LINE
  8
0
 62
     0
 10
272.47
 20
81.3594
 30
0.0
 11
273.265
 21
81.4504
 31
0.0
  0
LINE
  8
0
 62
     0
 10
273.265
 20
81.4504
 30
0.0
 11
273.921
 21
75.6874
 31
0.0
  0
LINE
  8
0
 62
     0
 10
273.921
 20
75.6874
 30
0.0
 11
273.127
 21
75.5964
 31
0.0
  0
LINE
  8
0
 62
     0
 10
273.127
 20
75.5964
 30
0.0
 11
273.477
 21
72.5152
 31
0.0
  0
LINE
  8
0
 62
     0
 10
273.477
 20
72.5152
 30
0.0
 11
274.272
 21
72.6063
 31
0.0
  0
LINE
  8
0
 62
     0
 10
274.272
 20
72.6063
 30
0.0
 11
274.385
 21
71.6125
 31
0.0
  0
LINE
  8
0
 62
     0
 10
274.385
 20
71.6125
 30
0.0
 11
288.295
 21
73.1972
 31
0.0
  0
LINE
  8
0
 62
     0
 10
288.295
 20
73.1972
 30
0.0
 11
288.182
 21
74.1923
 31
0.0
  0
LINE
  8
0
 62
     0
 10
288.182
 20
74.1923
 30
0.0
 11
288.977
 21
74.2819
 31
0.0
  0
LINE
  8
0
 62
     0
 10
288.977
 20
74.2819
 30
0.0
 11
288.626
 21
77.3617
 31
0.0
  0
LINE
  8
0
 62
     0
 10
288.626
 20
77.3617
 30
0.0
 11
287.831
 21
77.2721
 31
0.0
  0
LINE
  8
0
 62
     0
 10
287.831
 20
77.2721
 30
0.0
 11
287.175
 21
83.0351
 31
0.0
  0
LINE
  8
0
 62
     0
 10
287.175
 20
83.0351
 30
0.0
 11
287.97
 21
83.1247
 31
0.0
  0
LINE
  8
0
 62
     0
 10
287.97
 20
83.1247
 30
0.0
 11
287.62
 21
86.2044
 31
0.0
  0
LINE
  8
0
 62
     0
 10
287.62
 20
86.2044
 30
0.0
 11
286.825
 21
86.1148
 31
0.0
  0
LINE
  8
0
 62
     0
 10
286.825
 20
86.1148
 30
0.0
 11
286.712
 21
87.1072
 31
0.0
  0
LINE
  8
0
 62
     0
 10
286.712
 20
87.1072
 30
0.0
 11
272.802
 21
85.5225
 31
0.0
  0
LINE
  8
0
 62
     0
 10
15.4809
 20
86.3604
 30
0.0
 11
14.6871
 21
86.4514
 31
0.0
  0
LINE
  8
0
 62
     0
 10
14.6871
 20
86.4514
 30
0.0
 11
14.3357
 21
83.3713
 31
0.0
  0
LINE
  8
0
 62
     0
 10
14.3357
 20
83.3713
 30
0.0
 11
15.1309
 21
83.2803
 31
0.0
  0
LINE
  8
0
 62
     0
 10
15.1309
 20
83.2803
 30
0.0
 11
14.4735
 21
77.5173
 31
0.0
  0
LINE
  8
0
 62
     0
 10
14.4735
 20
77.5173
 30
0.0
 11
13.6798
 21
77.6083
 31
0.0
  0
LINE
  8
0
 62
     0
 10
13.6798
 20
77.6083
 30
0.0
 11
13.3284
 21
74.5271
 31
0.0
  0
LINE
  8
0
 62
     0
 10
13.3284
 20
74.5271
 30
0.0
 11
14.1235
 21
74.4361
 31
0.0
  0
LINE
  8
0
 62
     0
 10
14.1235
 20
74.4361
 30
0.0
 11
14.0091
 21
73.4441
 31
0.0
  0
LINE
  8
0
 62
     0
 10
14.0091
 20
73.4441
 30
0.0
 11
27.919
 21
71.8591
 31
0.0
  0
LINE
  8
0
 62
     0
 10
27.919
 20
71.8591
 30
0.0
 11
28.0334
 21
72.8528
 31
0.0
  0
LINE
  8
0
 62
     0
 10
28.0334
 20
72.8528
 30
0.0
 11
28.8272
 21
72.7618
 31
0.0
  0
LINE
  8
0
 62
     0
 10
28.8272
 20
72.7618
 30
0.0
 11
29.1786
 21
75.8416
 31
0.0
  0
LINE
  8
0
 62
     0
 10
29.1786
 20
75.8416
 30
0.0
 11
28.3834
 21
75.9326
 31
0.0
  0
LINE
  8
0
 62
     0
 10
28.3834
 20
75.9326
 30
0.0
 11
29.0408
 21
81.6942
 31
0.0
  0
LINE
  8
0
 62
     0
 10
29.0408
 20
81.6942
 30
0.0
 11
29.8359
 21
81.6046
 31
0.0
  0
LINE
  8
0
 62
     0
 10
29.8359
 20
81.6046
 30
0.0
 11
30.1859
 21
84.6847
 31
0.0
  0
LINE
  8
0
 62
     0
 10
30.1859
 20
84.6847
 30
0.0
 11
29.3908
 21
84.7743
 31
0.0
  0
LINE
  8
0
 62
     0
 10
29.3908
 20
84.7743
 30
0.0
 11
29.5052
 21
85.7691
 31
0.0
  0
LINE
  8
0
 62
     0
 10
29.5052
 20
85.7691
 30
0.0
 11
15.5939
 21
87.3538
 31
0.0
  0
LINE
  8
0
 62
     0
 10
15.5939
 20
87.3538
 30
0.0
 11
15.4809
 21
86.3604
 31
0.0
  0
LINE
  8
0
 62
     0
 10
188.161
 20
90.1816
 30
0.0
 11
188.386
 21
89.2073
 31
0.0
  0
LINE
  8
0
 62
     0
 10
188.386
 20
89.2073
 30
0.0
 11
187.608
 21
89.0281
 31
0.0
  0
LINE
  8
0
 62
     0
 10
187.608
 20
89.0281
 30
0.0
 11
188.305
 21
86.0076
 31
0.0
  0
LINE
  8
0
 62
     0
 10
188.305
 20
86.0076
 30
0.0
 11
189.085
 21
86.1882
 31
0.0
  0
LINE
  8
0
 62
     0
 10
189.085
 20
86.1882
 30
0.0
 11
190.389
 21
80.5353
 31
0.0
  0
LINE
  8
0
 62
     0
 10
190.389
 20
80.5353
 30
0.0
 11
189.61
 21
80.3561
 31
0.0
  0
LINE
  8
0
 62
     0
 10
189.61
 20
80.3561
 30
0.0
 11
190.307
 21
77.3356
 31
0.0
  0
LINE
  8
0
 62
     0
 10
190.307
 20
77.3356
 30
0.0
 11
191.087
 21
77.5159
 31
0.0
  0
LINE
  8
0
 62
     0
 10
191.087
 20
77.5159
 30
0.0
 11
191.312
 21
76.5404
 31
0.0
  0
LINE
  8
0
 62
     0
 10
191.312
 20
76.5404
 30
0.0
 11
204.953
 21
79.6907
 31
0.0
  0
LINE
  8
0
 62
     0
 10
204.953
 20
79.6907
 30
0.0
 11
204.727
 21
80.6648
 31
0.0
  0
LINE
  8
0
 62
     0
 10
204.727
 20
80.6648
 30
0.0
 11
205.507
 21
80.8454
 31
0.0
  0
LINE
  8
0
 62
     0
 10
205.507
 20
80.8454
 30
0.0
 11
204.81
 21
83.8648
 31
0.0
  0
LINE
  8
0
 62
     0
 10
204.81
 20
83.8648
 30
0.0
 11
204.03
 21
83.6856
 31
0.0
  0
LINE
  8
0
 62
     0
 10
204.03
 20
83.6856
 30
0.0
 11
202.726
 21
89.3382
 31
0.0
  0
LINE
  8
0
 62
     0
 10
202.726
 20
89.3382
 30
0.0
 11
203.504
 21
89.5174
 31
0.0
  0
LINE
  8
0
 62
     0
 10
203.504
 20
89.5174
 30
0.0
 11
202.807
 21
92.5368
 31
0.0
  0
LINE
  8
0
 62
     0
 10
202.807
 20
92.5368
 30
0.0
 11
202.027
 21
92.3562
 31
0.0
  0
LINE
  8
0
 62
     0
 10
202.027
 20
92.3562
 30
0.0
 11
201.803
 21
93.3319
 31
0.0
  0
LINE
  8
0
 62
     0
 10
201.803
 20
93.3319
 30
0.0
 11
188.161
 21
90.1816
 31
0.0
  0
LINE
  8
0
 62
     0
 10
100.225
 20
92.5421
 30
0.0
 11
99.4449
 21
92.7227
 31
0.0
  0
LINE
  8
0
 62
     0
 10
99.4449
 20
92.7227
 30
0.0
 11
98.7474
 21
89.7019
 31
0.0
  0
LINE
  8
0
 62
     0
 10
98.7474
 20
89.7019
 30
0.0
 11
99.5274
 21
89.5216
 31
0.0
  0
LINE
  8
0
 62
     0
 10
99.5274
 20
89.5216
 30
0.0
 11
98.2225
 21
83.8701
 31
0.0
  0
LINE
  8
0
 62
     0
 10
98.2225
 20
83.8701
 30
0.0
 11
97.4425
 21
84.0507
 31
0.0
  0
LINE
  8
0
 62
     0
 10
97.4425
 20
84.0507
 30
0.0
 11
96.7451
 21
81.0313
 31
0.0
  0
LINE
  8
0
 62
     0
 10
96.7451
 20
81.0313
 30
0.0
 11
97.5251
 21
80.851
 31
0.0
  0
LINE
  8
0
 62
     0
 10
97.5251
 20
80.851
 30
0.0
 11
97.3007
 21
79.8752
 31
0.0
  0
LINE
  8
0
 62
     0
 10
97.3007
 20
79.8752
 30
0.0
 11
110.942
 21
76.7263
 31
0.0
  0
LINE
  8
0
 62
     0
 10
110.942
 20
76.7263
 30
0.0
 11
111.166
 21
77.7007
 31
0.0
  0
LINE
  8
0
 62
     0
 10
111.166
 20
77.7007
 30
0.0
 11
111.945
 21
77.5201
 31
0.0
  0
LINE
  8
0
 62
     0
 10
111.945
 20
77.5201
 30
0.0
 11
112.644
 21
80.5423
 31
0.0
  0
LINE
  8
0
 62
     0
 10
112.644
 20
80.5423
 30
0.0
 11
111.864
 21
80.7212
 31
0.0
  0
LINE
  8
0
 62
     0
 10
111.864
 20
80.7212
 30
0.0
 11
113.169
 21
86.3727
 31
0.0
  0
LINE
  8
0
 62
     0
 10
113.169
 20
86.3727
 30
0.0
 11
113.947
 21
86.1921
 31
0.0
  0
LINE
  8
0
 62
     0
 10
113.947
 20
86.1921
 30
0.0
 11
114.646
 21
89.2143
 31
0.0
  0
LINE
  8
0
 62
     0
 10
114.646
 20
89.2143
 30
0.0
 11
113.866
 21
89.3932
 31
0.0
  0
LINE
  8
0
 62
     0
 10
113.866
 20
89.3932
 30
0.0
 11
114.09
 21
90.3676
 31
0.0
  0
LINE
  8
0
 62
     0
 10
114.09
 20
90.3676
 30
0.0
 11
100.449
 21
93.5164
 31
0.0
  0
LINE
  8
0
 62
     0
 10
100.449
 20
93.5164
 30
0.0
 11
100.225
 21
92.5421
 31
0.0
  0
LINE
  8
0
 62
     0
 10
207.651
 20
94.6824
 30
0.0
 11
207.877
 21
93.708
 31
0.0
  0
LINE
  8
0
 62
     0
 10
207.877
 20
93.708
 30
0.0
 11
207.097
 21
93.5274
 31
0.0
  0
LINE
  8
0
 62
     0
 10
207.097
 20
93.5274
 30
0.0
 11
207.794
 21
90.5069
 31
0.0
  0
LINE
  8
0
 62
     0
 10
207.794
 20
90.5069
 30
0.0
 11
208.573
 21
90.6872
 31
0.0
  0
LINE
  8
0
 62
     0
 10
208.573
 20
90.6872
 30
0.0
 11
209.878
 21
85.036
 31
0.0
  0
LINE
  8
0
 62
     0
 10
209.878
 20
85.036
 30
0.0
 11
209.1
 21
84.8554
 31
0.0
  0
LINE
  8
0
 62
     0
 10
209.1
 20
84.8554
 30
0.0
 11
209.797
 21
81.8349
 31
0.0
  0
LINE
  8
0
 62
     0
 10
209.797
 20
81.8349
 30
0.0
 11
210.575
 21
82.0152
 31
0.0
  0
LINE
  8
0
 62
     0
 10
210.575
 20
82.0152
 30
0.0
 11
210.8
 21
81.0412
 31
0.0
  0
LINE
  8
0
 62
     0
 10
210.8
 20
81.0412
 30
0.0
 11
224.443
 21
84.1897
 31
0.0
  0
LINE
  8
0
 62
     0
 10
224.443
 20
84.1897
 30
0.0
 11
224.218
 21
85.1641
 31
0.0
  0
LINE
  8
0
 62
     0
 10
224.218
 20
85.1641
 30
0.0
 11
224.996
 21
85.3447
 31
0.0
  0
LINE
  8
0
 62
     0
 10
224.996
 20
85.3447
 30
0.0
 11
224.299
 21
88.3652
 31
0.0
  0
LINE
  8
0
 62
     0
 10
224.299
 20
88.3652
 30
0.0
 11
223.519
 21
88.1849
 31
0.0
  0
LINE
  8
0
 62
     0
 10
223.519
 20
88.1849
 30
0.0
 11
222.215
 21
93.8361
 31
0.0
  0
LINE
  8
0
 62
     0
 10
222.215
 20
93.8361
 30
0.0
 11
222.994
 21
94.0153
 31
0.0
  0
LINE
  8
0
 62
     0
 10
222.994
 20
94.0153
 30
0.0
 11
222.297
 21
97.0372
 31
0.0
  0
LINE
  8
0
 62
     0
 10
222.297
 20
97.0372
 30
0.0
 11
221.517
 21
96.8569
 31
0.0
  0
LINE
  8
0
 62
     0
 10
221.517
 20
96.8569
 30
0.0
 11
221.292
 21
97.8309
 31
0.0
  0
LINE
  8
0
 62
     0
 10
221.292
 20
97.8309
 30
0.0
 11
207.651
 21
94.6824
 31
0.0
  0
LINE
  8
0
 62
     0
 10
80.735
 20
97.0428
 30
0.0
 11
79.9553
 21
97.2234
 31
0.0
  0
LINE
  8
0
 62
     0
 10
79.9553
 20
97.2234
 30
0.0
 11
79.2579
 21
94.2012
 31
0.0
  0
LINE
  8
0
 62
     0
 10
79.2579
 20
94.2012
 30
0.0
 11
80.0379
 21
94.0223
 31
0.0
  0
LINE
  8
0
 62
     0
 10
80.0379
 20
94.0223
 30
0.0
 11
78.7329
 21
88.3708
 31
0.0
  0
LINE
  8
0
 62
     0
 10
78.7329
 20
88.3708
 30
0.0
 11
77.953
 21
88.5515
 31
0.0
  0
LINE
  8
0
 62
     0
 10
77.953
 20
88.5515
 30
0.0
 11
77.2555
 21
85.5292
 31
0.0
  0
LINE
  8
0
 62
     0
 10
77.2555
 20
85.5292
 30
0.0
 11
78.0355
 21
85.3504
 31
0.0
  0
LINE
  8
0
 62
     0
 10
78.0355
 20
85.3504
 30
0.0
 11
77.8108
 21
84.376
 31
0.0
  0
LINE
  8
0
 62
     0
 10
77.8108
 20
84.376
 30
0.0
 11
91.452
 21
81.2257
 31
0.0
  0
LINE
  8
0
 62
     0
 10
91.452
 20
81.2257
 30
0.0
 11
91.6767
 21
82.2015
 31
0.0
  0
LINE
  8
0
 62
     0
 10
91.6767
 20
82.2015
 30
0.0
 11
92.4553
 21
82.0208
 31
0.0
  0
LINE
  8
0
 62
     0
 10
92.4553
 20
82.0208
 30
0.0
 11
93.1541
 21
85.0403
 31
0.0
  0
LINE
  8
0
 62
     0
 10
93.1541
 20
85.0403
 30
0.0
 11
92.3742
 21
85.2205
 31
0.0
  0
LINE
  8
0
 62
     0
 10
92.3742
 20
85.2205
 30
0.0
 11
93.6791
 21
90.8734
 31
0.0
  0
LINE
  8
0
 62
     0
 10
93.6791
 20
90.8734
 30
0.0
 11
94.4577
 21
90.6928
 31
0.0
  0
LINE
  8
0
 62
     0
 10
94.4577
 20
90.6928
 30
0.0
 11
95.1548
 21
93.7122
 31
0.0
  0
LINE
  8
0
 62
     0
 10
95.1548
 20
93.7122
 30
0.0
 11
94.3751
 21
93.8925
 31
0.0
  0
LINE
  8
0
 62
     0
 10
94.3751
 20
93.8925
 30
0.0
 11
94.6009
 21
94.8683
 31
0.0
  0
LINE
  8
0
 62
     0
 10
94.6009
 20
94.8683
 30
0.0
 11
80.9597
 21
98.0172
 31
0.0
  0
LINE
  8
0
 62
     0
 10
80.9597
 20
98.0172
 30
0.0
 11
80.735
 21
97.0428
 31
0.0
  0
LINE
  8
0
 62
     0
 10
226.712
 20
101.038
 30
0.0
 11
226.938
 21
100.062
 31
0.0
  0
LINE
  8
0
 62
     0
 10
226.938
 20
100.062
 30
0.0
 11
226.158
 21
99.883
 31
0.0
  0
LINE
  8
0
 62
     0
 10
226.158
 20
99.883
 30
0.0
 11
226.856
 21
96.8622
 31
0.0
  0
LINE
  8
0
 62
     0
 10
226.856
 20
96.8622
 30
0.0
 11
227.636
 21
97.0428
 31
0.0
  0
LINE
  8
0
 62
     0
 10
227.636
 20
97.0428
 30
0.0
 11
228.939
 21
91.3917
 31
0.0
  0
LINE
  8
0
 62
     0
 10
228.939
 20
91.3917
 30
0.0
 11
228.16
 21
91.2125
 31
0.0
  0
LINE
  8
0
 62
     0
 10
228.16
 20
91.2125
 30
0.0
 11
228.858
 21
88.1902
 31
0.0
  0
LINE
  8
0
 62
     0
 10
228.858
 20
88.1902
 30
0.0
 11
229.638
 21
88.3708
 31
0.0
  0
LINE
  8
0
 62
     0
 10
229.638
 20
88.3708
 30
0.0
 11
229.862
 21
87.3965
 31
0.0
  0
LINE
  8
0
 62
     0
 10
229.862
 20
87.3965
 30
0.0
 11
243.503
 21
90.5454
 31
0.0
  0
LINE
  8
0
 62
     0
 10
243.503
 20
90.5454
 30
0.0
 11
243.279
 21
91.5197
 31
0.0
  0
LINE
  8
0
 62
     0
 10
243.279
 20
91.5197
 30
0.0
 11
244.057
 21
91.7003
 31
0.0
  0
LINE
  8
0
 62
     0
 10
244.057
 20
91.7003
 30
0.0
 11
243.36
 21
94.7208
 31
0.0
  0
LINE
  8
0
 62
     0
 10
243.36
 20
94.7208
 30
0.0
 11
242.582
 21
94.5402
 31
0.0
  0
LINE
  8
0
 62
     0
 10
242.582
 20
94.5402
 30
0.0
 11
241.277
 21
100.192
 31
0.0
  0
LINE
  8
0
 62
     0
 10
241.277
 20
100.192
 30
0.0
 11
242.055
 21
100.372
 31
0.0
  0
LINE
  8
0
 62
     0
 10
242.055
 20
100.372
 30
0.0
 11
241.358
 21
103.393
 31
0.0
  0
LINE
  8
0
 62
     0
 10
241.358
 20
103.393
 30
0.0
 11
240.579
 21
103.212
 31
0.0
  0
LINE
  8
0
 62
     0
 10
240.579
 20
103.212
 30
0.0
 11
240.355
 21
104.187
 31
0.0
  0
LINE
  8
0
 62
     0
 10
240.355
 20
104.187
 30
0.0
 11
226.712
 21
101.038
 31
0.0
  0
LINE
  8
0
 62
     0
 10
61.674
 20
103.398
 30
0.0
 11
60.894
 21
103.577
 31
0.0
  0
LINE
  8
0
 62
     0
 10
60.894
 20
103.577
 30
0.0
 11
60.1969
 21
100.558
 31
0.0
  0
LINE
  8
0
 62
     0
 10
60.1969
 20
100.558
 30
0.0
 11
60.9755
 21
100.378
 31
0.0
  0
LINE
  8
0
 62
     0
 10
60.9755
 20
100.378
 30
0.0
 11
59.6706
 21
94.7265
 31
0.0
  0
LINE
  8
0
 62
     0
 10
59.6706
 20
94.7265
 30
0.0
 11
58.892
 21
94.9053
 31
0.0
  0
LINE
  8
0
 62
     0
 10
58.892
 20
94.9053
 30
0.0
 11
58.1946
 21
91.8863
 31
0.0
  0
LINE
  8
0
 62
     0
 10
58.1946
 20
91.8863
 30
0.0
 11
58.9732
 21
91.7056
 31
0.0
  0
LINE
  8
0
 62
     0
 10
58.9732
 20
91.7056
 30
0.0
 11
58.7484
 21
90.7313
 31
0.0
  0
LINE
  8
0
 62
     0
 10
58.7484
 20
90.7313
 30
0.0
 11
72.3911
 21
87.5813
 31
0.0
  0
LINE
  8
0
 62
     0
 10
72.3911
 20
87.5813
 30
0.0
 11
72.6158
 21
88.5567
 31
0.0
  0
LINE
  8
0
 62
     0
 10
72.6158
 20
88.5567
 30
0.0
 11
73.3944
 21
88.3765
 31
0.0
  0
LINE
  8
0
 62
     0
 10
73.3944
 20
88.3765
 30
0.0
 11
74.0914
 21
91.397
 31
0.0
  0
LINE
  8
0
 62
     0
 10
74.0914
 20
91.397
 30
0.0
 11
73.3129
 21
91.5762
 31
0.0
  0
LINE
  8
0
 62
     0
 10
73.3129
 20
91.5762
 30
0.0
 11
74.6181
 21
97.2273
 31
0.0
  0
LINE
  8
0
 62
     0
 10
74.6181
 20
97.2273
 30
0.0
 11
75.3967
 21
97.0485
 31
0.0
  0
LINE
  8
0
 62
     0
 10
75.3967
 20
97.0485
 30
0.0
 11
76.0938
 21
100.069
 31
0.0
  0
LINE
  8
0
 62
     0
 10
76.0938
 20
100.069
 30
0.0
 11
75.3138
 21
100.248
 31
0.0
  0
LINE
  8
0
 62
     0
 10
75.3138
 20
100.248
 30
0.0
 11
75.54
 21
101.223
 31
0.0
  0
LINE
  8
0
 62
     0
 10
75.54
 20
101.223
 30
0.0
 11
61.8987
 21
104.372
 31
0.0
  0
LINE
  8
0
 62
     0
 10
61.8987
 20
104.372
 30
0.0
 11
61.674
 21
103.398
 31
0.0
  0
LINE
  8
0
 62
     0
 10
246.845
 20
102.754
 30
0.0
 11
247.07
 21
101.779
 31
0.0
  0
LINE
  8
0
 62
     0
 10
247.07
 20
101.779
 30
0.0
 11
246.291
 21
101.599
 31
0.0
  0
LINE
  8
0
 62
     0
 10
246.291
 20
101.599
 30
0.0
 11
246.989
 21
98.5781
 31
0.0
  0
LINE
  8
0
 62
     0
 10
246.989
 20
98.5781
 30
0.0
 11
247.767
 21
98.757
 31
0.0
  0
LINE
  8
0
 62
     0
 10
247.767
 20
98.757
 30
0.0
 11
249.072
 21
93.1072
 31
0.0
  0
LINE
  8
0
 62
     0
 10
249.072
 20
93.1072
 30
0.0
 11
248.293
 21
92.9266
 31
0.0
  0
LINE
  8
0
 62
     0
 10
248.293
 20
92.9266
 30
0.0
 11
248.991
 21
89.9061
 31
0.0
  0
LINE
  8
0
 62
     0
 10
248.991
 20
89.9061
 30
0.0
 11
249.769
 21
90.085
 31
0.0
  0
LINE
  8
0
 62
     0
 10
249.769
 20
90.085
 30
0.0
 11
249.994
 21
89.1124
 31
0.0
  0
LINE
  8
0
 62
     0
 10
249.994
 20
89.1124
 30
0.0
 11
263.636
 21
92.2609
 31
0.0
  0
LINE
  8
0
 62
     0
 10
263.636
 20
92.2609
 30
0.0
 11
263.412
 21
93.2353
 31
0.0
  0
LINE
  8
0
 62
     0
 10
263.412
 20
93.2353
 30
0.0
 11
264.191
 21
93.4159
 31
0.0
  0
LINE
  8
0
 62
     0
 10
264.191
 20
93.4159
 30
0.0
 11
263.493
 21
96.435
 31
0.0
  0
LINE
  8
0
 62
     0
 10
263.493
 20
96.435
 30
0.0
 11
262.713
 21
96.2561
 31
0.0
  0
LINE
  8
0
 62
     0
 10
262.713
 20
96.2561
 30
0.0
 11
261.41
 21
101.907
 31
0.0
  0
LINE
  8
0
 62
     0
 10
261.41
 20
101.907
 30
0.0
 11
262.188
 21
102.086
 31
0.0
  0
LINE
  8
0
 62
     0
 10
262.188
 20
102.086
 30
0.0
 11
261.491
 21
105.107
 31
0.0
  0
LINE
  8
0
 62
     0
 10
261.491
 20
105.107
 30
0.0
 11
260.711
 21
104.928
 31
0.0
  0
LINE
  8
0
 62
     0
 10
260.711
 20
104.928
 30
0.0
 11
260.487
 21
105.902
 31
0.0
  0
LINE
  8
0
 62
     0
 10
260.487
 20
105.902
 30
0.0
 11
246.845
 21
102.754
 31
0.0
  0
LINE
  8
0
 62
     0
 10
41.541
 20
105.114
 30
0.0
 11
40.761
 21
105.293
 31
0.0
  0
LINE
  8
0
 62
     0
 10
40.761
 20
105.293
 30
0.0
 11
40.0636
 21
102.272
 31
0.0
  0
LINE
  8
0
 62
     0
 10
40.0636
 20
102.272
 30
0.0
 11
40.8436
 21
102.093
 31
0.0
  0
LINE
  8
0
 62
     0
 10
40.8436
 20
102.093
 30
0.0
 11
39.5386
 21
96.442
 31
0.0
  0
LINE
  8
0
 62
     0
 10
39.5386
 20
96.442
 30
0.0
 11
38.76
 21
96.6212
 31
0.0
  0
LINE
  8
0
 62
     0
 10
38.76
 20
96.6212
 30
0.0
 11
38.0615
 21
93.6004
 31
0.0
  0
LINE
  8
0
 62
     0
 10
38.0615
 20
93.6004
 30
0.0
 11
38.8415
 21
93.4212
 31
0.0
  0
LINE
  8
0
 62
     0
 10
38.8415
 20
93.4212
 30
0.0
 11
38.6168
 21
92.4472
 31
0.0
  0
LINE
  8
0
 62
     0
 10
38.6168
 20
92.4472
 30
0.0
 11
52.258
 21
89.2983
 31
0.0
  0
LINE
  8
0
 62
     0
 10
52.258
 20
89.2983
 30
0.0
 11
52.4828
 21
90.2712
 31
0.0
  0
LINE
  8
0
 62
     0
 10
52.4828
 20
90.2712
 30
0.0
 11
53.2613
 21
90.092
 31
0.0
  0
LINE
  8
0
 62
     0
 10
53.2613
 20
90.092
 30
0.0
 11
53.9598
 21
93.1125
 31
0.0
  0
LINE
  8
0
 62
     0
 10
53.9598
 20
93.1125
 30
0.0
 11
53.1798
 21
93.2917
 31
0.0
  0
LINE
  8
0
 62
     0
 10
53.1798
 20
93.2917
 30
0.0
 11
54.4848
 21
98.9432
 31
0.0
  0
LINE
  8
0
 62
     0
 10
54.4848
 20
98.9432
 30
0.0
 11
55.2633
 21
98.764
 31
0.0
  0
LINE
  8
0
 62
     0
 10
55.2633
 20
98.764
 30
0.0
 11
55.9622
 21
101.783
 31
0.0
  0
LINE
  8
0
 62
     0
 10
55.9622
 20
101.783
 30
0.0
 11
55.1822
 21
101.964
 31
0.0
  0
LINE
  8
0
 62
     0
 10
55.1822
 20
101.964
 30
0.0
 11
55.4069
 21
102.938
 31
0.0
  0
LINE
  8
0
 62
     0
 10
55.4069
 20
102.938
 30
0.0
 11
41.7657
 21
106.088
 31
0.0
  0
LINE
  8
0
 62
     0
 10
41.7657
 20
106.088
 30
0.0
 11
41.541
 21
105.114
 31
0.0
  0
LINE
  8
0
 62
     0
 10
270.159
 20
105.354
 30
0.0
 11
270.272
 21
104.36
 31
0.0
  0
LINE
  8
0
 62
     0
 10
270.272
 20
104.36
 30
0.0
 11
269.477
 21
104.269
 31
0.0
  0
LINE
  8
0
 62
     0
 10
269.477
 20
104.269
 30
0.0
 11
269.828
 21
101.189
 31
0.0
  0
LINE
  8
0
 62
     0
 10
269.828
 20
101.189
 30
0.0
 11
270.622
 21
101.28
 31
0.0
  0
LINE
  8
0
 62
     0
 10
270.622
 20
101.28
 30
0.0
 11
271.278
 21
95.5174
 31
0.0
  0
LINE
  8
0
 62
     0
 10
271.278
 20
95.5174
 30
0.0
 11
270.484
 21
95.4264
 31
0.0
  0
LINE
  8
0
 62
     0
 10
270.484
 20
95.4264
 30
0.0
 11
270.834
 21
92.3466
 31
0.0
  0
LINE
  8
0
 62
     0
 10
270.834
 20
92.3466
 30
0.0
 11
271.629
 21
92.4373
 31
0.0
  0
LINE
  8
0
 62
     0
 10
271.629
 20
92.4373
 30
0.0
 11
271.742
 21
91.4439
 31
0.0
  0
LINE
  8
0
 62
     0
 10
271.742
 20
91.4439
 30
0.0
 11
285.652
 21
93.0286
 31
0.0
  0
LINE
  8
0
 62
     0
 10
285.652
 20
93.0286
 30
0.0
 11
285.539
 21
94.0223
 31
0.0
  0
LINE
  8
0
 62
     0
 10
285.539
 20
94.0223
 30
0.0
 11
286.334
 21
94.113
 31
0.0
  0
LINE
  8
0
 62
     0
 10
286.334
 20
94.113
 30
0.0
 11
285.983
 21
97.1931
 31
0.0
  0
LINE
  8
0
 62
     0
 10
285.983
 20
97.1931
 30
0.0
 11
285.189
 21
97.1021
 31
0.0
  0
LINE
  8
0
 62
     0
 10
285.189
 20
97.1021
 30
0.0
 11
284.532
 21
102.865
 31
0.0
  0
LINE
  8
0
 62
     0
 10
284.532
 20
102.865
 30
0.0
 11
285.327
 21
102.956
 31
0.0
  0
LINE
  8
0
 62
     0
 10
285.327
 20
102.956
 30
0.0
 11
284.977
 21
106.036
 31
0.0
  0
LINE
  8
0
 62
     0
 10
284.977
 20
106.036
 30
0.0
 11
284.182
 21
105.945
 31
0.0
  0
LINE
  8
0
 62
     0
 10
284.182
 20
105.945
 30
0.0
 11
284.069
 21
106.939
 31
0.0
  0
LINE
  8
0
 62
     0
 10
284.069
 20
106.939
 30
0.0
 11
270.159
 21
105.354
 31
0.0
  0
LINE
  8
0
 62
     0
 10
17.7671
 20
106.423
 30
0.0
 11
16.9719
 21
106.514
 31
0.0
  0
LINE
  8
0
 62
     0
 10
16.9719
 20
106.514
 30
0.0
 11
16.6219
 21
103.434
 31
0.0
  0
LINE
  8
0
 62
     0
 10
16.6219
 20
103.434
 30
0.0
 11
17.417
 21
103.343
 31
0.0
  0
LINE
  8
0
 62
     0
 10
17.417
 20
103.343
 30
0.0
 11
16.7597
 21
97.5801
 31
0.0
  0
LINE
  8
0
 62
     0
 10
16.7597
 20
97.5801
 30
0.0
 11
15.9659
 21
97.6711
 31
0.0
  0
LINE
  8
0
 62
     0
 10
15.9659
 20
97.6711
 30
0.0
 11
15.6145
 21
94.5914
 31
0.0
  0
LINE
  8
0
 62
     0
 10
15.6145
 20
94.5914
 30
0.0
 11
16.4083
 21
94.5003
 31
0.0
  0
LINE
  8
0
 62
     0
 10
16.4083
 20
94.5003
 30
0.0
 11
16.2953
 21
93.5069
 31
0.0
  0
LINE
  8
0
 62
     0
 10
16.2953
 20
93.5069
 30
0.0
 11
30.2052
 21
91.9219
 31
0.0
  0
LINE
  8
0
 62
     0
 10
30.2052
 20
91.9219
 30
0.0
 11
30.3182
 21
92.9157
 31
0.0
  0
LINE
  8
0
 62
     0
 10
30.3182
 20
92.9157
 30
0.0
 11
31.1133
 21
92.8247
 31
0.0
  0
LINE
  8
0
 62
     0
 10
31.1133
 20
92.8247
 30
0.0
 11
31.4647
 21
95.9044
 31
0.0
  0
LINE
  8
0
 62
     0
 10
31.4647
 20
95.9044
 30
0.0
 11
30.6696
 21
95.9954
 31
0.0
  0
LINE
  8
0
 62
     0
 10
30.6696
 20
95.9954
 30
0.0
 11
31.3269
 21
101.758
 31
0.0
  0
LINE
  8
0
 62
     0
 10
31.3269
 20
101.758
 30
0.0
 11
32.1221
 21
101.667
 31
0.0
  0
LINE
  8
0
 62
     0
 10
32.1221
 20
101.667
 30
0.0
 11
32.4721
 21
104.747
 31
0.0
  0
LINE
  8
0
 62
     0
 10
32.4721
 20
104.747
 30
0.0
 11
31.677
 21
104.838
 31
0.0
  0
LINE
  8
0
 62
     0
 10
31.677
 20
104.838
 30
0.0
 11
31.79
 21
105.832
 31
0.0
  0
LINE
  8
0
 62
     0
 10
31.79
 20
105.832
 30
0.0
 11
17.88
 21
107.417
 31
0.0
  0
LINE
  8
0
 62
     0
 10
17.88
 20
107.417
 30
0.0
 11
17.7671
 21
106.423
 31
0.0
  0
ENDSEC
  0
EOF
