  0
SECTION
  2
HEADER
  9
$ACADVER
  1
AC1009
  9
$EXTMIN
 10
0.0
 20
0.0
 30
0.0
  9
$EXTMAX
 10
1000.0
 20
1000.0
 30
0.0
  9
$FILLMODE
 70
 0
  9
$SPLFRAME
 70
 1
  0
ENDSEC
  0
SECTION
  2
TABLES
  0
TABLE
  2
LAYER
 70
1
  0
LAYER
  2
0
 70
     0
 62
     7
  6
CONTINUOUS
  0
ENDTAB
  0
ENDSEC
  0
SECTION
  2
ENTITIES
  0
LINE
  8
0
 62
     0
 10
299.526
 20
109.971
 30
0.0
 11
299.84
 21
109.959
 31
0.0
  0
LINE
  8
0
 62
     0
 10
299.84
 20
109.959
 30
0.0
 11
300.152
 21
109.922
 31
0.0
  0
LINE
  8
0
 62
     0
 10
300.152
 20
109.922
 30
0.0
 11
300.46
 21
109.861
 31
0.0
  0
LINE
  8
0
 62
     0
 10
300.46
 20
109.861
 30
0.0
 11
300.762
 21
109.776
 31
0.0
  0
LINE
  8
0
 62
     0
 10
300.762
 20
109.776
 30
0.0
 11
301.057
 21
109.667
 31
0.0
  0
LINE
  8
0
 62
     0
 10
301.057
 20
109.667
 30
0.0
 11
301.342
 21
109.536
 31
0.0
  0
LINE
  8
0
 62
     0
 10
301.342
 20
109.536
 30
0.0
 11
301.617
 21
109.382
 31
0.0
  0
LINE
  8
0
 62
     0
 10
301.617
 20
109.382
 30
0.0
 11
301.877
 21
109.208
 31
0.0
  0
LINE
  8
0
 62
     0
 10
301.877
 20
109.208
 30
0.0
 11
302.124
 21
109.014
 31
0.0
  0
LINE
  8
0
 62
     0
 10
302.124
 20
109.014
 30
0.0
 11
302.355
 21
108.8
 31
0.0
  0
LINE
  8
0
 62
     0
 10
302.355
 20
108.8
 30
0.0
 11
302.569
 21
108.569
 31
0.0
  0
LINE
  8
0
 62
     0
 10
302.569
 20
108.569
 30
0.0
 11
302.762
 21
108.324
 31
0.0
  0
LINE
  8
0
 62
     0
 10
302.762
 20
108.324
 30
0.0
 11
302.937
 21
108.061
 31
0.0
  0
LINE
  8
0
 62
     0
 10
302.937
 20
108.061
 30
0.0
 11
303.09
 21
107.787
 31
0.0
  0
LINE
  8
0
 62
     0
 10
303.09
 20
107.787
 30
0.0
 11
303.222
 21
107.502
 31
0.0
  0
LINE
  8
0
 62
     0
 10
303.222
 20
107.502
 30
0.0
 11
303.331
 21
107.208
 31
0.0
  0
LINE
  8
0
 62
     0
 10
303.331
 20
107.208
 30
0.0
 11
303.416
 21
106.905
 31
0.0
  0
LINE
  8
0
 62
     0
 10
303.416
 20
106.905
 30
0.0
 11
303.477
 21
106.597
 31
0.0
  0
LINE
  8
0
 62
     0
 10
303.477
 20
106.597
 30
0.0
 11
303.514
 21
106.285
 31
0.0
  0
LINE
  8
0
 62
     0
 10
303.514
 20
106.285
 30
0.0
 11
303.527
 21
105.971
 31
0.0
  0
LINE
  8
0
 62
     0
 10
303.527
 20
105.971
 30
0.0
 11
303.527
 21
4.09967
 31
0.0
  0
LINE
  8
0
 62
     0
 10
303.527
 20
4.09967
 30
0.0
 11
303.514
 21
3.78548
 31
0.0
  0
LINE
  8
0
 62
     0
 10
303.514
 20
3.78548
 30
0.0
 11
303.477
 21
3.47266
 31
0.0
  0
LINE
  8
0
 62
     0
 10
303.477
 20
3.47266
 30
0.0
 11
303.416
 21
3.16536
 31
0.0
  0
LINE
  8
0
 62
     0
 10
303.416
 20
3.16536
 30
0.0
 11
303.331
 21
2.86356
 31
0.0
  0
LINE
  8
0
 62
     0
 10
303.331
 20
2.86356
 30
0.0
 11
303.222
 21
2.56866
 31
0.0
  0
LINE
  8
0
 62
     0
 10
303.222
 20
2.56866
 30
0.0
 11
303.09
 21
2.28341
 31
0.0
  0
LINE
  8
0
 62
     0
 10
303.09
 20
2.28341
 30
0.0
 11
302.937
 21
2.00918
 31
0.0
  0
LINE
  8
0
 62
     0
 10
302.937
 20
2.00918
 30
0.0
 11
302.762
 21
1.74873
 31
0.0
  0
LINE
  8
0
 62
     0
 10
302.762
 20
1.74873
 30
0.0
 11
302.569
 21
1.50068
 31
0.0
  0
LINE
  8
0
 62
     0
 10
302.569
 20
1.50068
 30
0.0
 11
302.355
 21
1.27055
 31
0.0
  0
LINE
  8
0
 62
     0
 10
302.355
 20
1.27055
 30
0.0
 11
302.124
 21
1.05695
 31
0.0
  0
LINE
  8
0
 62
     0
 10
302.124
 20
1.05695
 30
0.0
 11
301.877
 21
0.862651
 31
0.0
  0
LINE
  8
0
 62
     0
 10
301.877
 20
0.862651
 30
0.0
 11
301.617
 21
0.687641
 31
0.0
  0
LINE
  8
0
 62
     0
 10
301.617
 20
0.687641
 30
0.0
 11
301.342
 21
0.534681
 31
0.0
  0
LINE
  8
0
 62
     0
 10
301.342
 20
0.534681
 30
0.0
 11
301.057
 21
0.403765
 31
0.0
  0
LINE
  8
0
 62
     0
 10
301.057
 20
0.403765
 30
0.0
 11
300.762
 21
0.2949
 31
0.0
  0
LINE
  8
0
 62
     0
 10
300.762
 20
0.2949
 30
0.0
 11
300.46
 21
0.21084
 31
0.0
  0
LINE
  8
0
 62
     0
 10
300.46
 20
0.21084
 30
0.0
 11
300.152
 21
0.148828
 31
0.0
  0
LINE
  8
0
 62
     0
 10
300.152
 20
0.148828
 30
0.0
 11
299.84
 21
0.111621
 31
0.0
  0
LINE
  8
0
 62
     0
 10
299.84
 20
0.111621
 30
0.0
 11
299.526
 21
0.0992188
 31
0.0
  0
LINE
  8
0
 62
     0
 10
299.526
 20
0.0992188
 30
0.0
 11
4.09554
 21
0.0992188
 31
0.0
  0
LINE
  8
0
 62
     0
 10
4.09554
 20
0.0992188
 30
0.0
 11
3.78135
 21
0.111621
 31
0.0
  0
LINE
  8
0
 62
     0
 10
3.78135
 20
0.111621
 30
0.0
 11
3.4699
 21
0.148828
 31
0.0
  0
LINE
  8
0
 62
     0
 10
3.4699
 20
0.148828
 30
0.0
 11
3.16122
 21
0.21084
 31
0.0
  0
LINE
  8
0
 62
     0
 10
3.16122
 20
0.21084
 30
0.0
 11
2.85805
 21
0.2949
 31
0.0
  0
LINE
  8
0
 62
     0
 10
2.85805
 20
0.2949
 30
0.0
 11
2.56453
 21
0.403765
 31
0.0
  0
LINE
  8
0
 62
     0
 10
2.56453
 20
0.403765
 30
0.0
 11
2.27928
 21
0.534681
 31
0.0
  0
LINE
  8
0
 62
     0
 10
2.27928
 20
0.534681
 30
0.0
 11
2.00504
 21
0.687641
 31
0.0
  0
LINE
  8
0
 62
     0
 10
2.00504
 20
0.687641
 30
0.0
 11
1.74322
 21
0.862651
 31
0.0
  0
LINE
  8
0
 62
     0
 10
1.74322
 20
0.862651
 30
0.0
 11
1.49793
 21
1.05695
 31
0.0
  0
LINE
  8
0
 62
     0
 10
1.49793
 20
1.05695
 30
0.0
 11
1.26642
 21
1.27055
 31
0.0
  0
LINE
  8
0
 62
     0
 10
1.26642
 20
1.27055
 30
0.0
 11
1.05282
 21
1.50068
 31
0.0
  0
LINE
  8
0
 62
     0
 10
1.05282
 20
1.50068
 30
0.0
 11
0.858516
 21
1.74873
 31
0.0
  0
LINE
  8
0
 62
     0
 10
0.858516
 20
1.74873
 30
0.0
 11
0.684886
 21
2.00918
 31
0.0
  0
LINE
  8
0
 62
     0
 10
0.684886
 20
2.00918
 30
0.0
 11
0.530546
 21
2.28341
 31
0.0
  0
LINE
  8
0
 62
     0
 10
0.530546
 20
2.28341
 30
0.0
 11
0.39963
 21
2.56866
 31
0.0
  0
LINE
  8
0
 62
     0
 10
0.39963
 20
2.56866
 30
0.0
 11
0.290766
 21
2.86356
 31
0.0
  0
LINE
  8
0
 62
     0
 10
0.290766
 20
2.86356
 30
0.0
 11
0.205328
 21
3.16536
 31
0.0
  0
LINE
  8
0
 62
     0
 10
0.205328
 20
3.16536
 30
0.0
 11
0.144694
 21
3.47266
 31
0.0
  0
LINE
  8
0
 62
     0
 10
0.144694
 20
3.47266
 30
0.0
 11
0.107487
 21
3.78548
 31
0.0
  0
LINE
  8
0
 62
     0
 10
0.107487
 20
3.78548
 30
0.0
 11
0.0950846
 21
4.09967
 31
0.0
  0
LINE
  8
0
 62
     0
 10
0.0950846
 20
4.09967
 30
0.0
 11
0.0950846
 21
105.971
 31
0.0
  0
LINE
  8
0
 62
     0
 10
0.0950846
 20
105.971
 30
0.0
 11
0.107487
 21
106.285
 31
0.0
  0
LINE
  8
0
 62
     0
 10
0.107487
 20
106.285
 30
0.0
 11
0.144694
 21
106.597
 31
0.0
  0
LINE
  8
0
 62
     0
 10
0.144694
 20
106.597
 30
0.0
 11
0.205328
 21
106.905
 31
0.0
  0
LINE
  8
0
 62
     0
 10
0.205328
 20
106.905
 30
0.0
 11
0.290766
 21
107.208
 31
0.0
  0
LINE
  8
0
 62
     0
 10
0.290766
 20
107.208
 30
0.0
 11
0.39963
 21
107.502
 31
0.0
  0
LINE
  8
0
 62
     0
 10
0.39963
 20
107.502
 30
0.0
 11
0.530546
 21
107.787
 31
0.0
  0
LINE
  8
0
 62
     0
 10
0.530546
 20
107.787
 30
0.0
 11
0.684886
 21
108.061
 31
0.0
  0
LINE
  8
0
 62
     0
 10
0.684886
 20
108.061
 30
0.0
 11
0.858516
 21
108.324
 31
0.0
  0
LINE
  8
0
 62
     0
 10
0.858516
 20
108.324
 30
0.0
 11
1.05282
 21
108.569
 31
0.0
  0
LINE
  8
0
 62
     0
 10
1.05282
 20
108.569
 30
0.0
 11
1.26642
 21
108.8
 31
0.0
  0
LINE
  8
0
 62
     0
 10
1.26642
 20
108.8
 30
0.0
 11
1.49793
 21
109.014
 31
0.0
  0
LINE
  8
0
 62
     0
 10
1.49793
 20
109.014
 30
0.0
 11
1.74322
 21
109.208
 31
0.0
  0
LINE
  8
0
 62
     0
 10
1.74322
 20
109.208
 30
0.0
 11
2.00504
 21
109.382
 31
0.0
  0
LINE
  8
0
 62
     0
 10
2.00504
 20
109.382
 30
0.0
 11
2.27928
 21
109.536
 31
0.0
  0
LINE
  8
0
 62
     0
 10
2.27928
 20
109.536
 30
0.0
 11
2.56453
 21
109.667
 31
0.0
  0
LINE
  8
0
 62
     0
 10
2.56453
 20
109.667
 30
0.0
 11
2.85805
 21
109.776
 31
0.0
  0
LINE
  8
0
 62
     0
 10
2.85805
 20
109.776
 30
0.0
 11
3.16122
 21
109.861
 31
0.0
  0
LINE
  8
0
 62
     0
 10
3.16122
 20
109.861
 30
0.0
 11
3.4699
 21
109.922
 31
0.0
  0
LINE
  8
0
 62
     0
 10
3.4699
 20
109.922
 30
0.0
 11
3.78135
 21
109.959
 31
0.0
  0
LINE
  8
0
 62
     0
 10
3.78135
 20
109.959
 30
0.0
 11
4.09554
 21
109.971
 31
0.0
  0
LINE
  8
0
 62
     0
 10
4.09554
 20
109.971
 30
0.0
 11
299.526
 21
109.971
 31
0.0
  0
LINE
  8
0
 62
     0
 10
144.734
 20
21.6256
 30
0.0
 11
144.734
 21
20.6251
 31
0.0
  0
LINE
  8
0
 62
     0
 10
144.734
 20
20.6251
 30
0.0
 11
143.933
 21
20.6251
 31
0.0
  0
LINE
  8
0
 62
     0
 10
143.933
 20
20.6251
 30
0.0
 11
143.933
 21
17.5245
 31
0.0
  0
LINE
  8
0
 62
     0
 10
143.933
 20
17.5245
 30
0.0
 11
144.734
 21
17.5245
 31
0.0
  0
LINE
  8
0
 62
     0
 10
144.734
 20
17.5245
 30
0.0
 11
144.734
 21
11.7257
 31
0.0
  0
LINE
  8
0
 62
     0
 10
144.734
 20
11.7257
 30
0.0
 11
143.933
 21
11.7257
 31
0.0
  0
LINE
  8
0
 62
     0
 10
143.933
 20
11.7257
 30
0.0
 11
143.933
 21
8.62513
 31
0.0
  0
LINE
  8
0
 62
     0
 10
143.933
 20
8.62513
 30
0.0
 11
144.734
 21
8.62513
 31
0.0
  0
LINE
  8
0
 62
     0
 10
144.734
 20
8.62513
 30
0.0
 11
144.734
 21
7.62469
 31
0.0
  0
LINE
  8
0
 62
     0
 10
144.734
 20
7.62469
 30
0.0
 11
158.733
 21
7.62469
 31
0.0
  0
LINE
  8
0
 62
     0
 10
158.733
 20
7.62469
 30
0.0
 11
158.733
 21
8.62513
 31
0.0
  0
LINE
  8
0
 62
     0
 10
158.733
 20
8.62513
 30
0.0
 11
159.534
 21
8.62513
 31
0.0
  0
LINE
  8
0
 62
     0
 10
159.534
 20
8.62513
 30
0.0
 11
159.534
 21
11.7257
 31
0.0
  0
LINE
  8
0
 62
     0
 10
159.534
 20
11.7257
 30
0.0
 11
158.733
 21
11.7257
 31
0.0
  0
LINE
  8
0
 62
     0
 10
158.733
 20
11.7257
 30
0.0
 11
158.733
 21
17.5245
 31
0.0
  0
LINE
  8
0
 62
     0
 10
158.733
 20
17.5245
 30
0.0
 11
159.534
 21
17.5245
 31
0.0
  0
LINE
  8
0
 62
     0
 10
159.534
 20
17.5245
 30
0.0
 11
159.534
 21
20.6251
 31
0.0
  0
LINE
  8
0
 62
     0
 10
159.534
 20
20.6251
 30
0.0
 11
158.733
 21
20.6251
 31
0.0
  0
LINE
  8
0
 62
     0
 10
158.733
 20
20.6251
 30
0.0
 11
158.733
 21
21.6256
 31
0.0
  0
LINE
  8
0
 62
     0
 10
158.733
 20
21.6256
 30
0.0
 11
144.734
 21
21.6256
 31
0.0
  0
LINE
  8
0
 62
     0
 10
199.868
 20
27.2838
 30
0.0
 11
200.042
 21
26.2999
 31
0.0
  0
LINE
  8
0
 62
     0
 10
200.042
 20
26.2999
 30
0.0
 11
199.253
 21
26.1607
 31
0.0
  0
LINE
  8
0
 62
     0
 10
199.253
 20
26.1607
 30
0.0
 11
199.792
 21
23.1083
 31
0.0
  0
LINE
  8
0
 62
     0
 10
199.792
 20
23.1083
 30
0.0
 11
200.579
 21
23.2475
 31
0.0
  0
LINE
  8
0
 62
     0
 10
200.579
 20
23.2475
 30
0.0
 11
200.684
 21
22.6563
 31
0.0
  0
LINE
  8
0
 62
     0
 10
200.684
 20
22.6563
 30
0.0
 11
199.182
 21
22.3918
 31
0.0
  0
LINE
  8
0
 62
     0
 10
199.182
 20
22.3918
 30
0.0
 11
198.621
 21
25.5723
 31
0.0
  0
LINE
  8
0
 62
     0
 10
198.621
 20
25.5723
 30
0.0
 11
191.973
 21
24.3996
 31
0.0
  0
LINE
  8
0
 62
     0
 10
191.973
 20
24.3996
 30
0.0
 11
192.534
 21
21.219
 31
0.0
  0
LINE
  8
0
 62
     0
 10
192.534
 20
21.219
 30
0.0
 11
191.721
 21
21.0757
 31
0.0
  0
LINE
  8
0
 62
     0
 10
191.721
 20
21.0757
 30
0.0
 11
192.209
 21
18.3183
 31
0.0
  0
LINE
  8
0
 62
     0
 10
192.209
 20
18.3183
 30
0.0
 11
193.021
 21
18.4616
 31
0.0
  0
LINE
  8
0
 62
     0
 10
193.021
 20
18.4616
 30
0.0
 11
194.109
 21
12.2866
 31
0.0
  0
LINE
  8
0
 62
     0
 10
194.109
 20
12.2866
 30
0.0
 11
195.808
 21
12.5856
 31
0.0
  0
LINE
  8
0
 62
     0
 10
195.808
 20
12.5856
 30
0.0
 11
196.016
 21
11.4046
 31
0.0
  0
LINE
  8
0
 62
     0
 10
196.016
 20
11.4046
 30
0.0
 11
199.267
 21
11.9779
 31
0.0
  0
LINE
  8
0
 62
     0
 10
199.267
 20
11.9779
 30
0.0
 11
199.058
 21
13.1589
 31
0.0
  0
LINE
  8
0
 62
     0
 10
199.058
 20
13.1589
 30
0.0
 11
200.757
 21
13.4593
 31
0.0
  0
LINE
  8
0
 62
     0
 10
200.757
 20
13.4593
 30
0.0
 11
199.981
 21
17.8608
 31
0.0
  0
LINE
  8
0
 62
     0
 10
199.981
 20
17.8608
 30
0.0
 11
201.483
 21
18.1267
 31
0.0
  0
LINE
  8
0
 62
     0
 10
201.483
 20
18.1267
 30
0.0
 11
201.586
 21
17.5355
 31
0.0
  0
LINE
  8
0
 62
     0
 10
201.586
 20
17.5355
 30
0.0
 11
200.798
 21
17.3964
 31
0.0
  0
LINE
  8
0
 62
     0
 10
200.798
 20
17.3964
 30
0.0
 11
201.337
 21
14.3426
 31
0.0
  0
LINE
  8
0
 62
     0
 10
201.337
 20
14.3426
 30
0.0
 11
202.125
 21
14.4818
 31
0.0
  0
LINE
  8
0
 62
     0
 10
202.125
 20
14.4818
 30
0.0
 11
202.299
 21
13.4965
 31
0.0
  0
LINE
  8
0
 62
     0
 10
202.299
 20
13.4965
 30
0.0
 11
216.086
 21
15.9287
 31
0.0
  0
LINE
  8
0
 62
     0
 10
216.086
 20
15.9287
 30
0.0
 11
215.912
 21
16.9127
 31
0.0
  0
LINE
  8
0
 62
     0
 10
215.912
 20
16.9127
 30
0.0
 11
216.701
 21
17.0518
 31
0.0
  0
LINE
  8
0
 62
     0
 10
216.701
 20
17.0518
 30
0.0
 11
216.162
 21
20.1056
 31
0.0
  0
LINE
  8
0
 62
     0
 10
216.162
 20
20.1056
 30
0.0
 11
215.374
 21
19.9664
 31
0.0
  0
LINE
  8
0
 62
     0
 10
215.374
 20
19.9664
 30
0.0
 11
215.269
 21
20.5576
 31
0.0
  0
LINE
  8
0
 62
     0
 10
215.269
 20
20.5576
 30
0.0
 11
216.771
 21
20.8221
 31
0.0
  0
LINE
  8
0
 62
     0
 10
216.771
 20
20.8221
 30
0.0
 11
217.548
 21
16.4207
 31
0.0
  0
LINE
  8
0
 62
     0
 10
217.548
 20
16.4207
 30
0.0
 11
219.246
 21
16.7197
 31
0.0
  0
LINE
  8
0
 62
     0
 10
219.246
 20
16.7197
 30
0.0
 11
219.454
 21
15.5374
 31
0.0
  0
LINE
  8
0
 62
     0
 10
219.454
 20
15.5374
 30
0.0
 11
222.705
 21
16.1107
 31
0.0
  0
LINE
  8
0
 62
     0
 10
222.705
 20
16.1107
 30
0.0
 11
222.497
 21
17.2916
 31
0.0
  0
LINE
  8
0
 62
     0
 10
222.497
 20
17.2916
 30
0.0
 11
224.196
 21
17.592
 31
0.0
  0
LINE
  8
0
 62
     0
 10
224.196
 20
17.592
 30
0.0
 11
223.107
 21
23.7657
 31
0.0
  0
LINE
  8
0
 62
     0
 10
223.107
 20
23.7657
 30
0.0
 11
223.919
 21
23.9103
 31
0.0
  0
LINE
  8
0
 62
     0
 10
223.919
 20
23.9103
 30
0.0
 11
223.433
 21
26.6678
 31
0.0
  0
LINE
  8
0
 62
     0
 10
223.433
 20
26.6678
 30
0.0
 11
222.621
 21
26.5245
 31
0.0
  0
LINE
  8
0
 62
     0
 10
222.621
 20
26.5245
 30
0.0
 11
222.06
 21
29.705
 31
0.0
  0
LINE
  8
0
 62
     0
 10
222.06
 20
29.705
 30
0.0
 11
215.412
 21
28.5337
 31
0.0
  0
LINE
  8
0
 62
     0
 10
215.412
 20
28.5337
 30
0.0
 11
215.973
 21
25.3518
 31
0.0
  0
LINE
  8
0
 62
     0
 10
215.973
 20
25.3518
 30
0.0
 11
214.471
 21
25.0872
 31
0.0
  0
LINE
  8
0
 62
     0
 10
214.471
 20
25.0872
 30
0.0
 11
214.366
 21
25.6784
 31
0.0
  0
LINE
  8
0
 62
     0
 10
214.366
 20
25.6784
 30
0.0
 11
215.155
 21
25.8175
 31
0.0
  0
LINE
  8
0
 62
     0
 10
215.155
 20
25.8175
 30
0.0
 11
214.617
 21
28.8699
 31
0.0
  0
LINE
  8
0
 62
     0
 10
214.617
 20
28.8699
 30
0.0
 11
213.829
 21
28.7307
 31
0.0
  0
LINE
  8
0
 62
     0
 10
213.829
 20
28.7307
 30
0.0
 11
213.655
 21
29.716
 31
0.0
  0
LINE
  8
0
 62
     0
 10
213.655
 20
29.716
 30
0.0
 11
199.868
 21
27.2838
 31
0.0
  0
LINE
  8
0
 62
     0
 10
83.7819
 20
30.8446
 30
0.0
 11
82.0829
 21
31.1451
 31
0.0
  0
LINE
  8
0
 62
     0
 10
82.0829
 20
31.1451
 30
0.0
 11
80.9942
 21
24.9701
 31
0.0
  0
LINE
  8
0
 62
     0
 10
80.9942
 20
24.9701
 30
0.0
 11
80.1825
 21
25.1134
 31
0.0
  0
LINE
  8
0
 62
     0
 10
80.1825
 20
25.1134
 30
0.0
 11
79.696
 21
22.3559
 31
0.0
  0
LINE
  8
0
 62
     0
 10
79.696
 20
22.3559
 30
0.0
 11
80.5092
 21
22.2126
 31
0.0
  0
LINE
  8
0
 62
     0
 10
80.5092
 20
22.2126
 30
0.0
 11
79.9469
 21
19.0321
 31
0.0
  0
LINE
  8
0
 62
     0
 10
79.9469
 20
19.0321
 30
0.0
 11
86.596
 21
17.8608
 31
0.0
  0
LINE
  8
0
 62
     0
 10
86.596
 20
17.8608
 30
0.0
 11
87.1555
 21
21.0413
 31
0.0
  0
LINE
  8
0
 62
     0
 10
87.1555
 20
21.0413
 30
0.0
 11
88.6576
 21
20.7767
 31
0.0
  0
LINE
  8
0
 62
     0
 10
88.6576
 20
20.7767
 30
0.0
 11
88.5543
 21
20.1855
 31
0.0
  0
LINE
  8
0
 62
     0
 10
88.5543
 20
20.1855
 30
0.0
 11
87.7658
 21
20.3247
 31
0.0
  0
LINE
  8
0
 62
     0
 10
87.7658
 20
20.3247
 30
0.0
 11
87.2271
 21
17.2709
 31
0.0
  0
LINE
  8
0
 62
     0
 10
87.2271
 20
17.2709
 30
0.0
 11
88.0152
 21
17.1318
 31
0.0
  0
LINE
  8
0
 62
     0
 10
88.0152
 20
17.1318
 30
0.0
 11
87.8417
 21
16.1478
 31
0.0
  0
LINE
  8
0
 62
     0
 10
87.8417
 20
16.1478
 30
0.0
 11
101.629
 21
13.7156
 31
0.0
  0
LINE
  8
0
 62
     0
 10
101.629
 20
13.7156
 30
0.0
 11
101.802
 21
14.7009
 31
0.0
  0
LINE
  8
0
 62
     0
 10
101.802
 20
14.7009
 30
0.0
 11
102.591
 21
14.5617
 31
0.0
  0
LINE
  8
0
 62
     0
 10
102.591
 20
14.5617
 30
0.0
 11
103.128
 21
17.6155
 31
0.0
  0
LINE
  8
0
 62
     0
 10
103.128
 20
17.6155
 30
0.0
 11
102.34
 21
17.7546
 31
0.0
  0
LINE
  8
0
 62
     0
 10
102.34
 20
17.7546
 30
0.0
 11
102.445
 21
18.3458
 31
0.0
  0
LINE
  8
0
 62
     0
 10
102.445
 20
18.3458
 30
0.0
 11
103.947
 21
18.0799
 31
0.0
  0
LINE
  8
0
 62
     0
 10
103.947
 20
18.0799
 30
0.0
 11
103.386
 21
14.8994
 31
0.0
  0
LINE
  8
0
 62
     0
 10
103.386
 20
14.8994
 30
0.0
 11
110.034
 21
13.7267
 31
0.0
  0
LINE
  8
0
 62
     0
 10
110.034
 20
13.7267
 30
0.0
 11
110.594
 21
16.9085
 31
0.0
  0
LINE
  8
0
 62
     0
 10
110.594
 20
16.9085
 30
0.0
 11
111.406
 21
16.7638
 31
0.0
  0
LINE
  8
0
 62
     0
 10
111.406
 20
16.7638
 30
0.0
 11
111.894
 21
19.5227
 31
0.0
  0
LINE
  8
0
 62
     0
 10
111.894
 20
19.5227
 30
0.0
 11
111.081
 21
19.6646
 31
0.0
  0
LINE
  8
0
 62
     0
 10
111.081
 20
19.6646
 30
0.0
 11
112.17
 21
25.8396
 31
0.0
  0
LINE
  8
0
 62
     0
 10
112.17
 20
25.8396
 30
0.0
 11
110.471
 21
26.1386
 31
0.0
  0
LINE
  8
0
 62
     0
 10
110.471
 20
26.1386
 30
0.0
 11
110.678
 21
27.321
 31
0.0
  0
LINE
  8
0
 62
     0
 10
110.678
 20
27.321
 30
0.0
 11
107.429
 21
27.8942
 31
0.0
  0
LINE
  8
0
 62
     0
 10
107.429
 20
27.8942
 30
0.0
 11
107.221
 21
26.7119
 31
0.0
  0
LINE
  8
0
 62
     0
 10
107.221
 20
26.7119
 30
0.0
 11
105.522
 21
27.0123
 31
0.0
  0
LINE
  8
0
 62
     0
 10
105.522
 20
27.0123
 30
0.0
 11
104.746
 21
22.6109
 31
0.0
  0
LINE
  8
0
 62
     0
 10
104.746
 20
22.6109
 30
0.0
 11
103.244
 21
22.8755
 31
0.0
  0
LINE
  8
0
 62
     0
 10
103.244
 20
22.8755
 30
0.0
 11
103.349
 21
23.4666
 31
0.0
  0
LINE
  8
0
 62
     0
 10
103.349
 20
23.4666
 30
0.0
 11
104.136
 21
23.3274
 31
0.0
  0
LINE
  8
0
 62
     0
 10
104.136
 20
23.3274
 30
0.0
 11
104.674
 21
26.3798
 31
0.0
  0
LINE
  8
0
 62
     0
 10
104.674
 20
26.3798
 30
0.0
 11
103.886
 21
26.519
 31
0.0
  0
LINE
  8
0
 62
     0
 10
103.886
 20
26.519
 30
0.0
 11
104.061
 21
27.5029
 31
0.0
  0
LINE
  8
0
 62
     0
 10
104.061
 20
27.5029
 30
0.0
 11
90.2727
 21
29.9338
 31
0.0
  0
LINE
  8
0
 62
     0
 10
90.2727
 20
29.9338
 30
0.0
 11
90.0987
 21
28.9498
 31
0.0
  0
LINE
  8
0
 62
     0
 10
90.0987
 20
28.9498
 30
0.0
 11
89.312
 21
29.089
 31
0.0
  0
LINE
  8
0
 62
     0
 10
89.312
 20
29.089
 30
0.0
 11
88.7719
 21
26.0367
 31
0.0
  0
LINE
  8
0
 62
     0
 10
88.7719
 20
26.0367
 30
0.0
 11
89.56
 21
25.8975
 31
0.0
  0
LINE
  8
0
 62
     0
 10
89.56
 20
25.8975
 30
0.0
 11
89.4567
 21
25.3063
 31
0.0
  0
LINE
  8
0
 62
     0
 10
89.4567
 20
25.3063
 30
0.0
 11
87.9546
 21
25.5709
 31
0.0
  0
LINE
  8
0
 62
     0
 10
87.9546
 20
25.5709
 30
0.0
 11
88.7307
 21
29.9737
 31
0.0
  0
LINE
  8
0
 62
     0
 10
88.7307
 20
29.9737
 30
0.0
 11
87.0327
 21
30.2727
 31
0.0
  0
LINE
  8
0
 62
     0
 10
87.0327
 20
30.2727
 30
0.0
 11
87.2409
 21
31.4537
 31
0.0
  0
LINE
  8
0
 62
     0
 10
87.2409
 20
31.4537
 30
0.0
 11
83.99
 21
32.027
 31
0.0
  0
LINE
  8
0
 62
     0
 10
83.99
 20
32.027
 30
0.0
 11
83.7819
 21
30.8446
 31
0.0
  0
LINE
  8
0
 62
     0
 10
254.383
 20
39.6215
 30
0.0
 11
254.608
 21
38.6457
 31
0.0
  0
LINE
  8
0
 62
     0
 10
254.608
 20
38.6457
 30
0.0
 11
253.829
 21
38.4665
 31
0.0
  0
LINE
  8
0
 62
     0
 10
253.829
 20
38.4665
 30
0.0
 11
254.525
 21
35.4461
 31
0.0
  0
LINE
  8
0
 62
     0
 10
254.525
 20
35.4461
 30
0.0
 11
255.305
 21
35.6263
 31
0.0
  0
LINE
  8
0
 62
     0
 10
255.305
 20
35.6263
 30
0.0
 11
256.61
 21
29.9737
 31
0.0
  0
LINE
  8
0
 62
     0
 10
256.61
 20
29.9737
 30
0.0
 11
255.831
 21
29.7946
 31
0.0
  0
LINE
  8
0
 62
     0
 10
255.831
 20
29.7946
 30
0.0
 11
256.529
 21
26.7739
 31
0.0
  0
LINE
  8
0
 62
     0
 10
256.529
 20
26.7739
 30
0.0
 11
257.309
 21
26.9544
 31
0.0
  0
LINE
  8
0
 62
     0
 10
257.309
 20
26.9544
 30
0.0
 11
257.532
 21
25.9788
 31
0.0
  0
LINE
  8
0
 62
     0
 10
257.532
 20
25.9788
 30
0.0
 11
271.175
 21
29.129
 31
0.0
  0
LINE
  8
0
 62
     0
 10
271.175
 20
29.129
 30
0.0
 11
270.95
 21
30.1032
 31
0.0
  0
LINE
  8
0
 62
     0
 10
270.95
 20
30.1032
 30
0.0
 11
271.729
 21
30.2838
 31
0.0
  0
LINE
  8
0
 62
     0
 10
271.729
 20
30.2838
 30
0.0
 11
271.031
 21
33.3044
 31
0.0
  0
LINE
  8
0
 62
     0
 10
271.031
 20
33.3044
 30
0.0
 11
270.251
 21
33.1239
 31
0.0
  0
LINE
  8
0
 62
     0
 10
270.251
 20
33.1239
 30
0.0
 11
268.948
 21
38.7752
 31
0.0
  0
LINE
  8
0
 62
     0
 10
268.948
 20
38.7752
 30
0.0
 11
269.726
 21
38.9558
 31
0.0
  0
LINE
  8
0
 62
     0
 10
269.726
 20
38.9558
 30
0.0
 11
269.029
 21
41.9763
 31
0.0
  0
LINE
  8
0
 62
     0
 10
269.029
 20
41.9763
 30
0.0
 11
268.249
 21
41.7961
 31
0.0
  0
LINE
  8
0
 62
     0
 10
268.249
 20
41.7961
 30
0.0
 11
268.024
 21
42.7701
 31
0.0
  0
LINE
  8
0
 62
     0
 10
268.024
 20
42.7701
 30
0.0
 11
254.383
 21
39.6215
 31
0.0
  0
LINE
  8
0
 62
     0
 10
36.0027
 20
41.9806
 30
0.0
 11
35.2241
 21
42.1612
 31
0.0
  0
LINE
  8
0
 62
     0
 10
35.2241
 20
42.1612
 30
0.0
 11
34.5254
 21
39.1418
 31
0.0
  0
LINE
  8
0
 62
     0
 10
34.5254
 20
39.1418
 30
0.0
 11
35.3053
 21
38.9611
 31
0.0
  0
LINE
  8
0
 62
     0
 10
35.3053
 20
38.9611
 30
0.0
 11
34.0003
 21
33.3086
 31
0.0
  0
LINE
  8
0
 62
     0
 10
34.0003
 20
33.3086
 30
0.0
 11
33.2204
 21
33.4891
 31
0.0
  0
LINE
  8
0
 62
     0
 10
33.2204
 20
33.4891
 30
0.0
 11
32.5231
 21
30.4698
 31
0.0
  0
LINE
  8
0
 62
     0
 10
32.5231
 20
30.4698
 30
0.0
 11
33.303
 21
30.2893
 31
0.0
  0
LINE
  8
0
 62
     0
 10
33.303
 20
30.2893
 30
0.0
 11
33.0784
 21
29.3136
 31
0.0
  0
LINE
  8
0
 62
     0
 10
33.0784
 20
29.3136
 30
0.0
 11
46.7198
 21
26.1648
 31
0.0
  0
LINE
  8
0
 62
     0
 10
46.7198
 20
26.1648
 30
0.0
 11
46.9441
 21
27.1391
 31
0.0
  0
LINE
  8
0
 62
     0
 10
46.9441
 20
27.1391
 30
0.0
 11
47.7227
 21
26.9586
 31
0.0
  0
LINE
  8
0
 62
     0
 10
47.7227
 20
26.9586
 30
0.0
 11
48.4216
 21
29.9806
 31
0.0
  0
LINE
  8
0
 62
     0
 10
48.4216
 20
29.9806
 30
0.0
 11
47.6416
 21
30.1597
 31
0.0
  0
LINE
  8
0
 62
     0
 10
47.6416
 20
30.1597
 30
0.0
 11
48.9465
 21
35.8112
 31
0.0
  0
LINE
  8
0
 62
     0
 10
48.9465
 20
35.8112
 30
0.0
 11
49.7251
 21
35.6306
 31
0.0
  0
LINE
  8
0
 62
     0
 10
49.7251
 20
35.6306
 30
0.0
 11
50.4239
 21
38.6525
 31
0.0
  0
LINE
  8
0
 62
     0
 10
50.4239
 20
38.6525
 30
0.0
 11
49.6439
 21
38.8317
 31
0.0
  0
LINE
  8
0
 62
     0
 10
49.6439
 20
38.8317
 30
0.0
 11
49.8683
 21
39.806
 31
0.0
  0
LINE
  8
0
 62
     0
 10
49.8683
 20
39.806
 30
0.0
 11
36.2271
 21
42.9563
 31
0.0
  0
LINE
  8
0
 62
     0
 10
36.2271
 20
42.9563
 30
0.0
 11
36.0027
 21
41.9806
 31
0.0
  0
LINE
  8
0
 62
     0
 10
164.926
 20
41.6278
 30
0.0
 11
164.926
 21
40.6273
 31
0.0
  0
LINE
  8
0
 62
     0
 10
164.926
 20
40.6273
 30
0.0
 11
164.127
 21
40.6273
 31
0.0
  0
LINE
  8
0
 62
     0
 10
164.127
 20
40.6273
 30
0.0
 11
164.127
 21
37.5281
 31
0.0
  0
LINE
  8
0
 62
     0
 10
164.127
 20
37.5281
 30
0.0
 11
164.926
 21
37.5281
 31
0.0
  0
LINE
  8
0
 62
     0
 10
164.926
 20
37.5281
 30
0.0
 11
164.926
 21
31.7266
 31
0.0
  0
LINE
  8
0
 62
     0
 10
164.926
 20
31.7266
 30
0.0
 11
164.127
 21
31.7266
 31
0.0
  0
LINE
  8
0
 62
     0
 10
164.127
 20
31.7266
 30
0.0
 11
164.127
 21
28.6274
 31
0.0
  0
LINE
  8
0
 62
     0
 10
164.127
 20
28.6274
 30
0.0
 11
164.926
 21
28.6274
 31
0.0
  0
LINE
  8
0
 62
     0
 10
164.926
 20
28.6274
 30
0.0
 11
164.926
 21
27.6269
 31
0.0
  0
LINE
  8
0
 62
     0
 10
164.926
 20
27.6269
 30
0.0
 11
178.926
 21
27.6269
 31
0.0
  0
LINE
  8
0
 62
     0
 10
178.926
 20
27.6269
 30
0.0
 11
178.926
 21
28.6274
 31
0.0
  0
LINE
  8
0
 62
     0
 10
178.926
 20
28.6274
 30
0.0
 11
179.727
 21
28.6274
 31
0.0
  0
LINE
  8
0
 62
     0
 10
179.727
 20
28.6274
 30
0.0
 11
179.727
 21
31.7266
 31
0.0
  0
LINE
  8
0
 62
     0
 10
179.727
 20
31.7266
 30
0.0
 11
178.926
 21
31.7266
 31
0.0
  0
LINE
  8
0
 62
     0
 10
178.926
 20
31.7266
 30
0.0
 11
178.926
 21
37.5281
 31
0.0
  0
LINE
  8
0
 62
     0
 10
178.926
 20
37.5281
 30
0.0
 11
179.727
 21
37.5281
 31
0.0
  0
LINE
  8
0
 62
     0
 10
179.727
 20
37.5281
 30
0.0
 11
179.727
 21
40.6273
 31
0.0
  0
LINE
  8
0
 62
     0
 10
179.727
 20
40.6273
 30
0.0
 11
178.926
 21
40.6273
 31
0.0
  0
LINE
  8
0
 62
     0
 10
178.926
 20
40.6273
 30
0.0
 11
178.926
 21
41.6278
 31
0.0
  0
LINE
  8
0
 62
     0
 10
178.926
 20
41.6278
 30
0.0
 11
164.926
 21
41.6278
 31
0.0
  0
LINE
  8
0
 62
     0
 10
144.734
 20
41.6278
 30
0.0
 11
144.734
 21
40.6273
 31
0.0
  0
LINE
  8
0
 62
     0
 10
144.734
 20
40.6273
 30
0.0
 11
143.933
 21
40.6273
 31
0.0
  0
LINE
  8
0
 62
     0
 10
143.933
 20
40.6273
 30
0.0
 11
143.933
 21
37.5281
 31
0.0
  0
LINE
  8
0
 62
     0
 10
143.933
 20
37.5281
 30
0.0
 11
144.734
 21
37.5281
 31
0.0
  0
LINE
  8
0
 62
     0
 10
144.734
 20
37.5281
 30
0.0
 11
144.734
 21
31.7266
 31
0.0
  0
LINE
  8
0
 62
     0
 10
144.734
 20
31.7266
 30
0.0
 11
143.933
 21
31.7266
 31
0.0
  0
LINE
  8
0
 62
     0
 10
143.933
 20
31.7266
 30
0.0
 11
143.933
 21
28.6274
 31
0.0
  0
LINE
  8
0
 62
     0
 10
143.933
 20
28.6274
 30
0.0
 11
144.734
 21
28.6274
 31
0.0
  0
LINE
  8
0
 62
     0
 10
144.734
 20
28.6274
 30
0.0
 11
144.734
 21
27.6269
 31
0.0
  0
LINE
  8
0
 62
     0
 10
144.734
 20
27.6269
 30
0.0
 11
158.733
 21
27.6269
 31
0.0
  0
LINE
  8
0
 62
     0
 10
158.733
 20
27.6269
 30
0.0
 11
158.733
 21
28.6274
 31
0.0
  0
LINE
  8
0
 62
     0
 10
158.733
 20
28.6274
 30
0.0
 11
159.534
 21
28.6274
 31
0.0
  0
LINE
  8
0
 62
     0
 10
159.534
 20
28.6274
 30
0.0
 11
159.534
 21
31.7266
 31
0.0
  0
LINE
  8
0
 62
     0
 10
159.534
 20
31.7266
 30
0.0
 11
158.733
 21
31.7266
 31
0.0
  0
LINE
  8
0
 62
     0
 10
158.733
 20
31.7266
 30
0.0
 11
158.733
 21
37.5281
 31
0.0
  0
LINE
  8
0
 62
     0
 10
158.733
 20
37.5281
 30
0.0
 11
159.534
 21
37.5281
 31
0.0
  0
LINE
  8
0
 62
     0
 10
159.534
 20
37.5281
 30
0.0
 11
159.534
 21
40.6273
 31
0.0
  0
LINE
  8
0
 62
     0
 10
159.534
 20
40.6273
 30
0.0
 11
158.733
 21
40.6273
 31
0.0
  0
LINE
  8
0
 62
     0
 10
158.733
 20
40.6273
 30
0.0
 11
158.733
 21
41.6278
 31
0.0
  0
LINE
  8
0
 62
     0
 10
158.733
 20
41.6278
 30
0.0
 11
144.734
 21
41.6278
 31
0.0
  0
LINE
  8
0
 62
     0
 10
124.729
 20
41.6278
 30
0.0
 11
124.729
 21
40.6273
 31
0.0
  0
LINE
  8
0
 62
     0
 10
124.729
 20
40.6273
 30
0.0
 11
123.931
 21
40.6273
 31
0.0
  0
LINE
  8
0
 62
     0
 10
123.931
 20
40.6273
 30
0.0
 11
123.931
 21
37.5281
 31
0.0
  0
LINE
  8
0
 62
     0
 10
123.931
 20
37.5281
 30
0.0
 11
124.729
 21
37.5281
 31
0.0
  0
LINE
  8
0
 62
     0
 10
124.729
 20
37.5281
 30
0.0
 11
124.729
 21
31.7266
 31
0.0
  0
LINE
  8
0
 62
     0
 10
124.729
 20
31.7266
 30
0.0
 11
123.931
 21
31.7266
 31
0.0
  0
LINE
  8
0
 62
     0
 10
123.931
 20
31.7266
 30
0.0
 11
123.931
 21
28.6274
 31
0.0
  0
LINE
  8
0
 62
     0
 10
123.931
 20
28.6274
 30
0.0
 11
124.729
 21
28.6274
 31
0.0
  0
LINE
  8
0
 62
     0
 10
124.729
 20
28.6274
 30
0.0
 11
124.729
 21
27.6269
 31
0.0
  0
LINE
  8
0
 62
     0
 10
124.729
 20
27.6269
 30
0.0
 11
138.73
 21
27.6269
 31
0.0
  0
LINE
  8
0
 62
     0
 10
138.73
 20
27.6269
 30
0.0
 11
138.73
 21
28.6274
 31
0.0
  0
LINE
  8
0
 62
     0
 10
138.73
 20
28.6274
 30
0.0
 11
139.531
 21
28.6274
 31
0.0
  0
LINE
  8
0
 62
     0
 10
139.531
 20
28.6274
 30
0.0
 11
139.531
 21
31.7266
 31
0.0
  0
LINE
  8
0
 62
     0
 10
139.531
 20
31.7266
 30
0.0
 11
138.73
 21
31.7266
 31
0.0
  0
LINE
  8
0
 62
     0
 10
138.73
 20
31.7266
 30
0.0
 11
138.73
 21
37.5281
 31
0.0
  0
LINE
  8
0
 62
     0
 10
138.73
 20
37.5281
 30
0.0
 11
139.531
 21
37.5281
 31
0.0
  0
LINE
  8
0
 62
     0
 10
139.531
 20
37.5281
 30
0.0
 11
139.531
 21
40.6273
 31
0.0
  0
LINE
  8
0
 62
     0
 10
139.531
 20
40.6273
 30
0.0
 11
138.73
 21
40.6273
 31
0.0
  0
LINE
  8
0
 62
     0
 10
138.73
 20
40.6273
 30
0.0
 11
138.73
 21
41.6278
 31
0.0
  0
LINE
  8
0
 62
     0
 10
138.73
 20
41.6278
 30
0.0
 11
124.729
 21
41.6278
 31
0.0
  0
LINE
  8
0
 62
     0
 10
193.521
 20
47.075
 30
0.0
 11
193.745
 21
46.101
 31
0.0
  0
LINE
  8
0
 62
     0
 10
193.745
 20
46.101
 30
0.0
 11
192.965
 21
45.9218
 31
0.0
  0
LINE
  8
0
 62
     0
 10
192.965
 20
45.9218
 30
0.0
 11
193.664
 21
42.901
 31
0.0
  0
LINE
  8
0
 62
     0
 10
193.664
 20
42.901
 30
0.0
 11
194.443
 21
43.0816
 31
0.0
  0
LINE
  8
0
 62
     0
 10
194.443
 20
43.0816
 30
0.0
 11
195.748
 21
37.429
 31
0.0
  0
LINE
  8
0
 62
     0
 10
195.748
 20
37.429
 30
0.0
 11
194.969
 21
37.2498
 31
0.0
  0
LINE
  8
0
 62
     0
 10
194.969
 20
37.2498
 30
0.0
 11
195.665
 21
34.2291
 31
0.0
  0
LINE
  8
0
 62
     0
 10
195.665
 20
34.2291
 30
0.0
 11
196.445
 21
34.4096
 31
0.0
  0
LINE
  8
0
 62
     0
 10
196.445
 20
34.4096
 30
0.0
 11
196.669
 21
33.4339
 31
0.0
  0
LINE
  8
0
 62
     0
 10
196.669
 20
33.4339
 30
0.0
 11
210.312
 21
36.5841
 31
0.0
  0
LINE
  8
0
 62
     0
 10
210.312
 20
36.5841
 30
0.0
 11
210.086
 21
37.5585
 31
0.0
  0
LINE
  8
0
 62
     0
 10
210.086
 20
37.5585
 30
0.0
 11
210.866
 21
37.7377
 31
0.0
  0
LINE
  8
0
 62
     0
 10
210.866
 20
37.7377
 30
0.0
 11
210.169
 21
40.7582
 31
0.0
  0
LINE
  8
0
 62
     0
 10
210.169
 20
40.7582
 30
0.0
 11
209.389
 21
40.579
 31
0.0
  0
LINE
  8
0
 62
     0
 10
209.389
 20
40.579
 30
0.0
 11
208.085
 21
46.2305
 31
0.0
  0
LINE
  8
0
 62
     0
 10
208.085
 20
46.2305
 30
0.0
 11
208.864
 21
46.4097
 31
0.0
  0
LINE
  8
0
 62
     0
 10
208.864
 20
46.4097
 30
0.0
 11
208.166
 21
49.4302
 31
0.0
  0
LINE
  8
0
 62
     0
 10
208.166
 20
49.4302
 30
0.0
 11
207.386
 21
49.2495
 31
0.0
  0
LINE
  8
0
 62
     0
 10
207.386
 20
49.2495
 30
0.0
 11
207.162
 21
50.2267
 31
0.0
  0
LINE
  8
0
 62
     0
 10
207.162
 20
50.2267
 30
0.0
 11
193.521
 21
47.075
 31
0.0
  0
LINE
  8
0
 62
     0
 10
96.865
 20
49.4358
 30
0.0
 11
96.0864
 21
49.6164
 31
0.0
  0
LINE
  8
0
 62
     0
 10
96.0864
 20
49.6164
 30
0.0
 11
95.3879
 21
46.5956
 31
0.0
  0
LINE
  8
0
 62
     0
 10
95.3879
 20
46.5956
 30
0.0
 11
96.169
 21
46.415
 31
0.0
  0
LINE
  8
0
 62
     0
 10
96.169
 20
46.415
 30
0.0
 11
94.8641
 21
40.7638
 31
0.0
  0
LINE
  8
0
 62
     0
 10
94.8641
 20
40.7638
 30
0.0
 11
94.0841
 21
40.9444
 31
0.0
  0
LINE
  8
0
 62
     0
 10
94.0841
 20
40.9444
 30
0.0
 11
93.387
 21
37.9236
 31
0.0
  0
LINE
  8
0
 62
     0
 10
93.387
 20
37.9236
 30
0.0
 11
94.167
 21
37.7444
 31
0.0
  0
LINE
  8
0
 62
     0
 10
94.167
 20
37.7444
 30
0.0
 11
93.9408
 21
36.769
 31
0.0
  0
LINE
  8
0
 62
     0
 10
93.9408
 20
36.769
 30
0.0
 11
107.582
 21
33.62
 31
0.0
  0
LINE
  8
0
 62
     0
 10
107.582
 20
33.62
 30
0.0
 11
107.808
 21
34.5943
 31
0.0
  0
LINE
  8
0
 62
     0
 10
107.808
 20
34.5943
 30
0.0
 11
108.587
 21
34.4138
 31
0.0
  0
LINE
  8
0
 62
     0
 10
108.587
 20
34.4138
 30
0.0
 11
109.284
 21
37.4357
 31
0.0
  0
LINE
  8
0
 62
     0
 10
109.284
 20
37.4357
 30
0.0
 11
108.504
 21
37.6149
 31
0.0
  0
LINE
  8
0
 62
     0
 10
108.504
 20
37.6149
 30
0.0
 11
109.809
 21
43.2664
 31
0.0
  0
LINE
  8
0
 62
     0
 10
109.809
 20
43.2664
 30
0.0
 11
110.589
 21
43.0858
 31
0.0
  0
LINE
  8
0
 62
     0
 10
110.589
 20
43.0858
 30
0.0
 11
111.286
 21
46.1077
 31
0.0
  0
LINE
  8
0
 62
     0
 10
111.286
 20
46.1077
 30
0.0
 11
110.506
 21
46.2869
 31
0.0
  0
LINE
  8
0
 62
     0
 10
110.506
 20
46.2869
 30
0.0
 11
110.731
 21
47.2613
 31
0.0
  0
LINE
  8
0
 62
     0
 10
110.731
 20
47.2613
 30
0.0
 11
97.0911
 21
50.4102
 31
0.0
  0
LINE
  8
0
 62
     0
 10
97.0911
 20
50.4102
 30
0.0
 11
96.865
 21
49.4358
 31
0.0
  0
LINE
  8
0
 62
     0
 10
213.01
 20
51.5758
 30
0.0
 11
213.235
 21
50.6017
 31
0.0
  0
LINE
  8
0
 62
     0
 10
213.235
 20
50.6017
 30
0.0
 11
212.455
 21
50.4211
 31
0.0
  0
LINE
  8
0
 62
     0
 10
212.455
 20
50.4211
 30
0.0
 11
213.154
 21
47.4003
 31
0.0
  0
LINE
  8
0
 62
     0
 10
213.154
 20
47.4003
 30
0.0
 11
213.932
 21
47.5795
 31
0.0
  0
LINE
  8
0
 62
     0
 10
213.932
 20
47.5795
 30
0.0
 11
215.237
 21
41.9294
 31
0.0
  0
LINE
  8
0
 62
     0
 10
215.237
 20
41.9294
 30
0.0
 11
214.457
 21
41.7491
 31
0.0
  0
LINE
  8
0
 62
     0
 10
214.457
 20
41.7491
 30
0.0
 11
215.156
 21
38.7283
 31
0.0
  0
LINE
  8
0
 62
     0
 10
215.156
 20
38.7283
 30
0.0
 11
215.935
 21
38.9075
 31
0.0
  0
LINE
  8
0
 62
     0
 10
215.935
 20
38.9075
 30
0.0
 11
216.159
 21
37.9345
 31
0.0
  0
LINE
  8
0
 62
     0
 10
216.159
 20
37.9345
 30
0.0
 11
229.8
 21
41.0834
 31
0.0
  0
LINE
  8
0
 62
     0
 10
229.8
 20
41.0834
 30
0.0
 11
229.576
 21
42.0578
 31
0.0
  0
LINE
  8
0
 62
     0
 10
229.576
 20
42.0578
 30
0.0
 11
230.356
 21
42.2381
 31
0.0
  0
LINE
  8
0
 62
     0
 10
230.356
 20
42.2381
 30
0.0
 11
229.658
 21
45.2575
 31
0.0
  0
LINE
  8
0
 62
     0
 10
229.658
 20
45.2575
 30
0.0
 11
228.878
 21
45.0783
 31
0.0
  0
LINE
  8
0
 62
     0
 10
228.878
 20
45.0783
 30
0.0
 11
227.573
 21
50.7298
 31
0.0
  0
LINE
  8
0
 62
     0
 10
227.573
 20
50.7298
 30
0.0
 11
228.353
 21
50.909
 31
0.0
  0
LINE
  8
0
 62
     0
 10
228.353
 20
50.909
 30
0.0
 11
227.656
 21
53.9295
 31
0.0
  0
LINE
  8
0
 62
     0
 10
227.656
 20
53.9295
 30
0.0
 11
226.876
 21
53.7503
 31
0.0
  0
LINE
  8
0
 62
     0
 10
226.876
 20
53.7503
 30
0.0
 11
226.652
 21
54.7247
 31
0.0
  0
LINE
  8
0
 62
     0
 10
226.652
 20
54.7247
 30
0.0
 11
213.01
 21
51.5758
 31
0.0
  0
LINE
  8
0
 62
     0
 10
77.3755
 20
53.9365
 30
0.0
 11
76.5969
 21
54.1154
 31
0.0
  0
LINE
  8
0
 62
     0
 10
76.5969
 20
54.1154
 30
0.0
 11
75.8994
 21
51.0949
 31
0.0
  0
LINE
  8
0
 62
     0
 10
75.8994
 20
51.0949
 30
0.0
 11
76.678
 21
50.9157
 31
0.0
  0
LINE
  8
0
 62
     0
 10
76.678
 20
50.9157
 30
0.0
 11
75.3731
 21
45.2646
 31
0.0
  0
LINE
  8
0
 62
     0
 10
75.3731
 20
45.2646
 30
0.0
 11
74.5945
 21
45.4434
 31
0.0
  0
LINE
  8
0
 62
     0
 10
74.5945
 20
45.4434
 30
0.0
 11
73.896
 21
42.4229
 31
0.0
  0
LINE
  8
0
 62
     0
 10
73.896
 20
42.4229
 30
0.0
 11
74.676
 21
42.2437
 31
0.0
  0
LINE
  8
0
 62
     0
 10
74.676
 20
42.2437
 30
0.0
 11
74.4513
 21
41.2694
 31
0.0
  0
LINE
  8
0
 62
     0
 10
74.4513
 20
41.2694
 30
0.0
 11
88.0925
 21
38.1194
 31
0.0
  0
LINE
  8
0
 62
     0
 10
88.0925
 20
38.1194
 30
0.0
 11
88.3172
 21
39.0934
 31
0.0
  0
LINE
  8
0
 62
     0
 10
88.3172
 20
39.0934
 30
0.0
 11
89.0972
 21
38.9146
 31
0.0
  0
LINE
  8
0
 62
     0
 10
89.0972
 20
38.9146
 30
0.0
 11
89.7943
 21
41.9336
 31
0.0
  0
LINE
  8
0
 62
     0
 10
89.7943
 20
41.9336
 30
0.0
 11
89.0143
 21
42.1143
 31
0.0
  0
LINE
  8
0
 62
     0
 10
89.0143
 20
42.1143
 30
0.0
 11
90.3192
 21
47.7654
 31
0.0
  0
LINE
  8
0
 62
     0
 10
90.3192
 20
47.7654
 30
0.0
 11
91.0992
 21
47.5865
 31
0.0
  0
LINE
  8
0
 62
     0
 10
91.0992
 20
47.5865
 30
0.0
 11
91.7967
 21
50.607
 31
0.0
  0
LINE
  8
0
 62
     0
 10
91.7967
 20
50.607
 30
0.0
 11
91.0181
 21
50.7862
 31
0.0
  0
LINE
  8
0
 62
     0
 10
91.0181
 20
50.7862
 30
0.0
 11
91.2414
 21
51.7606
 31
0.0
  0
LINE
  8
0
 62
     0
 10
91.2414
 20
51.7606
 30
0.0
 11
77.6002
 21
54.9106
 31
0.0
  0
LINE
  8
0
 62
     0
 10
77.6002
 20
54.9106
 30
0.0
 11
77.3755
 21
53.9365
 31
0.0
  0
LINE
  8
0
 62
     0
 10
232.5
 20
56.0751
 30
0.0
 11
232.726
 21
55.1007
 31
0.0
  0
LINE
  8
0
 62
     0
 10
232.726
 20
55.1007
 30
0.0
 11
231.946
 21
54.9204
 31
0.0
  0
LINE
  8
0
 62
     0
 10
231.946
 20
54.9204
 30
0.0
 11
232.643
 21
51.8996
 31
0.0
  0
LINE
  8
0
 62
     0
 10
232.643
 20
51.8996
 30
0.0
 11
233.423
 21
52.0802
 31
0.0
  0
LINE
  8
0
 62
     0
 10
233.423
 20
52.0802
 30
0.0
 11
234.728
 21
46.4287
 31
0.0
  0
LINE
  8
0
 62
     0
 10
234.728
 20
46.4287
 30
0.0
 11
233.948
 21
46.2485
 31
0.0
  0
LINE
  8
0
 62
     0
 10
233.948
 20
46.2485
 30
0.0
 11
234.646
 21
43.2276
 31
0.0
  0
LINE
  8
0
 62
     0
 10
234.646
 20
43.2276
 30
0.0
 11
235.424
 21
43.4082
 31
0.0
  0
LINE
  8
0
 62
     0
 10
235.424
 20
43.4082
 30
0.0
 11
235.65
 21
42.4325
 31
0.0
  0
LINE
  8
0
 62
     0
 10
235.65
 20
42.4325
 30
0.0
 11
249.29
 21
45.5828
 31
0.0
  0
LINE
  8
0
 62
     0
 10
249.29
 20
45.5828
 30
0.0
 11
249.065
 21
46.5571
 31
0.0
  0
LINE
  8
0
 62
     0
 10
249.065
 20
46.5571
 30
0.0
 11
249.845
 21
46.7374
 31
0.0
  0
LINE
  8
0
 62
     0
 10
249.845
 20
46.7374
 30
0.0
 11
249.148
 21
49.7597
 31
0.0
  0
LINE
  8
0
 62
     0
 10
249.148
 20
49.7597
 30
0.0
 11
248.368
 21
49.5776
 31
0.0
  0
LINE
  8
0
 62
     0
 10
248.368
 20
49.5776
 30
0.0
 11
247.063
 21
55.2291
 31
0.0
  0
LINE
  8
0
 62
     0
 10
247.063
 20
55.2291
 30
0.0
 11
247.843
 21
55.4094
 31
0.0
  0
LINE
  8
0
 62
     0
 10
247.843
 20
55.4094
 30
0.0
 11
247.146
 21
58.4302
 31
0.0
  0
LINE
  8
0
 62
     0
 10
247.146
 20
58.4302
 30
0.0
 11
246.367
 21
58.2496
 31
0.0
  0
LINE
  8
0
 62
     0
 10
246.367
 20
58.2496
 30
0.0
 11
246.141
 21
59.224
 31
0.0
  0
LINE
  8
0
 62
     0
 10
246.141
 20
59.224
 30
0.0
 11
232.5
 21
56.0751
 31
0.0
  0
LINE
  8
0
 62
     0
 10
57.8859
 20
58.4359
 30
0.0
 11
57.1059
 21
58.6147
 31
0.0
  0
LINE
  8
0
 62
     0
 10
57.1059
 20
58.6147
 30
0.0
 11
56.4099
 21
55.5957
 31
0.0
  0
LINE
  8
0
 62
     0
 10
56.4099
 20
55.5957
 30
0.0
 11
57.1885
 21
55.415
 31
0.0
  0
LINE
  8
0
 62
     0
 10
57.1885
 20
55.415
 30
0.0
 11
55.8835
 21
49.7639
 31
0.0
  0
LINE
  8
0
 62
     0
 10
55.8835
 20
49.7639
 30
0.0
 11
55.1049
 21
49.9428
 31
0.0
  0
LINE
  8
0
 62
     0
 10
55.1049
 20
49.9428
 30
0.0
 11
54.4079
 21
46.9237
 31
0.0
  0
LINE
  8
0
 62
     0
 10
54.4079
 20
46.9237
 30
0.0
 11
55.1864
 21
46.7431
 31
0.0
  0
LINE
  8
0
 62
     0
 10
55.1864
 20
46.7431
 30
0.0
 11
54.9617
 21
45.7687
 31
0.0
  0
LINE
  8
0
 62
     0
 10
54.9617
 20
45.7687
 30
0.0
 11
68.6029
 21
42.6187
 31
0.0
  0
LINE
  8
0
 62
     0
 10
68.6029
 20
42.6187
 30
0.0
 11
68.8277
 21
43.5928
 31
0.0
  0
LINE
  8
0
 62
     0
 10
68.8277
 20
43.5928
 30
0.0
 11
69.6076
 21
43.4139
 31
0.0
  0
LINE
  8
0
 62
     0
 10
69.6076
 20
43.4139
 30
0.0
 11
70.3047
 21
46.4344
 31
0.0
  0
LINE
  8
0
 62
     0
 10
70.3047
 20
46.4344
 30
0.0
 11
69.5262
 21
46.6136
 31
0.0
  0
LINE
  8
0
 62
     0
 10
69.5262
 20
46.6136
 30
0.0
 11
70.8297
 21
52.2647
 31
0.0
  0
LINE
  8
0
 62
     0
 10
70.8297
 20
52.2647
 30
0.0
 11
71.6097
 21
52.0859
 31
0.0
  0
LINE
  8
0
 62
     0
 10
71.6097
 20
52.0859
 30
0.0
 11
72.3071
 21
55.1064
 31
0.0
  0
LINE
  8
0
 62
     0
 10
72.3071
 20
55.1064
 30
0.0
 11
71.5271
 21
55.2856
 31
0.0
  0
LINE
  8
0
 62
     0
 10
71.5271
 20
55.2856
 30
0.0
 11
71.7532
 21
56.2599
 31
0.0
  0
LINE
  8
0
 62
     0
 10
71.7532
 20
56.2599
 30
0.0
 11
58.1106
 21
59.4099
 31
0.0
  0
LINE
  8
0
 62
     0
 10
58.1106
 20
59.4099
 30
0.0
 11
57.8859
 21
58.4359
 31
0.0
  0
LINE
  8
0
 62
     0
 10
252.203
 20
59.6456
 30
0.0
 11
252.429
 21
58.6726
 31
0.0
  0
LINE
  8
0
 62
     0
 10
252.429
 20
58.6726
 30
0.0
 11
251.649
 21
58.4923
 31
0.0
  0
LINE
  8
0
 62
     0
 10
251.649
 20
58.4923
 30
0.0
 11
252.348
 21
55.4715
 31
0.0
  0
LINE
  8
0
 62
     0
 10
252.348
 20
55.4715
 30
0.0
 11
253.126
 21
55.6507
 31
0.0
  0
LINE
  8
0
 62
     0
 10
253.126
 20
55.6507
 30
0.0
 11
254.431
 21
50.0006
 31
0.0
  0
LINE
  8
0
 62
     0
 10
254.431
 20
50.0006
 30
0.0
 11
253.65
 21
49.8217
 31
0.0
  0
LINE
  8
0
 62
     0
 10
253.65
 20
49.8217
 30
0.0
 11
254.35
 21
46.7995
 31
0.0
  0
LINE
  8
0
 62
     0
 10
254.35
 20
46.7995
 30
0.0
 11
255.129
 21
46.9787
 31
0.0
  0
LINE
  8
0
 62
     0
 10
255.129
 20
46.9787
 30
0.0
 11
255.352
 21
46.0058
 31
0.0
  0
LINE
  8
0
 62
     0
 10
255.352
 20
46.0058
 30
0.0
 11
268.994
 21
49.1546
 31
0.0
  0
LINE
  8
0
 62
     0
 10
268.994
 20
49.1546
 30
0.0
 11
268.77
 21
50.129
 31
0.0
  0
LINE
  8
0
 62
     0
 10
268.77
 20
50.129
 30
0.0
 11
269.55
 21
50.3093
 31
0.0
  0
LINE
  8
0
 62
     0
 10
269.55
 20
50.3093
 30
0.0
 11
268.851
 21
53.3287
 31
0.0
  0
LINE
  8
0
 62
     0
 10
268.851
 20
53.3287
 30
0.0
 11
268.073
 21
53.1495
 31
0.0
  0
LINE
  8
0
 62
     0
 10
268.073
 20
53.1495
 30
0.0
 11
266.767
 21
58.801
 31
0.0
  0
LINE
  8
0
 62
     0
 10
266.767
 20
58.801
 30
0.0
 11
267.547
 21
58.9802
 31
0.0
  0
LINE
  8
0
 62
     0
 10
267.547
 20
58.9802
 30
0.0
 11
266.849
 21
62.0007
 31
0.0
  0
LINE
  8
0
 62
     0
 10
266.849
 20
62.0007
 30
0.0
 11
266.07
 21
61.8215
 31
0.0
  0
LINE
  8
0
 62
     0
 10
266.07
 20
61.8215
 30
0.0
 11
265.846
 21
62.7959
 31
0.0
  0
LINE
  8
0
 62
     0
 10
265.846
 20
62.7959
 30
0.0
 11
252.203
 21
59.6456
 31
0.0
  0
LINE
  8
0
 62
     0
 10
38.1811
 20
62.0078
 30
0.0
 11
37.4026
 21
62.1866
 31
0.0
  0
LINE
  8
0
 62
     0
 10
37.4026
 20
62.1866
 30
0.0
 11
36.7055
 21
59.1661
 31
0.0
  0
LINE
  8
0
 62
     0
 10
36.7055
 20
59.1661
 30
0.0
 11
37.484
 21
58.9855
 31
0.0
  0
LINE
  8
0
 62
     0
 10
37.484
 20
58.9855
 30
0.0
 11
36.1791
 21
53.3358
 31
0.0
  0
LINE
  8
0
 62
     0
 10
36.1791
 20
53.3358
 30
0.0
 11
35.4005
 21
53.5146
 31
0.0
  0
LINE
  8
0
 62
     0
 10
35.4005
 20
53.5146
 30
0.0
 11
34.7031
 21
50.4941
 31
0.0
  0
LINE
  8
0
 62
     0
 10
34.7031
 20
50.4941
 30
0.0
 11
35.4831
 21
50.3135
 31
0.0
  0
LINE
  8
0
 62
     0
 10
35.4831
 20
50.3135
 30
0.0
 11
35.2571
 21
49.3406
 31
0.0
  0
LINE
  8
0
 62
     0
 10
35.2571
 20
49.3406
 30
0.0
 11
48.8982
 21
46.192
 31
0.0
  0
LINE
  8
0
 62
     0
 10
48.8982
 20
46.192
 30
0.0
 11
49.1229
 21
47.1646
 31
0.0
  0
LINE
  8
0
 62
     0
 10
49.1229
 20
47.1646
 30
0.0
 11
49.9029
 21
46.9858
 31
0.0
  0
LINE
  8
0
 62
     0
 10
49.9029
 20
46.9858
 30
0.0
 11
50.6003
 21
50.0063
 31
0.0
  0
LINE
  8
0
 62
     0
 10
50.6003
 20
50.0063
 30
0.0
 11
49.8217
 21
50.1855
 31
0.0
  0
LINE
  8
0
 62
     0
 10
49.8217
 20
50.1855
 30
0.0
 11
51.1253
 21
55.8366
 31
0.0
  0
LINE
  8
0
 62
     0
 10
51.1253
 20
55.8366
 30
0.0
 11
51.9053
 21
55.6578
 31
0.0
  0
LINE
  8
0
 62
     0
 10
51.9053
 20
55.6578
 30
0.0
 11
52.6023
 21
58.6768
 31
0.0
  0
LINE
  8
0
 62
     0
 10
52.6023
 20
58.6768
 30
0.0
 11
51.8238
 21
58.8574
 31
0.0
  0
LINE
  8
0
 62
     0
 10
51.8238
 20
58.8574
 30
0.0
 11
52.0485
 21
59.8318
 31
0.0
  0
LINE
  8
0
 62
     0
 10
52.0485
 20
59.8318
 30
0.0
 11
38.4059
 21
62.9818
 31
0.0
  0
LINE
  8
0
 62
     0
 10
38.4059
 20
62.9818
 30
0.0
 11
38.1811
 21
62.0078
 31
0.0
  0
LINE
  8
0
 62
     0
 10
164.926
 20
61.6299
 30
0.0
 11
164.926
 21
60.6294
 31
0.0
  0
LINE
  8
0
 62
     0
 10
164.926
 20
60.6294
 30
0.0
 11
164.127
 21
60.6294
 31
0.0
  0
LINE
  8
0
 62
     0
 10
164.127
 20
60.6294
 30
0.0
 11
164.127
 21
57.5303
 31
0.0
  0
LINE
  8
0
 62
     0
 10
164.127
 20
57.5303
 30
0.0
 11
164.926
 21
57.5303
 31
0.0
  0
LINE
  8
0
 62
     0
 10
164.926
 20
57.5303
 30
0.0
 11
164.926
 21
51.7303
 31
0.0
  0
LINE
  8
0
 62
     0
 10
164.926
 20
51.7303
 30
0.0
 11
164.127
 21
51.7303
 31
0.0
  0
LINE
  8
0
 62
     0
 10
164.127
 20
51.7303
 30
0.0
 11
164.127
 21
48.6297
 31
0.0
  0
LINE
  8
0
 62
     0
 10
164.127
 20
48.6297
 30
0.0
 11
164.926
 21
48.6297
 31
0.0
  0
LINE
  8
0
 62
     0
 10
164.926
 20
48.6297
 30
0.0
 11
164.926
 21
47.6306
 31
0.0
  0
LINE
  8
0
 62
     0
 10
164.926
 20
47.6306
 30
0.0
 11
178.926
 21
47.6306
 31
0.0
  0
LINE
  8
0
 62
     0
 10
178.926
 20
47.6306
 30
0.0
 11
178.926
 21
48.6297
 31
0.0
  0
LINE
  8
0
 62
     0
 10
178.926
 20
48.6297
 30
0.0
 11
179.727
 21
48.6297
 31
0.0
  0
LINE
  8
0
 62
     0
 10
179.727
 20
48.6297
 30
0.0
 11
179.727
 21
51.7303
 31
0.0
  0
LINE
  8
0
 62
     0
 10
179.727
 20
51.7303
 30
0.0
 11
178.926
 21
51.7303
 31
0.0
  0
LINE
  8
0
 62
     0
 10
178.926
 20
51.7303
 30
0.0
 11
178.926
 21
57.5303
 31
0.0
  0
LINE
  8
0
 62
     0
 10
178.926
 20
57.5303
 30
0.0
 11
179.727
 21
57.5303
 31
0.0
  0
LINE
  8
0
 62
     0
 10
179.727
 20
57.5303
 30
0.0
 11
179.727
 21
60.6294
 31
0.0
  0
LINE
  8
0
 62
     0
 10
179.727
 20
60.6294
 30
0.0
 11
178.926
 21
60.6294
 31
0.0
  0
LINE
  8
0
 62
     0
 10
178.926
 20
60.6294
 30
0.0
 11
178.926
 21
61.6299
 31
0.0
  0
LINE
  8
0
 62
     0
 10
178.926
 20
61.6299
 30
0.0
 11
164.926
 21
61.6299
 31
0.0
  0
LINE
  8
0
 62
     0
 10
144.734
 20
61.6299
 30
0.0
 11
144.734
 21
60.6294
 31
0.0
  0
LINE
  8
0
 62
     0
 10
144.734
 20
60.6294
 30
0.0
 11
143.933
 21
60.6294
 31
0.0
  0
LINE
  8
0
 62
     0
 10
143.933
 20
60.6294
 30
0.0
 11
143.933
 21
57.5303
 31
0.0
  0
LINE
  8
0
 62
     0
 10
143.933
 20
57.5303
 30
0.0
 11
144.734
 21
57.5303
 31
0.0
  0
LINE
  8
0
 62
     0
 10
144.734
 20
57.5303
 30
0.0
 11
144.734
 21
51.7303
 31
0.0
  0
LINE
  8
0
 62
     0
 10
144.734
 20
51.7303
 30
0.0
 11
143.933
 21
51.7303
 31
0.0
  0
LINE
  8
0
 62
     0
 10
143.933
 20
51.7303
 30
0.0
 11
143.933
 21
48.6297
 31
0.0
  0
LINE
  8
0
 62
     0
 10
143.933
 20
48.6297
 30
0.0
 11
144.734
 21
48.6297
 31
0.0
  0
LINE
  8
0
 62
     0
 10
144.734
 20
48.6297
 30
0.0
 11
144.734
 21
47.6306
 31
0.0
  0
LINE
  8
0
 62
     0
 10
144.734
 20
47.6306
 30
0.0
 11
158.733
 21
47.6306
 31
0.0
  0
LINE
  8
0
 62
     0
 10
158.733
 20
47.6306
 30
0.0
 11
158.733
 21
48.6297
 31
0.0
  0
LINE
  8
0
 62
     0
 10
158.733
 20
48.6297
 30
0.0
 11
159.534
 21
48.6297
 31
0.0
  0
LINE
  8
0
 62
     0
 10
159.534
 20
48.6297
 30
0.0
 11
159.534
 21
51.7303
 31
0.0
  0
LINE
  8
0
 62
     0
 10
159.534
 20
51.7303
 30
0.0
 11
158.733
 21
51.7303
 31
0.0
  0
LINE
  8
0
 62
     0
 10
158.733
 20
51.7303
 30
0.0
 11
158.733
 21
57.5303
 31
0.0
  0
LINE
  8
0
 62
     0
 10
158.733
 20
57.5303
 30
0.0
 11
159.534
 21
57.5303
 31
0.0
  0
LINE
  8
0
 62
     0
 10
159.534
 20
57.5303
 30
0.0
 11
159.534
 21
60.6294
 31
0.0
  0
LINE
  8
0
 62
     0
 10
159.534
 20
60.6294
 30
0.0
 11
158.733
 21
60.6294
 31
0.0
  0
LINE
  8
0
 62
     0
 10
158.733
 20
60.6294
 30
0.0
 11
158.733
 21
61.6299
 31
0.0
  0
LINE
  8
0
 62
     0
 10
158.733
 20
61.6299
 30
0.0
 11
144.734
 21
61.6299
 31
0.0
  0
LINE
  8
0
 62
     0
 10
124.729
 20
61.6299
 30
0.0
 11
124.729
 21
60.6294
 31
0.0
  0
LINE
  8
0
 62
     0
 10
124.729
 20
60.6294
 30
0.0
 11
123.931
 21
60.6294
 31
0.0
  0
LINE
  8
0
 62
     0
 10
123.931
 20
60.6294
 30
0.0
 11
123.931
 21
57.5303
 31
0.0
  0
LINE
  8
0
 62
     0
 10
123.931
 20
57.5303
 30
0.0
 11
124.729
 21
57.5303
 31
0.0
  0
LINE
  8
0
 62
     0
 10
124.729
 20
57.5303
 30
0.0
 11
124.729
 21
51.7303
 31
0.0
  0
LINE
  8
0
 62
     0
 10
124.729
 20
51.7303
 30
0.0
 11
123.931
 21
51.7303
 31
0.0
  0
LINE
  8
0
 62
     0
 10
123.931
 20
51.7303
 30
0.0
 11
123.931
 21
48.6297
 31
0.0
  0
LINE
  8
0
 62
     0
 10
123.931
 20
48.6297
 30
0.0
 11
124.729
 21
48.6297
 31
0.0
  0
LINE
  8
0
 62
     0
 10
124.729
 20
48.6297
 30
0.0
 11
124.729
 21
47.6306
 31
0.0
  0
LINE
  8
0
 62
     0
 10
124.729
 20
47.6306
 30
0.0
 11
138.73
 21
47.6306
 31
0.0
  0
LINE
  8
0
 62
     0
 10
138.73
 20
47.6306
 30
0.0
 11
138.73
 21
48.6297
 31
0.0
  0
LINE
  8
0
 62
     0
 10
138.73
 20
48.6297
 30
0.0
 11
139.531
 21
48.6297
 31
0.0
  0
LINE
  8
0
 62
     0
 10
139.531
 20
48.6297
 30
0.0
 11
139.531
 21
51.7303
 31
0.0
  0
LINE
  8
0
 62
     0
 10
139.531
 20
51.7303
 30
0.0
 11
138.73
 21
51.7303
 31
0.0
  0
LINE
  8
0
 62
     0
 10
138.73
 20
51.7303
 30
0.0
 11
138.73
 21
57.5303
 31
0.0
  0
LINE
  8
0
 62
     0
 10
138.73
 20
57.5303
 30
0.0
 11
139.531
 21
57.5303
 31
0.0
  0
LINE
  8
0
 62
     0
 10
139.531
 20
57.5303
 30
0.0
 11
139.531
 21
60.6294
 31
0.0
  0
LINE
  8
0
 62
     0
 10
139.531
 20
60.6294
 30
0.0
 11
138.73
 21
60.6294
 31
0.0
  0
LINE
  8
0
 62
     0
 10
138.73
 20
60.6294
 30
0.0
 11
138.73
 21
61.6299
 31
0.0
  0
LINE
  8
0
 62
     0
 10
138.73
 20
61.6299
 30
0.0
 11
124.729
 21
61.6299
 31
0.0
  0
LINE
  8
0
 62
     0
 10
278.504
 20
63.0633
 30
0.0
 11
278.617
 21
62.0695
 31
0.0
  0
LINE
  8
0
 62
     0
 10
278.617
 20
62.0695
 30
0.0
 11
277.822
 21
61.9788
 31
0.0
  0
LINE
  8
0
 62
     0
 10
277.822
 20
61.9788
 30
0.0
 11
278.173
 21
58.8987
 31
0.0
  0
LINE
  8
0
 62
     0
 10
278.173
 20
58.8987
 30
0.0
 11
278.969
 21
58.9897
 31
0.0
  0
LINE
  8
0
 62
     0
 10
278.969
 20
58.9897
 30
0.0
 11
279.626
 21
53.2268
 31
0.0
  0
LINE
  8
0
 62
     0
 10
279.626
 20
53.2268
 30
0.0
 11
278.831
 21
53.1357
 31
0.0
  0
LINE
  8
0
 62
     0
 10
278.831
 20
53.1357
 30
0.0
 11
279.181
 21
50.056
 31
0.0
  0
LINE
  8
0
 62
     0
 10
279.181
 20
50.056
 30
0.0
 11
279.976
 21
50.1467
 31
0.0
  0
LINE
  8
0
 62
     0
 10
279.976
 20
50.1467
 30
0.0
 11
280.089
 21
49.1532
 31
0.0
  0
LINE
  8
0
 62
     0
 10
280.089
 20
49.1532
 30
0.0
 11
293.999
 21
50.7379
 31
0.0
  0
LINE
  8
0
 62
     0
 10
293.999
 20
50.7379
 30
0.0
 11
293.886
 21
51.7317
 31
0.0
  0
LINE
  8
0
 62
     0
 10
293.886
 20
51.7317
 30
0.0
 11
294.681
 21
51.8223
 31
0.0
  0
LINE
  8
0
 62
     0
 10
294.681
 20
51.8223
 30
0.0
 11
294.33
 21
54.9025
 31
0.0
  0
LINE
  8
0
 62
     0
 10
294.33
 20
54.9025
 30
0.0
 11
293.536
 21
54.8128
 31
0.0
  0
LINE
  8
0
 62
     0
 10
293.536
 20
54.8128
 30
0.0
 11
292.879
 21
60.5744
 31
0.0
  0
LINE
  8
0
 62
     0
 10
292.879
 20
60.5744
 30
0.0
 11
293.674
 21
60.6654
 31
0.0
  0
LINE
  8
0
 62
     0
 10
293.674
 20
60.6654
 30
0.0
 11
293.322
 21
63.7452
 31
0.0
  0
LINE
  8
0
 62
     0
 10
293.322
 20
63.7452
 30
0.0
 11
292.527
 21
63.6545
 31
0.0
  0
LINE
  8
0
 62
     0
 10
292.527
 20
63.6545
 30
0.0
 11
292.414
 21
64.6479
 31
0.0
  0
LINE
  8
0
 62
     0
 10
292.414
 20
64.6479
 30
0.0
 11
278.504
 21
63.0633
 31
0.0
  0
LINE
  8
0
 62
     0
 10
11.8001
 20
64.0898
 30
0.0
 11
11.005
 21
64.1809
 31
0.0
  0
LINE
  8
0
 62
     0
 10
11.005
 20
64.1809
 30
0.0
 11
10.6536
 21
61.1008
 31
0.0
  0
LINE
  8
0
 62
     0
 10
10.6536
 20
61.1008
 30
0.0
 11
11.4487
 21
61.0087
 31
0.0
  0
LINE
  8
0
 62
     0
 10
11.4487
 20
61.0087
 30
0.0
 11
10.7928
 21
55.2457
 31
0.0
  0
LINE
  8
0
 62
     0
 10
10.7928
 20
55.2457
 30
0.0
 11
9.99765
 21
55.3364
 31
0.0
  0
LINE
  8
0
 62
     0
 10
9.99765
 20
55.3364
 30
0.0
 11
9.64628
 21
52.2566
 31
0.0
  0
LINE
  8
0
 62
     0
 10
9.64628
 20
52.2566
 30
0.0
 11
10.4414
 21
52.1656
 31
0.0
  0
LINE
  8
0
 62
     0
 10
10.4414
 20
52.1656
 30
0.0
 11
10.3284
 21
51.1736
 31
0.0
  0
LINE
  8
0
 62
     0
 10
10.3284
 20
51.1736
 30
0.0
 11
24.2383
 21
49.5886
 31
0.0
  0
LINE
  8
0
 62
     0
 10
24.2383
 20
49.5886
 30
0.0
 11
24.3513
 21
50.5837
 31
0.0
  0
LINE
  8
0
 62
     0
 10
24.3513
 20
50.5837
 30
0.0
 11
25.1465
 21
50.4913
 31
0.0
  0
LINE
  8
0
 62
     0
 10
25.1465
 20
50.4913
 30
0.0
 11
25.4978
 21
53.5711
 31
0.0
  0
LINE
  8
0
 62
     0
 10
25.4978
 20
53.5711
 30
0.0
 11
24.7027
 21
53.6621
 31
0.0
  0
LINE
  8
0
 62
     0
 10
24.7027
 20
53.6621
 30
0.0
 11
25.3587
 21
59.4237
 31
0.0
  0
LINE
  8
0
 62
     0
 10
25.3587
 20
59.4237
 30
0.0
 11
26.1538
 21
59.334
 31
0.0
  0
LINE
  8
0
 62
     0
 10
26.1538
 20
59.334
 30
0.0
 11
26.5038
 21
62.4141
 31
0.0
  0
LINE
  8
0
 62
     0
 10
26.5038
 20
62.4141
 30
0.0
 11
25.7101
 21
62.5038
 31
0.0
  0
LINE
  8
0
 62
     0
 10
25.7101
 20
62.5038
 30
0.0
 11
25.8231
 21
63.4986
 31
0.0
  0
LINE
  8
0
 62
     0
 10
25.8231
 20
63.4986
 30
0.0
 11
11.9131
 21
65.0833
 31
0.0
  0
LINE
  8
0
 62
     0
 10
11.9131
 20
65.0833
 30
0.0
 11
11.8001
 21
64.0898
 31
0.0
  0
LINE
  8
0
 62
     0
 10
193.661
 20
67.637
 30
0.0
 11
193.886
 21
66.6627
 31
0.0
  0
LINE
  8
0
 62
     0
 10
193.886
 20
66.6627
 30
0.0
 11
193.106
 21
66.482
 31
0.0
  0
LINE
  8
0
 62
     0
 10
193.106
 20
66.482
 30
0.0
 11
193.804
 21
63.463
 31
0.0
  0
LINE
  8
0
 62
     0
 10
193.804
 20
63.463
 30
0.0
 11
194.583
 21
63.6418
 31
0.0
  0
LINE
  8
0
 62
     0
 10
194.583
 20
63.6418
 30
0.0
 11
195.888
 21
57.9907
 31
0.0
  0
LINE
  8
0
 62
     0
 10
195.888
 20
57.9907
 30
0.0
 11
195.108
 21
57.81
 31
0.0
  0
LINE
  8
0
 62
     0
 10
195.108
 20
57.81
 30
0.0
 11
195.807
 21
54.791
 31
0.0
  0
LINE
  8
0
 62
     0
 10
195.807
 20
54.791
 30
0.0
 11
196.585
 21
54.9698
 31
0.0
  0
LINE
  8
0
 62
     0
 10
196.585
 20
54.9698
 30
0.0
 11
196.81
 21
53.9958
 31
0.0
  0
LINE
  8
0
 62
     0
 10
196.81
 20
53.9958
 30
0.0
 11
210.451
 21
57.1458
 31
0.0
  0
LINE
  8
0
 62
     0
 10
210.451
 20
57.1458
 30
0.0
 11
210.227
 21
58.1187
 31
0.0
  0
LINE
  8
0
 62
     0
 10
210.227
 20
58.1187
 30
0.0
 11
211.007
 21
58.2993
 31
0.0
  0
LINE
  8
0
 62
     0
 10
211.007
 20
58.2993
 30
0.0
 11
210.309
 21
61.3198
 31
0.0
  0
LINE
  8
0
 62
     0
 10
210.309
 20
61.3198
 30
0.0
 11
209.529
 21
61.141
 31
0.0
  0
LINE
  8
0
 62
     0
 10
209.529
 20
61.141
 30
0.0
 11
208.224
 21
66.7907
 31
0.0
  0
LINE
  8
0
 62
     0
 10
208.224
 20
66.7907
 30
0.0
 11
209.004
 21
66.9713
 31
0.0
  0
LINE
  8
0
 62
     0
 10
209.004
 20
66.9713
 30
0.0
 11
208.307
 21
69.9918
 31
0.0
  0
LINE
  8
0
 62
     0
 10
208.307
 20
69.9918
 30
0.0
 11
207.527
 21
69.813
 31
0.0
  0
LINE
  8
0
 62
     0
 10
207.527
 20
69.813
 30
0.0
 11
207.302
 21
70.7856
 31
0.0
  0
LINE
  8
0
 62
     0
 10
207.302
 20
70.7856
 30
0.0
 11
193.661
 21
67.637
 31
0.0
  0
LINE
  8
0
 62
     0
 10
96.7246
 20
69.9975
 30
0.0
 11
95.946
 21
70.1767
 31
0.0
  0
LINE
  8
0
 62
     0
 10
95.946
 20
70.1767
 30
0.0
 11
95.2472
 21
67.1572
 31
0.0
  0
LINE
  8
0
 62
     0
 10
95.2472
 20
67.1572
 30
0.0
 11
96.0272
 21
66.9766
 31
0.0
  0
LINE
  8
0
 62
     0
 10
96.0272
 20
66.9766
 30
0.0
 11
94.7222
 21
61.3255
 31
0.0
  0
LINE
  8
0
 62
     0
 10
94.7222
 20
61.3255
 30
0.0
 11
93.9437
 21
61.5047
 31
0.0
  0
LINE
  8
0
 62
     0
 10
93.9437
 20
61.5047
 30
0.0
 11
93.2448
 21
58.4853
 31
0.0
  0
LINE
  8
0
 62
     0
 10
93.2448
 20
58.4853
 30
0.0
 11
94.0248
 21
58.3046
 31
0.0
  0
LINE
  8
0
 62
     0
 10
94.0248
 20
58.3046
 30
0.0
 11
93.8004
 21
57.3306
 31
0.0
  0
LINE
  8
0
 62
     0
 10
93.8004
 20
57.3306
 30
0.0
 11
107.442
 21
54.1817
 31
0.0
  0
LINE
  8
0
 62
     0
 10
107.442
 20
54.1817
 30
0.0
 11
107.666
 21
55.1547
 31
0.0
  0
LINE
  8
0
 62
     0
 10
107.666
 20
55.1547
 30
0.0
 11
108.446
 21
54.9755
 31
0.0
  0
LINE
  8
0
 62
     0
 10
108.446
 20
54.9755
 30
0.0
 11
109.143
 21
57.996
 31
0.0
  0
LINE
  8
0
 62
     0
 10
109.143
 20
57.996
 30
0.0
 11
108.363
 21
58.1766
 31
0.0
  0
LINE
  8
0
 62
     0
 10
108.363
 20
58.1766
 30
0.0
 11
109.668
 21
63.8267
 31
0.0
  0
LINE
  8
0
 62
     0
 10
109.668
 20
63.8267
 30
0.0
 11
110.448
 21
63.6475
 31
0.0
  0
LINE
  8
0
 62
     0
 10
110.448
 20
63.6475
 30
0.0
 11
111.146
 21
66.6679
 31
0.0
  0
LINE
  8
0
 62
     0
 10
111.146
 20
66.6679
 30
0.0
 11
110.367
 21
66.8486
 31
0.0
  0
LINE
  8
0
 62
     0
 10
110.367
 20
66.8486
 30
0.0
 11
110.59
 21
67.8215
 31
0.0
  0
LINE
  8
0
 62
     0
 10
110.59
 20
67.8215
 30
0.0
 11
96.949
 21
70.9718
 31
0.0
  0
LINE
  8
0
 62
     0
 10
96.949
 20
70.9718
 30
0.0
 11
96.7246
 21
69.9975
 31
0.0
  0
LINE
  8
0
 62
     0
 10
213.151
 20
72.136
 30
0.0
 11
213.377
 21
71.162
 31
0.0
  0
LINE
  8
0
 62
     0
 10
213.377
 20
71.162
 30
0.0
 11
212.597
 21
70.9828
 31
0.0
  0
LINE
  8
0
 62
     0
 10
212.597
 20
70.9828
 30
0.0
 11
213.294
 21
67.9609
 31
0.0
  0
LINE
  8
0
 62
     0
 10
213.294
 20
67.9609
 30
0.0
 11
214.074
 21
68.1411
 31
0.0
  0
LINE
  8
0
 62
     0
 10
214.074
 20
68.1411
 30
0.0
 11
215.379
 21
62.49
 31
0.0
  0
LINE
  8
0
 62
     0
 10
215.379
 20
62.49
 30
0.0
 11
214.599
 21
62.3108
 31
0.0
  0
LINE
  8
0
 62
     0
 10
214.599
 20
62.3108
 30
0.0
 11
215.296
 21
59.2889
 31
0.0
  0
LINE
  8
0
 62
     0
 10
215.296
 20
59.2889
 30
0.0
 11
216.075
 21
59.4692
 31
0.0
  0
LINE
  8
0
 62
     0
 10
216.075
 20
59.4692
 30
0.0
 11
216.301
 21
58.4951
 31
0.0
  0
LINE
  8
0
 62
     0
 10
216.301
 20
58.4951
 30
0.0
 11
229.941
 21
61.6437
 31
0.0
  0
LINE
  8
0
 62
     0
 10
229.941
 20
61.6437
 30
0.0
 11
229.716
 21
62.6195
 31
0.0
  0
LINE
  8
0
 62
     0
 10
229.716
 20
62.6195
 30
0.0
 11
230.496
 21
62.7987
 31
0.0
  0
LINE
  8
0
 62
     0
 10
230.496
 20
62.7987
 30
0.0
 11
229.799
 21
65.8192
 31
0.0
  0
LINE
  8
0
 62
     0
 10
229.799
 20
65.8192
 30
0.0
 11
229.019
 21
65.6389
 31
0.0
  0
LINE
  8
0
 62
     0
 10
229.019
 20
65.6389
 30
0.0
 11
227.714
 21
71.2914
 31
0.0
  0
LINE
  8
0
 62
     0
 10
227.714
 20
71.2914
 30
0.0
 11
228.494
 21
71.4707
 31
0.0
  0
LINE
  8
0
 62
     0
 10
228.494
 20
71.4707
 30
0.0
 11
227.797
 21
74.4911
 31
0.0
  0
LINE
  8
0
 62
     0
 10
227.797
 20
74.4911
 30
0.0
 11
227.018
 21
74.3109
 31
0.0
  0
LINE
  8
0
 62
     0
 10
227.018
 20
74.3109
 30
0.0
 11
226.792
 21
75.2863
 31
0.0
  0
LINE
  8
0
 62
     0
 10
226.792
 20
75.2863
 30
0.0
 11
213.151
 21
72.136
 31
0.0
  0
LINE
  8
0
 62
     0
 10
77.2351
 20
74.4968
 30
0.0
 11
76.4551
 21
74.6774
 31
0.0
  0
LINE
  8
0
 62
     0
 10
76.4551
 20
74.6774
 30
0.0
 11
75.759
 21
71.6566
 31
0.0
  0
LINE
  8
0
 62
     0
 10
75.759
 20
71.6566
 30
0.0
 11
76.5376
 21
71.476
 31
0.0
  0
LINE
  8
0
 62
     0
 10
76.5376
 20
71.476
 30
0.0
 11
75.2327
 21
65.8248
 31
0.0
  0
LINE
  8
0
 62
     0
 10
75.2327
 20
65.8248
 30
0.0
 11
74.4541
 21
66.0054
 31
0.0
  0
LINE
  8
0
 62
     0
 10
74.4541
 20
66.0054
 30
0.0
 11
73.7567
 21
62.9846
 31
0.0
  0
LINE
  8
0
 62
     0
 10
73.7567
 20
62.9846
 30
0.0
 11
74.5352
 21
62.804
 31
0.0
  0
LINE
  8
0
 62
     0
 10
74.5352
 20
62.804
 30
0.0
 11
74.3109
 21
61.83
 31
0.0
  0
LINE
  8
0
 62
     0
 10
74.3109
 20
61.83
 30
0.0
 11
87.9521
 21
58.6811
 31
0.0
  0
LINE
  8
0
 62
     0
 10
87.9521
 20
58.6811
 30
0.0
 11
88.1765
 21
59.6554
 31
0.0
  0
LINE
  8
0
 62
     0
 10
88.1765
 20
59.6554
 30
0.0
 11
88.9564
 21
59.4748
 31
0.0
  0
LINE
  8
0
 62
     0
 10
88.9564
 20
59.4748
 30
0.0
 11
89.6539
 21
62.4967
 31
0.0
  0
LINE
  8
0
 62
     0
 10
89.6539
 20
62.4967
 30
0.0
 11
88.8739
 21
62.6759
 31
0.0
  0
LINE
  8
0
 62
     0
 10
88.8739
 20
62.6759
 30
0.0
 11
90.1788
 21
68.3274
 31
0.0
  0
LINE
  8
0
 62
     0
 10
90.1788
 20
68.3274
 30
0.0
 11
90.9588
 21
68.1468
 31
0.0
  0
LINE
  8
0
 62
     0
 10
90.9588
 20
68.1468
 30
0.0
 11
91.6562
 21
71.1673
 31
0.0
  0
LINE
  8
0
 62
     0
 10
91.6562
 20
71.1673
 30
0.0
 11
90.8763
 21
71.3465
 31
0.0
  0
LINE
  8
0
 62
     0
 10
90.8763
 20
71.3465
 30
0.0
 11
91.102
 21
72.3223
 31
0.0
  0
LINE
  8
0
 62
     0
 10
91.102
 20
72.3223
 30
0.0
 11
77.4594
 21
75.4712
 31
0.0
  0
LINE
  8
0
 62
     0
 10
77.4594
 20
75.4712
 30
0.0
 11
77.2351
 21
74.4968
 31
0.0
  0
LINE
  8
0
 62
     0
 10
232.212
 20
78.4916
 30
0.0
 11
232.438
 21
77.5187
 31
0.0
  0
LINE
  8
0
 62
     0
 10
232.438
 20
77.5187
 30
0.0
 11
231.658
 21
77.3384
 31
0.0
  0
LINE
  8
0
 62
     0
 10
231.658
 20
77.3384
 30
0.0
 11
232.355
 21
74.3176
 31
0.0
  0
LINE
  8
0
 62
     0
 10
232.355
 20
74.3176
 30
0.0
 11
233.135
 21
74.4968
 31
0.0
  0
LINE
  8
0
 62
     0
 10
233.135
 20
74.4968
 30
0.0
 11
234.44
 21
68.8467
 31
0.0
  0
LINE
  8
0
 62
     0
 10
234.44
 20
68.8467
 30
0.0
 11
233.66
 21
68.6664
 31
0.0
  0
LINE
  8
0
 62
     0
 10
233.66
 20
68.6664
 30
0.0
 11
234.357
 21
65.6456
 31
0.0
  0
LINE
  8
0
 62
     0
 10
234.357
 20
65.6456
 30
0.0
 11
235.136
 21
65.8248
 31
0.0
  0
LINE
  8
0
 62
     0
 10
235.136
 20
65.8248
 30
0.0
 11
235.362
 21
64.8518
 31
0.0
  0
LINE
  8
0
 62
     0
 10
235.362
 20
64.8518
 30
0.0
 11
249.003
 21
68.0007
 31
0.0
  0
LINE
  8
0
 62
     0
 10
249.003
 20
68.0007
 30
0.0
 11
248.779
 21
68.9737
 31
0.0
  0
LINE
  8
0
 62
     0
 10
248.779
 20
68.9737
 30
0.0
 11
249.557
 21
69.154
 31
0.0
  0
LINE
  8
0
 62
     0
 10
249.557
 20
69.154
 30
0.0
 11
248.86
 21
72.1748
 31
0.0
  0
LINE
  8
0
 62
     0
 10
248.86
 20
72.1748
 30
0.0
 11
248.08
 21
71.9956
 31
0.0
  0
LINE
  8
0
 62
     0
 10
248.08
 20
71.9956
 30
0.0
 11
246.776
 21
77.6457
 31
0.0
  0
LINE
  8
0
 62
     0
 10
246.776
 20
77.6457
 30
0.0
 11
247.555
 21
77.826
 31
0.0
  0
LINE
  8
0
 62
     0
 10
247.555
 20
77.826
 30
0.0
 11
246.859
 21
80.8468
 31
0.0
  0
LINE
  8
0
 62
     0
 10
246.859
 20
80.8468
 30
0.0
 11
246.079
 21
80.6676
 31
0.0
  0
LINE
  8
0
 62
     0
 10
246.079
 20
80.6676
 30
0.0
 11
245.853
 21
81.6405
 31
0.0
  0
LINE
  8
0
 62
     0
 10
245.853
 20
81.6405
 30
0.0
 11
232.212
 21
78.4916
 31
0.0
  0
LINE
  8
0
 62
     0
 10
58.1738
 20
80.8535
 30
0.0
 11
57.3938
 21
81.0327
 31
0.0
  0
LINE
  8
0
 62
     0
 10
57.3938
 20
81.0327
 30
0.0
 11
56.6967
 21
78.0122
 31
0.0
  0
LINE
  8
0
 62
     0
 10
56.6967
 20
78.0122
 30
0.0
 11
57.4767
 21
77.8316
 31
0.0
  0
LINE
  8
0
 62
     0
 10
57.4767
 20
77.8316
 30
0.0
 11
56.1717
 21
72.1815
 31
0.0
  0
LINE
  8
0
 62
     0
 10
56.1717
 20
72.1815
 30
0.0
 11
55.3932
 21
72.3607
 31
0.0
  0
LINE
  8
0
 62
     0
 10
55.3932
 20
72.3607
 30
0.0
 11
54.6943
 21
69.3402
 31
0.0
  0
LINE
  8
0
 62
     0
 10
54.6943
 20
69.3402
 30
0.0
 11
55.4743
 21
69.1596
 31
0.0
  0
LINE
  8
0
 62
     0
 10
55.4743
 20
69.1596
 30
0.0
 11
55.2496
 21
68.1867
 31
0.0
  0
LINE
  8
0
 62
     0
 10
55.2496
 20
68.1867
 30
0.0
 11
68.8908
 21
65.0363
 31
0.0
  0
LINE
  8
0
 62
     0
 10
68.8908
 20
65.0363
 30
0.0
 11
69.1155
 21
66.0107
 31
0.0
  0
LINE
  8
0
 62
     0
 10
69.1155
 20
66.0107
 30
0.0
 11
69.8941
 21
65.8315
 31
0.0
  0
LINE
  8
0
 62
     0
 10
69.8941
 20
65.8315
 30
0.0
 11
70.5926
 21
68.8509
 31
0.0
  0
LINE
  8
0
 62
     0
 10
70.5926
 20
68.8509
 30
0.0
 11
69.813
 21
69.0316
 31
0.0
  0
LINE
  8
0
 62
     0
 10
69.813
 20
69.0316
 30
0.0
 11
71.1179
 21
74.6827
 31
0.0
  0
LINE
  8
0
 62
     0
 10
71.1179
 20
74.6827
 30
0.0
 11
71.8979
 21
74.5035
 31
0.0
  0
LINE
  8
0
 62
     0
 10
71.8979
 20
74.5035
 30
0.0
 11
72.595
 21
77.5229
 31
0.0
  0
LINE
  8
0
 62
     0
 10
72.595
 20
77.5229
 30
0.0
 11
71.815
 21
77.7035
 31
0.0
  0
LINE
  8
0
 62
     0
 10
71.815
 20
77.7035
 30
0.0
 11
72.0397
 21
78.6776
 31
0.0
  0
LINE
  8
0
 62
     0
 10
72.0397
 20
78.6776
 30
0.0
 11
58.3985
 21
81.8265
 31
0.0
  0
LINE
  8
0
 62
     0
 10
58.3985
 20
81.8265
 30
0.0
 11
58.1738
 21
80.8535
 31
0.0
  0
LINE
  8
0
 62
     0
 10
252.345
 20
80.2072
 30
0.0
 11
252.571
 21
79.2332
 31
0.0
  0
LINE
  8
0
 62
     0
 10
252.571
 20
79.2332
 30
0.0
 11
251.791
 21
79.0526
 31
0.0
  0
LINE
  8
0
 62
     0
 10
251.791
 20
79.0526
 30
0.0
 11
252.487
 21
76.0317
 31
0.0
  0
LINE
  8
0
 62
     0
 10
252.487
 20
76.0317
 30
0.0
 11
253.267
 21
76.2123
 31
0.0
  0
LINE
  8
0
 62
     0
 10
253.267
 20
76.2123
 30
0.0
 11
254.572
 21
70.5612
 31
0.0
  0
LINE
  8
0
 62
     0
 10
254.572
 20
70.5612
 30
0.0
 11
253.792
 21
70.3806
 31
0.0
  0
LINE
  8
0
 62
     0
 10
253.792
 20
70.3806
 30
0.0
 11
254.489
 21
67.3612
 31
0.0
  0
LINE
  8
0
 62
     0
 10
254.489
 20
67.3612
 30
0.0
 11
255.269
 21
67.5404
 31
0.0
  0
LINE
  8
0
 62
     0
 10
255.269
 20
67.5404
 30
0.0
 11
255.495
 21
66.566
 31
0.0
  0
LINE
  8
0
 62
     0
 10
255.495
 20
66.566
 30
0.0
 11
269.135
 21
69.7149
 31
0.0
  0
LINE
  8
0
 62
     0
 10
269.135
 20
69.7149
 30
0.0
 11
268.911
 21
70.6907
 31
0.0
  0
LINE
  8
0
 62
     0
 10
268.911
 20
70.6907
 30
0.0
 11
269.69
 21
70.8699
 31
0.0
  0
LINE
  8
0
 62
     0
 10
269.69
 20
70.8699
 30
0.0
 11
268.993
 21
73.8904
 31
0.0
  0
LINE
  8
0
 62
     0
 10
268.993
 20
73.8904
 30
0.0
 11
268.213
 21
73.7097
 31
0.0
  0
LINE
  8
0
 62
     0
 10
268.213
 20
73.7097
 30
0.0
 11
266.908
 21
79.3627
 31
0.0
  0
LINE
  8
0
 62
     0
 10
266.908
 20
79.3627
 30
0.0
 11
267.688
 21
79.5419
 31
0.0
  0
LINE
  8
0
 62
     0
 10
267.688
 20
79.5419
 30
0.0
 11
266.991
 21
82.5623
 31
0.0
  0
LINE
  8
0
 62
     0
 10
266.991
 20
82.5623
 30
0.0
 11
266.212
 21
82.3817
 31
0.0
  0
LINE
  8
0
 62
     0
 10
266.212
 20
82.3817
 30
0.0
 11
265.986
 21
83.3575
 31
0.0
  0
LINE
  8
0
 62
     0
 10
265.986
 20
83.3575
 30
0.0
 11
252.345
 21
80.2072
 31
0.0
  0
LINE
  8
0
 62
     0
 10
38.0421
 20
82.568
 30
0.0
 11
37.2622
 21
82.7486
 31
0.0
  0
LINE
  8
0
 62
     0
 10
37.2622
 20
82.7486
 30
0.0
 11
36.5647
 21
79.7278
 31
0.0
  0
LINE
  8
0
 62
     0
 10
36.5647
 20
79.7278
 30
0.0
 11
37.3433
 21
79.5472
 31
0.0
  0
LINE
  8
0
 62
     0
 10
37.3433
 20
79.5472
 30
0.0
 11
36.0384
 21
73.896
 31
0.0
  0
LINE
  8
0
 62
     0
 10
36.0384
 20
73.896
 30
0.0
 11
35.2599
 21
74.0763
 31
0.0
  0
LINE
  8
0
 62
     0
 10
35.2599
 20
74.0763
 30
0.0
 11
34.5626
 21
71.0558
 31
0.0
  0
LINE
  8
0
 62
     0
 10
34.5626
 20
71.0558
 30
0.0
 11
35.3413
 21
70.8752
 31
0.0
  0
LINE
  8
0
 62
     0
 10
35.3413
 20
70.8752
 30
0.0
 11
35.1166
 21
69.9012
 31
0.0
  0
LINE
  8
0
 62
     0
 10
35.1166
 20
69.9012
 30
0.0
 11
48.7578
 21
66.7523
 31
0.0
  0
LINE
  8
0
 62
     0
 10
48.7578
 20
66.7523
 30
0.0
 11
48.9825
 21
67.7263
 31
0.0
  0
LINE
  8
0
 62
     0
 10
48.9825
 20
67.7263
 30
0.0
 11
49.7625
 21
67.546
 31
0.0
  0
LINE
  8
0
 62
     0
 10
49.7625
 20
67.546
 30
0.0
 11
50.4596
 21
70.5665
 31
0.0
  0
LINE
  8
0
 62
     0
 10
50.4596
 20
70.5665
 30
0.0
 11
49.681
 21
70.7471
 31
0.0
  0
LINE
  8
0
 62
     0
 10
49.681
 20
70.7471
 30
0.0
 11
50.9845
 21
76.3986
 31
0.0
  0
LINE
  8
0
 62
     0
 10
50.9845
 20
76.3986
 30
0.0
 11
51.7645
 21
76.218
 31
0.0
  0
LINE
  8
0
 62
     0
 10
51.7645
 20
76.218
 30
0.0
 11
52.4619
 21
79.2385
 31
0.0
  0
LINE
  8
0
 62
     0
 10
52.4619
 20
79.2385
 30
0.0
 11
51.6819
 21
79.4191
 31
0.0
  0
LINE
  8
0
 62
     0
 10
51.6819
 20
79.4191
 30
0.0
 11
51.9081
 21
80.3935
 31
0.0
  0
LINE
  8
0
 62
     0
 10
51.9081
 20
80.3935
 30
0.0
 11
38.2669
 21
83.5424
 31
0.0
  0
LINE
  8
0
 62
     0
 10
38.2669
 20
83.5424
 30
0.0
 11
38.0421
 21
82.568
 31
0.0
  0
LINE
  8
0
 62
     0
 10
164.926
 20
81.6321
 30
0.0
 11
164.926
 21
80.6319
 31
0.0
  0
LINE
  8
0
 62
     0
 10
164.926
 20
80.6319
 30
0.0
 11
164.127
 21
80.6319
 31
0.0
  0
LINE
  8
0
 62
     0
 10
164.127
 20
80.6319
 30
0.0
 11
164.127
 21
77.5324
 31
0.0
  0
LINE
  8
0
 62
     0
 10
164.127
 20
77.5324
 30
0.0
 11
164.926
 21
77.5324
 31
0.0
  0
LINE
  8
0
 62
     0
 10
164.926
 20
77.5324
 30
0.0
 11
164.926
 21
71.7324
 31
0.0
  0
LINE
  8
0
 62
     0
 10
164.926
 20
71.7324
 30
0.0
 11
164.127
 21
71.7324
 31
0.0
  0
LINE
  8
0
 62
     0
 10
164.127
 20
71.7324
 30
0.0
 11
164.127
 21
68.6319
 31
0.0
  0
LINE
  8
0
 62
     0
 10
164.127
 20
68.6319
 30
0.0
 11
164.926
 21
68.6319
 31
0.0
  0
LINE
  8
0
 62
     0
 10
164.926
 20
68.6319
 30
0.0
 11
164.926
 21
67.6328
 31
0.0
  0
LINE
  8
0
 62
     0
 10
164.926
 20
67.6328
 30
0.0
 11
178.926
 21
67.6328
 31
0.0
  0
LINE
  8
0
 62
     0
 10
178.926
 20
67.6328
 30
0.0
 11
178.926
 21
68.6319
 31
0.0
  0
LINE
  8
0
 62
     0
 10
178.926
 20
68.6319
 30
0.0
 11
179.727
 21
68.6319
 31
0.0
  0
LINE
  8
0
 62
     0
 10
179.727
 20
68.6319
 30
0.0
 11
179.727
 21
71.7324
 31
0.0
  0
LINE
  8
0
 62
     0
 10
179.727
 20
71.7324
 30
0.0
 11
178.926
 21
71.7324
 31
0.0
  0
LINE
  8
0
 62
     0
 10
178.926
 20
71.7324
 30
0.0
 11
178.926
 21
77.5324
 31
0.0
  0
LINE
  8
0
 62
     0
 10
178.926
 20
77.5324
 30
0.0
 11
179.727
 21
77.5324
 31
0.0
  0
LINE
  8
0
 62
     0
 10
179.727
 20
77.5324
 30
0.0
 11
179.727
 21
80.6319
 31
0.0
  0
LINE
  8
0
 62
     0
 10
179.727
 20
80.6319
 30
0.0
 11
178.926
 21
80.6319
 31
0.0
  0
LINE
  8
0
 62
     0
 10
178.926
 20
80.6319
 30
0.0
 11
178.926
 21
81.6321
 31
0.0
  0
LINE
  8
0
 62
     0
 10
178.926
 20
81.6321
 30
0.0
 11
164.926
 21
81.6321
 31
0.0
  0
LINE
  8
0
 62
     0
 10
144.734
 20
81.6321
 30
0.0
 11
144.734
 21
80.6319
 31
0.0
  0
LINE
  8
0
 62
     0
 10
144.734
 20
80.6319
 30
0.0
 11
143.933
 21
80.6319
 31
0.0
  0
LINE
  8
0
 62
     0
 10
143.933
 20
80.6319
 30
0.0
 11
143.933
 21
77.5324
 31
0.0
  0
LINE
  8
0
 62
     0
 10
143.933
 20
77.5324
 30
0.0
 11
144.734
 21
77.5324
 31
0.0
  0
LINE
  8
0
 62
     0
 10
144.734
 20
77.5324
 30
0.0
 11
144.734
 21
71.7324
 31
0.0
  0
LINE
  8
0
 62
     0
 10
144.734
 20
71.7324
 30
0.0
 11
143.933
 21
71.7324
 31
0.0
  0
LINE
  8
0
 62
     0
 10
143.933
 20
71.7324
 30
0.0
 11
143.933
 21
68.6319
 31
0.0
  0
LINE
  8
0
 62
     0
 10
143.933
 20
68.6319
 30
0.0
 11
144.734
 21
68.6319
 31
0.0
  0
LINE
  8
0
 62
     0
 10
144.734
 20
68.6319
 30
0.0
 11
144.734
 21
67.6328
 31
0.0
  0
LINE
  8
0
 62
     0
 10
144.734
 20
67.6328
 30
0.0
 11
158.733
 21
67.6328
 31
0.0
  0
LINE
  8
0
 62
     0
 10
158.733
 20
67.6328
 30
0.0
 11
158.733
 21
68.6319
 31
0.0
  0
LINE
  8
0
 62
     0
 10
158.733
 20
68.6319
 30
0.0
 11
159.534
 21
68.6319
 31
0.0
  0
LINE
  8
0
 62
     0
 10
159.534
 20
68.6319
 30
0.0
 11
159.534
 21
71.7324
 31
0.0
  0
LINE
  8
0
 62
     0
 10
159.534
 20
71.7324
 30
0.0
 11
158.733
 21
71.7324
 31
0.0
  0
LINE
  8
0
 62
     0
 10
158.733
 20
71.7324
 30
0.0
 11
158.733
 21
77.5324
 31
0.0
  0
LINE
  8
0
 62
     0
 10
158.733
 20
77.5324
 30
0.0
 11
159.534
 21
77.5324
 31
0.0
  0
LINE
  8
0
 62
     0
 10
159.534
 20
77.5324
 30
0.0
 11
159.534
 21
80.6319
 31
0.0
  0
LINE
  8
0
 62
     0
 10
159.534
 20
80.6319
 30
0.0
 11
158.733
 21
80.6319
 31
0.0
  0
LINE
  8
0
 62
     0
 10
158.733
 20
80.6319
 30
0.0
 11
158.733
 21
81.6321
 31
0.0
  0
LINE
  8
0
 62
     0
 10
158.733
 20
81.6321
 30
0.0
 11
144.734
 21
81.6321
 31
0.0
  0
LINE
  8
0
 62
     0
 10
124.729
 20
81.6321
 30
0.0
 11
124.729
 21
80.6319
 31
0.0
  0
LINE
  8
0
 62
     0
 10
124.729
 20
80.6319
 30
0.0
 11
123.931
 21
80.6319
 31
0.0
  0
LINE
  8
0
 62
     0
 10
123.931
 20
80.6319
 30
0.0
 11
123.931
 21
77.5324
 31
0.0
  0
LINE
  8
0
 62
     0
 10
123.931
 20
77.5324
 30
0.0
 11
124.729
 21
77.5324
 31
0.0
  0
LINE
  8
0
 62
     0
 10
124.729
 20
77.5324
 30
0.0
 11
124.729
 21
71.7324
 31
0.0
  0
LINE
  8
0
 62
     0
 10
124.729
 20
71.7324
 30
0.0
 11
123.931
 21
71.7324
 31
0.0
  0
LINE
  8
0
 62
     0
 10
123.931
 20
71.7324
 30
0.0
 11
123.931
 21
68.6319
 31
0.0
  0
LINE
  8
0
 62
     0
 10
123.931
 20
68.6319
 30
0.0
 11
124.729
 21
68.6319
 31
0.0
  0
LINE
  8
0
 62
     0
 10
124.729
 20
68.6319
 30
0.0
 11
124.729
 21
67.6328
 31
0.0
  0
LINE
  8
0
 62
     0
 10
124.729
 20
67.6328
 30
0.0
 11
138.73
 21
67.6328
 31
0.0
  0
LINE
  8
0
 62
     0
 10
138.73
 20
67.6328
 30
0.0
 11
138.73
 21
68.6319
 31
0.0
  0
LINE
  8
0
 62
     0
 10
138.73
 20
68.6319
 30
0.0
 11
139.531
 21
68.6319
 31
0.0
  0
LINE
  8
0
 62
     0
 10
139.531
 20
68.6319
 30
0.0
 11
139.531
 21
71.7324
 31
0.0
  0
LINE
  8
0
 62
     0
 10
139.531
 20
71.7324
 30
0.0
 11
138.73
 21
71.7324
 31
0.0
  0
LINE
  8
0
 62
     0
 10
138.73
 20
71.7324
 30
0.0
 11
138.73
 21
77.5324
 31
0.0
  0
LINE
  8
0
 62
     0
 10
138.73
 20
77.5324
 30
0.0
 11
139.531
 21
77.5324
 31
0.0
  0
LINE
  8
0
 62
     0
 10
139.531
 20
77.5324
 30
0.0
 11
139.531
 21
80.6319
 31
0.0
  0
LINE
  8
0
 62
     0
 10
139.531
 20
80.6319
 30
0.0
 11
138.73
 21
80.6319
 31
0.0
  0
LINE
  8
0
 62
     0
 10
138.73
 20
80.6319
 30
0.0
 11
138.73
 21
81.6321
 31
0.0
  0
LINE
  8
0
 62
     0
 10
138.73
 20
81.6321
 30
0.0
 11
124.729
 21
81.6321
 31
0.0
  0
LINE
  8
0
 62
     0
 10
276.167
 20
82.7373
 30
0.0
 11
276.28
 21
81.7439
 31
0.0
  0
LINE
  8
0
 62
     0
 10
276.28
 20
81.7439
 30
0.0
 11
275.485
 21
81.6529
 31
0.0
  0
LINE
  8
0
 62
     0
 10
275.485
 20
81.6529
 30
0.0
 11
275.836
 21
78.5731
 31
0.0
  0
LINE
  8
0
 62
     0
 10
275.836
 20
78.5731
 30
0.0
 11
276.631
 21
78.6624
 31
0.0
  0
LINE
  8
0
 62
     0
 10
276.631
 20
78.6624
 30
0.0
 11
277.288
 21
72.9008
 31
0.0
  0
LINE
  8
0
 62
     0
 10
277.288
 20
72.9008
 30
0.0
 11
276.492
 21
72.8102
 31
0.0
  0
LINE
  8
0
 62
     0
 10
276.492
 20
72.8102
 30
0.0
 11
276.844
 21
69.7301
 31
0.0
  0
LINE
  8
0
 62
     0
 10
276.844
 20
69.7301
 30
0.0
 11
277.639
 21
69.8197
 31
0.0
  0
LINE
  8
0
 62
     0
 10
277.639
 20
69.8197
 30
0.0
 11
277.752
 21
68.8277
 31
0.0
  0
LINE
  8
0
 62
     0
 10
277.752
 20
68.8277
 30
0.0
 11
291.662
 21
70.4123
 31
0.0
  0
LINE
  8
0
 62
     0
 10
291.662
 20
70.4123
 30
0.0
 11
291.549
 21
71.4058
 31
0.0
  0
LINE
  8
0
 62
     0
 10
291.549
 20
71.4058
 30
0.0
 11
292.344
 21
71.4968
 31
0.0
  0
LINE
  8
0
 62
     0
 10
292.344
 20
71.4968
 30
0.0
 11
291.992
 21
74.5765
 31
0.0
  0
LINE
  8
0
 62
     0
 10
291.992
 20
74.5765
 30
0.0
 11
291.197
 21
74.4859
 31
0.0
  0
LINE
  8
0
 62
     0
 10
291.197
 20
74.4859
 30
0.0
 11
290.541
 21
80.2488
 31
0.0
  0
LINE
  8
0
 62
     0
 10
290.541
 20
80.2488
 30
0.0
 11
291.335
 21
80.3395
 31
0.0
  0
LINE
  8
0
 62
     0
 10
291.335
 20
80.3395
 30
0.0
 11
290.985
 21
83.4196
 31
0.0
  0
LINE
  8
0
 62
     0
 10
290.985
 20
83.4196
 30
0.0
 11
290.19
 21
83.3286
 31
0.0
  0
LINE
  8
0
 62
     0
 10
290.19
 20
83.3286
 30
0.0
 11
290.077
 21
84.322
 31
0.0
  0
LINE
  8
0
 62
     0
 10
290.077
 20
84.322
 30
0.0
 11
276.167
 21
82.7373
 31
0.0
  0
LINE
  8
0
 62
     0
 10
14.1152
 20
83.5738
 30
0.0
 11
13.3201
 21
83.6648
 31
0.0
  0
LINE
  8
0
 62
     0
 10
13.3201
 20
83.6648
 30
0.0
 11
12.9701
 21
80.5836
 31
0.0
  0
LINE
  8
0
 62
     0
 10
12.9701
 20
80.5836
 30
0.0
 11
13.7638
 21
80.494
 31
0.0
  0
LINE
  8
0
 62
     0
 10
13.7638
 20
80.494
 30
0.0
 11
13.1079
 21
74.731
 31
0.0
  0
LINE
  8
0
 62
     0
 10
13.1079
 20
74.731
 30
0.0
 11
12.3142
 21
74.822
 31
0.0
  0
LINE
  8
0
 62
     0
 10
12.3142
 20
74.822
 30
0.0
 11
11.9628
 21
71.7419
 31
0.0
  0
LINE
  8
0
 62
     0
 10
11.9628
 20
71.7419
 30
0.0
 11
12.7579
 21
71.6509
 31
0.0
  0
LINE
  8
0
 62
     0
 10
12.7579
 20
71.6509
 30
0.0
 11
12.6435
 21
70.6575
 31
0.0
  0
LINE
  8
0
 62
     0
 10
12.6435
 20
70.6575
 30
0.0
 11
26.5534
 21
69.0728
 31
0.0
  0
LINE
  8
0
 62
     0
 10
26.5534
 20
69.0728
 30
0.0
 11
26.6678
 21
70.0663
 31
0.0
  0
LINE
  8
0
 62
     0
 10
26.6678
 20
70.0663
 30
0.0
 11
27.4616
 21
69.9766
 31
0.0
  0
LINE
  8
0
 62
     0
 10
27.4616
 20
69.9766
 30
0.0
 11
27.8129
 21
73.0567
 31
0.0
  0
LINE
  8
0
 62
     0
 10
27.8129
 20
73.0567
 30
0.0
 11
27.0178
 21
73.1464
 31
0.0
  0
LINE
  8
0
 62
     0
 10
27.0178
 20
73.1464
 30
0.0
 11
27.6751
 21
78.9093
 31
0.0
  0
LINE
  8
0
 62
     0
 10
27.6751
 20
78.9093
 30
0.0
 11
28.4689
 21
78.8183
 31
0.0
  0
LINE
  8
0
 62
     0
 10
28.4689
 20
78.8183
 30
0.0
 11
28.8203
 21
81.8981
 31
0.0
  0
LINE
  8
0
 62
     0
 10
28.8203
 20
81.8981
 30
0.0
 11
28.0252
 21
81.9891
 31
0.0
  0
LINE
  8
0
 62
     0
 10
28.0252
 20
81.9891
 30
0.0
 11
28.1382
 21
82.9829
 31
0.0
  0
LINE
  8
0
 62
     0
 10
28.1382
 20
82.9829
 30
0.0
 11
14.2282
 21
84.5675
 31
0.0
  0
LINE
  8
0
 62
     0
 10
14.2282
 20
84.5675
 30
0.0
 11
14.1152
 21
83.5738
 31
0.0
  0
LINE
  8
0
 62
     0
 10
189.162
 20
87.1266
 30
0.0
 11
189.387
 21
86.1522
 31
0.0
  0
LINE
  8
0
 62
     0
 10
189.387
 20
86.1522
 30
0.0
 11
188.608
 21
85.9716
 31
0.0
  0
LINE
  8
0
 62
     0
 10
188.608
 20
85.9716
 30
0.0
 11
189.304
 21
82.9525
 31
0.0
  0
LINE
  8
0
 62
     0
 10
189.304
 20
82.9525
 30
0.0
 11
190.084
 21
83.1314
 31
0.0
  0
LINE
  8
0
 62
     0
 10
190.084
 20
83.1314
 30
0.0
 11
191.389
 21
77.4802
 31
0.0
  0
LINE
  8
0
 62
     0
 10
191.389
 20
77.4802
 30
0.0
 11
190.609
 21
77.2996
 31
0.0
  0
LINE
  8
0
 62
     0
 10
190.609
 20
77.2996
 30
0.0
 11
191.306
 21
74.2805
 31
0.0
  0
LINE
  8
0
 62
     0
 10
191.306
 20
74.2805
 30
0.0
 11
192.086
 21
74.4594
 31
0.0
  0
LINE
  8
0
 62
     0
 10
192.086
 20
74.4594
 30
0.0
 11
192.312
 21
73.4854
 31
0.0
  0
LINE
  8
0
 62
     0
 10
192.312
 20
73.4854
 30
0.0
 11
205.952
 21
76.6353
 31
0.0
  0
LINE
  8
0
 62
     0
 10
205.952
 20
76.6353
 30
0.0
 11
205.727
 21
77.6097
 31
0.0
  0
LINE
  8
0
 62
     0
 10
205.727
 20
77.6097
 30
0.0
 11
206.506
 21
77.7889
 31
0.0
  0
LINE
  8
0
 62
     0
 10
206.506
 20
77.7889
 30
0.0
 11
205.81
 21
80.8094
 31
0.0
  0
LINE
  8
0
 62
     0
 10
205.81
 20
80.8094
 30
0.0
 11
205.03
 21
80.6305
 31
0.0
  0
LINE
  8
0
 62
     0
 10
205.03
 20
80.6305
 30
0.0
 11
203.725
 21
86.2817
 31
0.0
  0
LINE
  8
0
 62
     0
 10
203.725
 20
86.2817
 30
0.0
 11
204.505
 21
86.4609
 31
0.0
  0
LINE
  8
0
 62
     0
 10
204.505
 20
86.4609
 30
0.0
 11
203.808
 21
89.4814
 31
0.0
  0
LINE
  8
0
 62
     0
 10
203.808
 20
89.4814
 30
0.0
 11
203.028
 21
89.3011
 31
0.0
  0
LINE
  8
0
 62
     0
 10
203.028
 20
89.3011
 30
0.0
 11
202.803
 21
90.2765
 31
0.0
  0
LINE
  8
0
 62
     0
 10
202.803
 20
90.2765
 30
0.0
 11
189.162
 21
87.1266
 31
0.0
  0
LINE
  8
0
 62
     0
 10
101.225
 20
89.487
 30
0.0
 11
100.444
 21
89.6676
 31
0.0
  0
LINE
  8
0
 62
     0
 10
100.444
 20
89.6676
 30
0.0
 11
99.7479
 21
86.6454
 31
0.0
  0
LINE
  8
0
 62
     0
 10
99.7479
 20
86.6454
 30
0.0
 11
100.528
 21
86.4665
 31
0.0
  0
LINE
  8
0
 62
     0
 10
100.528
 20
86.4665
 30
0.0
 11
99.223
 21
80.815
 31
0.0
  0
LINE
  8
0
 62
     0
 10
99.223
 20
80.815
 30
0.0
 11
98.443
 21
80.9957
 31
0.0
  0
LINE
  8
0
 62
     0
 10
98.443
 20
80.9957
 30
0.0
 11
97.7456
 21
77.9748
 31
0.0
  0
LINE
  8
0
 62
     0
 10
97.7456
 20
77.9748
 30
0.0
 11
98.5255
 21
77.7956
 31
0.0
  0
LINE
  8
0
 62
     0
 10
98.5255
 20
77.7956
 30
0.0
 11
98.3008
 21
76.8202
 31
0.0
  0
LINE
  8
0
 62
     0
 10
98.3008
 20
76.8202
 30
0.0
 11
111.942
 21
73.6713
 31
0.0
  0
LINE
  8
0
 62
     0
 10
111.942
 20
73.6713
 30
0.0
 11
112.167
 21
74.6457
 31
0.0
  0
LINE
  8
0
 62
     0
 10
112.167
 20
74.6457
 30
0.0
 11
112.945
 21
74.465
 31
0.0
  0
LINE
  8
0
 62
     0
 10
112.945
 20
74.465
 30
0.0
 11
113.644
 21
77.4859
 31
0.0
  0
LINE
  8
0
 62
     0
 10
113.644
 20
77.4859
 30
0.0
 11
112.864
 21
77.6661
 31
0.0
  0
LINE
  8
0
 62
     0
 10
112.864
 20
77.6661
 30
0.0
 11
114.169
 21
83.3176
 31
0.0
  0
LINE
  8
0
 62
     0
 10
114.169
 20
83.3176
 30
0.0
 11
114.948
 21
83.137
 31
0.0
  0
LINE
  8
0
 62
     0
 10
114.948
 20
83.137
 30
0.0
 11
115.645
 21
86.1579
 31
0.0
  0
LINE
  8
0
 62
     0
 10
115.645
 20
86.1579
 30
0.0
 11
114.865
 21
86.3381
 31
0.0
  0
LINE
  8
0
 62
     0
 10
114.865
 20
86.3381
 30
0.0
 11
115.091
 21
87.3125
 31
0.0
  0
LINE
  8
0
 62
     0
 10
115.091
 20
87.3125
 30
0.0
 11
101.45
 21
90.4614
 31
0.0
  0
LINE
  8
0
 62
     0
 10
101.45
 20
90.4614
 30
0.0
 11
101.225
 21
89.487
 31
0.0
  0
LINE
  8
0
 62
     0
 10
208.651
 20
91.6259
 30
0.0
 11
208.876
 21
90.653
 31
0.0
  0
LINE
  8
0
 62
     0
 10
208.876
 20
90.653
 30
0.0
 11
208.098
 21
90.4723
 31
0.0
  0
LINE
  8
0
 62
     0
 10
208.098
 20
90.4723
 30
0.0
 11
208.795
 21
87.4518
 31
0.0
  0
LINE
  8
0
 62
     0
 10
208.795
 20
87.4518
 30
0.0
 11
209.573
 21
87.6307
 31
0.0
  0
LINE
  8
0
 62
     0
 10
209.573
 20
87.6307
 30
0.0
 11
210.879
 21
81.9796
 31
0.0
  0
LINE
  8
0
 62
     0
 10
210.879
 20
81.9796
 30
0.0
 11
210.1
 21
81.8003
 31
0.0
  0
LINE
  8
0
 62
     0
 10
210.1
 20
81.8003
 30
0.0
 11
210.797
 21
78.7799
 31
0.0
  0
LINE
  8
0
 62
     0
 10
210.797
 20
78.7799
 30
0.0
 11
211.576
 21
78.9587
 31
0.0
  0
LINE
  8
0
 62
     0
 10
211.576
 20
78.9587
 30
0.0
 11
211.8
 21
77.9847
 31
0.0
  0
LINE
  8
0
 62
     0
 10
211.8
 20
77.9847
 30
0.0
 11
225.443
 21
81.1347
 31
0.0
  0
LINE
  8
0
 62
     0
 10
225.443
 20
81.1347
 30
0.0
 11
225.217
 21
82.109
 31
0.0
  0
LINE
  8
0
 62
     0
 10
225.217
 20
82.109
 30
0.0
 11
225.997
 21
82.2896
 31
0.0
  0
LINE
  8
0
 62
     0
 10
225.997
 20
82.2896
 30
0.0
 11
225.3
 21
85.3087
 31
0.0
  0
LINE
  8
0
 62
     0
 10
225.3
 20
85.3087
 30
0.0
 11
224.52
 21
85.1299
 31
0.0
  0
LINE
  8
0
 62
     0
 10
224.52
 20
85.1299
 30
0.0
 11
223.216
 21
90.7796
 31
0.0
  0
LINE
  8
0
 62
     0
 10
223.216
 20
90.7796
 30
0.0
 11
223.994
 21
90.9602
 31
0.0
  0
LINE
  8
0
 62
     0
 10
223.994
 20
90.9602
 30
0.0
 11
223.297
 21
93.9807
 31
0.0
  0
LINE
  8
0
 62
     0
 10
223.297
 20
93.9807
 30
0.0
 11
222.517
 21
93.8018
 31
0.0
  0
LINE
  8
0
 62
     0
 10
222.517
 20
93.8018
 30
0.0
 11
222.293
 21
94.7745
 31
0.0
  0
LINE
  8
0
 62
     0
 10
222.293
 20
94.7745
 30
0.0
 11
208.651
 21
91.6259
 31
0.0
  0
LINE
  8
0
 62
     0
 10
81.7344
 20
93.9878
 30
0.0
 11
80.9554
 21
94.167
 31
0.0
  0
LINE
  8
0
 62
     0
 10
80.9554
 20
94.167
 30
0.0
 11
80.2569
 21
91.1461
 31
0.0
  0
LINE
  8
0
 62
     0
 10
80.2569
 20
91.1461
 30
0.0
 11
81.0369
 21
90.9655
 31
0.0
  0
LINE
  8
0
 62
     0
 10
81.0369
 20
90.9655
 30
0.0
 11
79.732
 21
85.3158
 31
0.0
  0
LINE
  8
0
 62
     0
 10
79.732
 20
85.3158
 30
0.0
 11
78.9534
 21
85.495
 31
0.0
  0
LINE
  8
0
 62
     0
 10
78.9534
 20
85.495
 30
0.0
 11
78.256
 21
82.4742
 31
0.0
  0
LINE
  8
0
 62
     0
 10
78.256
 20
82.4742
 30
0.0
 11
79.036
 21
82.2935
 31
0.0
  0
LINE
  8
0
 62
     0
 10
79.036
 20
82.2935
 30
0.0
 11
78.8098
 21
81.3209
 31
0.0
  0
LINE
  8
0
 62
     0
 10
78.8098
 20
81.3209
 30
0.0
 11
92.4511
 21
78.1706
 31
0.0
  0
LINE
  8
0
 62
     0
 10
92.4511
 20
78.1706
 30
0.0
 11
92.6758
 21
79.145
 31
0.0
  0
LINE
  8
0
 62
     0
 10
92.6758
 20
79.145
 30
0.0
 11
93.4558
 21
78.9658
 31
0.0
  0
LINE
  8
0
 62
     0
 10
93.4558
 20
78.9658
 30
0.0
 11
94.1532
 21
81.9848
 31
0.0
  0
LINE
  8
0
 62
     0
 10
94.1532
 20
81.9848
 30
0.0
 11
93.3732
 21
82.1655
 31
0.0
  0
LINE
  8
0
 62
     0
 10
93.3732
 20
82.1655
 30
0.0
 11
94.6781
 21
87.817
 31
0.0
  0
LINE
  8
0
 62
     0
 10
94.6781
 20
87.817
 30
0.0
 11
95.4581
 21
87.6378
 31
0.0
  0
LINE
  8
0
 62
     0
 10
95.4581
 20
87.6378
 30
0.0
 11
96.1552
 21
90.6568
 31
0.0
  0
LINE
  8
0
 62
     0
 10
96.1552
 20
90.6568
 30
0.0
 11
95.3752
 21
90.8375
 31
0.0
  0
LINE
  8
0
 62
     0
 10
95.3752
 20
90.8375
 30
0.0
 11
95.6
 21
91.8118
 31
0.0
  0
LINE
  8
0
 62
     0
 10
95.6
 20
91.8118
 30
0.0
 11
81.9587
 21
94.9607
 31
0.0
  0
LINE
  8
0
 62
     0
 10
81.9587
 20
94.9607
 30
0.0
 11
81.7344
 21
93.9878
 31
0.0
  0
LINE
  8
0
 62
     0
 10
227.712
 20
97.9826
 30
0.0
 11
227.937
 21
97.0068
 31
0.0
  0
LINE
  8
0
 62
     0
 10
227.937
 20
97.0068
 30
0.0
 11
227.159
 21
96.828
 31
0.0
  0
LINE
  8
0
 62
     0
 10
227.159
 20
96.828
 30
0.0
 11
227.856
 21
93.8071
 31
0.0
  0
LINE
  8
0
 62
     0
 10
227.856
 20
93.8071
 30
0.0
 11
228.636
 21
93.9878
 31
0.0
  0
LINE
  8
0
 62
     0
 10
228.636
 20
93.9878
 30
0.0
 11
229.939
 21
88.3363
 31
0.0
  0
LINE
  8
0
 62
     0
 10
229.939
 20
88.3363
 30
0.0
 11
229.161
 21
88.156
 31
0.0
  0
LINE
  8
0
 62
     0
 10
229.161
 20
88.156
 30
0.0
 11
229.858
 21
85.1352
 31
0.0
  0
LINE
  8
0
 62
     0
 10
229.858
 20
85.1352
 30
0.0
 11
230.638
 21
85.3158
 31
0.0
  0
LINE
  8
0
 62
     0
 10
230.638
 20
85.3158
 30
0.0
 11
230.863
 21
84.3414
 31
0.0
  0
LINE
  8
0
 62
     0
 10
230.863
 20
84.3414
 30
0.0
 11
244.504
 21
87.4903
 31
0.0
  0
LINE
  8
0
 62
     0
 10
244.504
 20
87.4903
 30
0.0
 11
244.278
 21
88.4647
 31
0.0
  0
LINE
  8
0
 62
     0
 10
244.278
 20
88.4647
 30
0.0
 11
245.058
 21
88.6435
 31
0.0
  0
LINE
  8
0
 62
     0
 10
245.058
 20
88.6435
 30
0.0
 11
244.361
 21
91.6658
 31
0.0
  0
LINE
  8
0
 62
     0
 10
244.361
 20
91.6658
 30
0.0
 11
243.582
 21
91.4852
 31
0.0
  0
LINE
  8
0
 62
     0
 10
243.582
 20
91.4852
 30
0.0
 11
242.277
 21
97.1367
 31
0.0
  0
LINE
  8
0
 62
     0
 10
242.277
 20
97.1367
 30
0.0
 11
243.056
 21
97.3155
 31
0.0
  0
LINE
  8
0
 62
     0
 10
243.056
 20
97.3155
 30
0.0
 11
242.358
 21
100.338
 31
0.0
  0
LINE
  8
0
 62
     0
 10
242.358
 20
100.338
 30
0.0
 11
241.58
 21
100.157
 31
0.0
  0
LINE
  8
0
 62
     0
 10
241.58
 20
100.157
 30
0.0
 11
241.355
 21
101.132
 31
0.0
  0
LINE
  8
0
 62
     0
 10
241.355
 20
101.132
 30
0.0
 11
227.712
 21
97.9826
 31
0.0
  0
LINE
  8
0
 62
     0
 10
62.6731
 20
100.342
 30
0.0
 11
61.8931
 21
100.522
 31
0.0
  0
LINE
  8
0
 62
     0
 10
61.8931
 20
100.522
 30
0.0
 11
61.196
 21
97.5018
 31
0.0
  0
LINE
  8
0
 62
     0
 10
61.196
 20
97.5018
 30
0.0
 11
61.976
 21
97.3226
 31
0.0
  0
LINE
  8
0
 62
     0
 10
61.976
 20
97.3226
 30
0.0
 11
60.6707
 21
91.67
 31
0.0
  0
LINE
  8
0
 62
     0
 10
60.6707
 20
91.67
 30
0.0
 11
59.8911
 21
91.8503
 31
0.0
  0
LINE
  8
0
 62
     0
 10
59.8911
 20
91.8503
 30
0.0
 11
59.1951
 21
88.8298
 31
0.0
  0
LINE
  8
0
 62
     0
 10
59.1951
 20
88.8298
 30
0.0
 11
59.9736
 21
88.6506
 31
0.0
  0
LINE
  8
0
 62
     0
 10
59.9736
 20
88.6506
 30
0.0
 11
59.7489
 21
87.6762
 31
0.0
  0
LINE
  8
0
 62
     0
 10
59.7489
 20
87.6762
 30
0.0
 11
73.3901
 21
84.5263
 31
0.0
  0
LINE
  8
0
 62
     0
 10
73.3901
 20
84.5263
 30
0.0
 11
73.6163
 21
85.5017
 31
0.0
  0
LINE
  8
0
 62
     0
 10
73.6163
 20
85.5017
 30
0.0
 11
74.3948
 21
85.3211
 31
0.0
  0
LINE
  8
0
 62
     0
 10
74.3948
 20
85.3211
 30
0.0
 11
75.0919
 21
88.3405
 31
0.0
  0
LINE
  8
0
 62
     0
 10
75.0919
 20
88.3405
 30
0.0
 11
74.3119
 21
88.5211
 31
0.0
  0
LINE
  8
0
 62
     0
 10
74.3119
 20
88.5211
 30
0.0
 11
75.6172
 21
94.1723
 31
0.0
  0
LINE
  8
0
 62
     0
 10
75.6172
 20
94.1723
 30
0.0
 11
76.3972
 21
93.9934
 31
0.0
  0
LINE
  8
0
 62
     0
 10
76.3972
 20
93.9934
 30
0.0
 11
77.0929
 21
97.0125
 31
0.0
  0
LINE
  8
0
 62
     0
 10
77.0929
 20
97.0125
 30
0.0
 11
76.3143
 21
97.1931
 31
0.0
  0
LINE
  8
0
 62
     0
 10
76.3143
 20
97.1931
 30
0.0
 11
76.539
 21
98.1675
 31
0.0
  0
LINE
  8
0
 62
     0
 10
76.539
 20
98.1675
 30
0.0
 11
62.8992
 21
101.317
 31
0.0
  0
LINE
  8
0
 62
     0
 10
62.8992
 20
101.317
 30
0.0
 11
62.6731
 21
100.342
 31
0.0
  0
LINE
  8
0
 62
     0
 10
247.846
 20
99.6968
 30
0.0
 11
248.07
 21
98.7227
 31
0.0
  0
LINE
  8
0
 62
     0
 10
248.07
 20
98.7227
 30
0.0
 11
247.292
 21
98.5435
 31
0.0
  0
LINE
  8
0
 62
     0
 10
247.292
 20
98.5435
 30
0.0
 11
247.989
 21
95.5227
 31
0.0
  0
LINE
  8
0
 62
     0
 10
247.989
 20
95.5227
 30
0.0
 11
248.768
 21
95.7019
 31
0.0
  0
LINE
  8
0
 62
     0
 10
248.768
 20
95.7019
 30
0.0
 11
250.073
 21
90.0508
 31
0.0
  0
LINE
  8
0
 62
     0
 10
250.073
 20
90.0508
 30
0.0
 11
249.294
 21
89.8715
 31
0.0
  0
LINE
  8
0
 62
     0
 10
249.294
 20
89.8715
 30
0.0
 11
249.99
 21
86.8507
 31
0.0
  0
LINE
  8
0
 62
     0
 10
249.99
 20
86.8507
 30
0.0
 11
250.77
 21
87.0299
 31
0.0
  0
LINE
  8
0
 62
     0
 10
250.77
 20
87.0299
 30
0.0
 11
250.994
 21
86.0559
 31
0.0
  0
LINE
  8
0
 62
     0
 10
250.994
 20
86.0559
 30
0.0
 11
264.637
 21
89.2044
 31
0.0
  0
LINE
  8
0
 62
     0
 10
264.637
 20
89.2044
 30
0.0
 11
264.411
 21
90.1802
 31
0.0
  0
LINE
  8
0
 62
     0
 10
264.411
 20
90.1802
 30
0.0
 11
265.191
 21
90.3609
 31
0.0
  0
LINE
  8
0
 62
     0
 10
265.191
 20
90.3609
 30
0.0
 11
264.494
 21
93.3799
 31
0.0
  0
LINE
  8
0
 62
     0
 10
264.494
 20
93.3799
 30
0.0
 11
263.714
 21
93.2007
 31
0.0
  0
LINE
  8
0
 62
     0
 10
263.714
 20
93.2007
 30
0.0
 11
262.41
 21
98.8522
 31
0.0
  0
LINE
  8
0
 62
     0
 10
262.41
 20
98.8522
 30
0.0
 11
263.189
 21
99.0314
 31
0.0
  0
LINE
  8
0
 62
     0
 10
263.189
 20
99.0314
 30
0.0
 11
262.491
 21
102.052
 31
0.0
  0
LINE
  8
0
 62
     0
 10
262.491
 20
102.052
 30
0.0
 11
261.711
 21
101.873
 31
0.0
  0
LINE
  8
0
 62
     0
 10
261.711
 20
101.873
 30
0.0
 11
261.487
 21
102.846
 31
0.0
  0
LINE
  8
0
 62
     0
 10
261.487
 20
102.846
 30
0.0
 11
247.846
 21
99.6968
 31
0.0
  0
LINE
  8
0
 62
     0
 10
42.5401
 20
102.058
 30
0.0
 11
41.7615
 21
102.238
 31
0.0
  0
LINE
  8
0
 62
     0
 10
41.7615
 20
102.238
 30
0.0
 11
41.064
 21
99.2173
 31
0.0
  0
LINE
  8
0
 62
     0
 10
41.064
 20
99.2173
 30
0.0
 11
41.844
 21
99.0367
 31
0.0
  0
LINE
  8
0
 62
     0
 10
41.844
 20
99.0367
 30
0.0
 11
40.5391
 21
93.3856
 31
0.0
  0
LINE
  8
0
 62
     0
 10
40.5391
 20
93.3856
 30
0.0
 11
39.7591
 21
93.5662
 31
0.0
  0
LINE
  8
0
 62
     0
 10
39.7591
 20
93.5662
 30
0.0
 11
39.062
 21
90.5454
 31
0.0
  0
LINE
  8
0
 62
     0
 10
39.062
 20
90.5454
 30
0.0
 11
39.842
 21
90.3647
 31
0.0
  0
LINE
  8
0
 62
     0
 10
39.842
 20
90.3647
 30
0.0
 11
39.6159
 21
89.3907
 31
0.0
  0
LINE
  8
0
 62
     0
 10
39.6159
 20
89.3907
 30
0.0
 11
53.2571
 21
86.2418
 31
0.0
  0
LINE
  8
0
 62
     0
 10
53.2571
 20
86.2418
 30
0.0
 11
53.4829
 21
87.2162
 31
0.0
  0
LINE
  8
0
 62
     0
 10
53.4829
 20
87.2162
 30
0.0
 11
54.2618
 21
87.0356
 31
0.0
  0
LINE
  8
0
 62
     0
 10
54.2618
 20
87.0356
 30
0.0
 11
54.9589
 21
90.0575
 31
0.0
  0
LINE
  8
0
 62
     0
 10
54.9589
 20
90.0575
 30
0.0
 11
54.1789
 21
90.2367
 31
0.0
  0
LINE
  8
0
 62
     0
 10
54.1789
 20
90.2367
 30
0.0
 11
55.4838
 21
95.8882
 31
0.0
  0
LINE
  8
0
 62
     0
 10
55.4838
 20
95.8882
 30
0.0
 11
56.2638
 21
95.7076
 31
0.0
  0
LINE
  8
0
 62
     0
 10
56.2638
 20
95.7076
 30
0.0
 11
56.9613
 21
98.7294
 31
0.0
  0
LINE
  8
0
 62
     0
 10
56.9613
 20
98.7294
 30
0.0
 11
56.1813
 21
98.9087
 31
0.0
  0
LINE
  8
0
 62
     0
 10
56.1813
 20
98.9087
 30
0.0
 11
56.406
 21
99.883
 31
0.0
  0
LINE
  8
0
 62
     0
 10
56.406
 20
99.883
 30
0.0
 11
42.7662
 21
103.032
 31
0.0
  0
LINE
  8
0
 62
     0
 10
42.7662
 20
103.032
 30
0.0
 11
42.5401
 21
102.058
 31
0.0
  0
LINE
  8
0
 62
     0
 10
271.158
 20
102.299
 30
0.0
 11
271.271
 21
101.305
 31
0.0
  0
LINE
  8
0
 62
     0
 10
271.271
 20
101.305
 30
0.0
 11
270.476
 21
101.214
 31
0.0
  0
LINE
  8
0
 62
     0
 10
270.476
 20
101.214
 30
0.0
 11
270.827
 21
98.1343
 31
0.0
  0
LINE
  8
0
 62
     0
 10
270.827
 20
98.1343
 30
0.0
 11
271.622
 21
98.2239
 31
0.0
  0
LINE
  8
0
 62
     0
 10
271.622
 20
98.2239
 30
0.0
 11
272.278
 21
92.4623
 31
0.0
  0
LINE
  8
0
 62
     0
 10
272.278
 20
92.4623
 30
0.0
 11
271.483
 21
92.3713
 31
0.0
  0
LINE
  8
0
 62
     0
 10
271.483
 20
92.3713
 30
0.0
 11
271.835
 21
89.2912
 31
0.0
  0
LINE
  8
0
 62
     0
 10
271.835
 20
89.2912
 30
0.0
 11
272.63
 21
89.3822
 31
0.0
  0
LINE
  8
0
 62
     0
 10
272.63
 20
89.3822
 30
0.0
 11
272.743
 21
88.3888
 31
0.0
  0
LINE
  8
0
 62
     0
 10
272.743
 20
88.3888
 30
0.0
 11
286.653
 21
89.9735
 31
0.0
  0
LINE
  8
0
 62
     0
 10
286.653
 20
89.9735
 30
0.0
 11
286.54
 21
90.9669
 31
0.0
  0
LINE
  8
0
 62
     0
 10
286.54
 20
90.9669
 30
0.0
 11
287.335
 21
91.0565
 31
0.0
  0
LINE
  8
0
 62
     0
 10
287.335
 20
91.0565
 30
0.0
 11
286.983
 21
94.1366
 31
0.0
  0
LINE
  8
0
 62
     0
 10
286.983
 20
94.1366
 30
0.0
 11
286.188
 21
94.047
 31
0.0
  0
LINE
  8
0
 62
     0
 10
286.188
 20
94.047
 30
0.0
 11
285.532
 21
99.8086
 31
0.0
  0
LINE
  8
0
 62
     0
 10
285.532
 20
99.8086
 30
0.0
 11
286.328
 21
99.8996
 31
0.0
  0
LINE
  8
0
 62
     0
 10
286.328
 20
99.8996
 30
0.0
 11
285.976
 21
102.981
 31
0.0
  0
LINE
  8
0
 62
     0
 10
285.976
 20
102.981
 30
0.0
 11
285.181
 21
102.89
 31
0.0
  0
LINE
  8
0
 62
     0
 10
285.181
 20
102.89
 30
0.0
 11
285.068
 21
103.884
 31
0.0
  0
LINE
  8
0
 62
     0
 10
285.068
 20
103.884
 30
0.0
 11
271.158
 21
102.299
 31
0.0
  0
LINE
  8
0
 62
     0
 10
18.7675
 20
103.367
 30
0.0
 11
17.9724
 21
103.458
 31
0.0
  0
LINE
  8
0
 62
     0
 10
17.9724
 20
103.458
 30
0.0
 11
17.621
 21
100.378
 31
0.0
  0
LINE
  8
0
 62
     0
 10
17.621
 20
100.378
 30
0.0
 11
18.4161
 21
100.287
 31
0.0
  0
LINE
  8
0
 62
     0
 10
18.4161
 20
100.287
 30
0.0
 11
17.7602
 21
94.525
 31
0.0
  0
LINE
  8
0
 62
     0
 10
17.7602
 20
94.525
 30
0.0
 11
16.965
 21
94.6146
 31
0.0
  0
LINE
  8
0
 62
     0
 10
16.965
 20
94.6146
 30
0.0
 11
16.615
 21
91.5349
 31
0.0
  0
LINE
  8
0
 62
     0
 10
16.615
 20
91.5349
 30
0.0
 11
17.4088
 21
91.4453
 31
0.0
  0
LINE
  8
0
 62
     0
 10
17.4088
 20
91.4453
 30
0.0
 11
17.2957
 21
90.4515
 31
0.0
  0
LINE
  8
0
 62
     0
 10
17.2957
 20
90.4515
 30
0.0
 11
31.2057
 21
88.8654
 31
0.0
  0
LINE
  8
0
 62
     0
 10
31.2057
 20
88.8654
 30
0.0
 11
31.3187
 21
89.8606
 31
0.0
  0
LINE
  8
0
 62
     0
 10
31.3187
 20
89.8606
 30
0.0
 11
32.1138
 21
89.7696
 31
0.0
  0
LINE
  8
0
 62
     0
 10
32.1138
 20
89.7696
 30
0.0
 11
32.4638
 21
92.8494
 31
0.0
  0
LINE
  8
0
 62
     0
 10
32.4638
 20
92.8494
 30
0.0
 11
31.6701
 21
92.9404
 31
0.0
  0
LINE
  8
0
 62
     0
 10
31.6701
 20
92.9404
 30
0.0
 11
32.326
 21
98.7033
 31
0.0
  0
LINE
  8
0
 62
     0
 10
32.326
 20
98.7033
 30
0.0
 11
33.1211
 21
98.6123
 31
0.0
  0
LINE
  8
0
 62
     0
 10
33.1211
 20
98.6123
 30
0.0
 11
33.4725
 21
101.692
 31
0.0
  0
LINE
  8
0
 62
     0
 10
33.4725
 20
101.692
 30
0.0
 11
32.6774
 21
101.783
 31
0.0
  0
LINE
  8
0
 62
     0
 10
32.6774
 20
101.783
 30
0.0
 11
32.7904
 21
102.777
 31
0.0
  0
LINE
  8
0
 62
     0
 10
32.7904
 20
102.777
 30
0.0
 11
18.8805
 21
104.362
 31
0.0
  0
LINE
  8
0
 62
     0
 10
18.8805
 20
104.362
 30
0.0
 11
18.7675
 21
103.367
 31
0.0
  0
ENDSEC
  0
EOF
