<?xml version="1.0"?>
<!-- Generated by SVGo -->
<svg width="311.432mm" height="126.873mm"
     viewBox="0.000 0.000 311.432 126.873"
     xmlns="http://www.w3.org/2000/svg" 
     xmlns:xlink="http://www.w3.org/1999/xlink">
<polygon points="296.432,5.001 297.217,5.031 297.997,5.124 298.767,5.277 299.522,5.490 300.259,5.762 300.972,6.090 301.657,6.474 302.310,6.910 302.927,7.396 303.503,7.929 304.036,8.506 304.522,9.123 304.959,9.776 305.342,10.461 305.671,11.174 305.943,11.910 306.156,12.666 306.309,13.436 306.402,14.216 306.432,15.001 306.432,111.873 306.402,112.658 306.309,113.437 306.156,114.207 305.943,114.963 305.671,115.700 305.342,116.413 304.959,117.098 304.522,117.751 304.036,118.367 303.503,118.944 302.927,119.477 302.310,119.963 301.657,120.399 300.972,120.783 300.259,121.112 299.522,121.384 298.767,121.597 297.997,121.750 297.217,121.842 296.432,121.873 15.001,121.873 14.216,121.842 13.436,121.750 12.666,121.597 11.910,121.384 11.174,121.112 10.461,120.783 9.776,120.399 9.123,119.963 8.506,119.477 7.929,118.944 7.396,118.367 6.910,117.751 6.474,117.098 6.090,116.413 5.762,115.700 5.490,114.963 5.277,114.207 5.124,113.437 5.031,112.658 5.000,111.873 5.001,15.001 5.031,14.216 5.124,13.436 5.277,12.666 5.490,11.910 5.762,11.174 6.090,10.461 6.474,9.776 6.910,9.123 7.396,8.506 7.929,7.929 8.506,7.396 9.123,6.910 9.776,6.474 10.461,6.090 11.174,5.762 11.910,5.490 12.666,5.277 13.436,5.124 14.216,5.031 15.001,5.000" style="fill:none;stroke-width:0.050000mm;stroke:black"/>
<polygon points="148.639,97.347 148.639,98.347 147.839,98.347 147.839,101.447 148.639,101.447 148.639,107.247 147.839,107.247 147.839,110.347 148.639,110.347 148.639,111.347 162.639,111.347 162.639,110.347 163.439,110.347 163.439,107.247 162.639,107.247 162.639,101.447 163.439,101.447 163.439,98.347 162.639,98.347 162.639,97.347" style="fill:none;stroke-width:0.050000mm;stroke:black"/>
<polygon points="203.773,91.688 203.947,92.672 203.159,92.811 203.697,95.864 204.485,95.725 204.589,96.316 203.087,96.581 202.526,93.400 195.879,94.572 196.440,97.753 195.627,97.896 196.114,100.654 196.926,100.511 198.015,106.685 199.714,106.386 199.922,107.567 203.172,106.994 202.963,105.813 204.662,105.513 203.886,101.111 205.388,100.846 205.492,101.437 204.704,101.576 205.243,104.629 206.030,104.490 206.204,105.475 219.991,103.044 219.818,102.059 220.606,101.920 220.067,98.867 219.279,99.006 219.175,98.415 220.677,98.150 221.453,102.552 223.152,102.253 223.360,103.435 226.610,102.862 226.402,101.680 228.101,101.380 227.012,95.206 227.824,95.062 227.338,92.305 226.526,92.448 225.965,89.267 219.317,90.439 219.878,93.620 218.376,93.885 218.272,93.294 219.060,93.155 218.522,90.102 217.734,90.241 217.560,89.256" style="fill:none;stroke-width:0.050000mm;stroke:black"/>
<polygon points="87.688,88.127 85.989,87.827 84.900,94.002 84.088,93.859 83.602,96.616 84.414,96.759 83.853,99.940 90.501,101.112 91.061,97.931 92.563,98.196 92.459,98.787 91.671,98.648 91.133,101.701 91.921,101.840 91.747,102.825 105.534,105.256 105.708,104.271 106.496,104.410 107.034,101.357 106.246,101.218 106.350,100.627 107.852,100.892 107.292,104.073 113.939,105.245 114.500,102.064 115.312,102.208 115.799,99.450 114.986,99.307 116.075,93.132 114.376,92.833 114.584,91.651 111.335,91.078 111.126,92.260 109.427,91.960 108.651,96.362 107.150,96.097 107.254,95.506 108.041,95.645 108.580,92.592 107.792,92.453 107.966,91.469 94.178,89.038 94.005,90.022 93.217,89.883 92.678,92.936 93.466,93.075 93.362,93.666 91.860,93.401 92.636,88.999 90.938,88.700 91.146,87.518 87.896,86.945" style="fill:none;stroke-width:0.050000mm;stroke:black"/>
<polygon points="258.289,79.351 258.513,80.326 257.734,80.506 258.431,83.526 259.210,83.346 260.516,88.998 259.737,89.178 260.434,92.198 261.214,92.018 261.438,92.993 275.080,89.843 274.855,88.869 275.634,88.689 274.937,85.668 274.157,85.848 272.853,80.197 273.632,80.017 272.935,76.996 272.155,77.176 271.930,76.202" style="fill:none;stroke-width:0.050000mm;stroke:black"/>
<polygon points="39.908,76.991 39.129,76.811 38.431,79.831 39.211,80.011 37.906,85.663 37.126,85.483 36.429,88.503 37.209,88.683 36.984,89.658 50.625,92.807 50.850,91.833 51.629,92.013 52.327,88.992 51.547,88.812 52.852,83.161 53.631,83.341 54.329,80.320 53.549,80.140 53.774,79.166 40.133,76.016" style="fill:none;stroke-width:0.050000mm;stroke:black"/>
<polygon points="168.832,77.345 168.832,78.345 168.032,78.345 168.032,81.444 168.832,81.444 168.832,87.245 168.032,87.245 168.032,90.345 168.832,90.345 168.832,91.345 182.832,91.345 182.832,90.345 183.632,90.345 183.632,87.245 182.832,87.245 182.832,81.444 183.632,81.444 183.632,78.345 182.832,78.345 182.832,77.345" style="fill:none;stroke-width:0.050000mm;stroke:black"/>
<polygon points="148.639,77.345 148.639,78.345 147.839,78.345 147.839,81.444 148.639,81.444 148.639,87.245 147.839,87.245 147.839,90.345 148.639,90.345 148.639,91.345 162.639,91.345 162.639,90.345 163.439,90.345 163.439,87.245 162.639,87.245 162.639,81.444 163.439,81.444 163.439,78.345 162.639,78.345 162.639,77.345" style="fill:none;stroke-width:0.050000mm;stroke:black"/>
<polygon points="128.634,77.345 128.634,78.345 127.836,78.345 127.836,81.444 128.634,81.444 128.634,87.245 127.836,87.245 127.836,90.345 128.634,90.345 128.634,91.345 142.636,91.345 142.636,90.345 143.436,90.345 143.436,87.245 142.636,87.245 142.636,81.444 143.436,81.444 143.436,78.345 142.636,78.345 142.636,77.345" style="fill:none;stroke-width:0.050000mm;stroke:black"/>
<polygon points="197.426,71.897 197.651,72.871 196.871,73.051 197.569,76.071 198.348,75.891 199.653,81.543 198.874,81.723 199.571,84.743 200.350,84.563 200.575,85.538 214.217,82.388 213.992,81.414 214.771,81.234 214.074,78.214 213.294,78.393 211.990,72.742 212.769,72.562 212.072,69.542 211.292,69.722 211.067,68.747" style="fill:none;stroke-width:0.050000mm;stroke:black"/>
<polygon points="100.771,69.536 99.992,69.356 99.294,72.377 100.074,72.557 98.769,78.208 97.990,78.028 97.292,81.048 98.072,81.228 97.847,82.203 111.488,85.352 111.713,84.378 112.492,84.558 113.190,81.537 112.410,81.357 113.715,75.706 114.495,75.886 115.192,72.865 114.412,72.685 114.637,71.711 100.996,68.562" style="fill:none;stroke-width:0.050000mm;stroke:black"/>
<polygon points="216.916,67.397 217.141,68.371 216.361,68.551 217.059,71.572 217.838,71.392 219.143,77.043 218.363,77.223 219.061,80.244 219.840,80.064 220.065,81.038 233.706,77.889 233.481,76.914 234.261,76.734 233.564,73.714 232.784,73.894 231.479,68.243 232.259,68.063 231.561,65.042 230.782,65.222 230.557,64.248" style="fill:none;stroke-width:0.050000mm;stroke:black"/>
<polygon points="81.281,65.036 80.502,64.856 79.805,67.877 80.584,68.057 79.279,73.708 78.500,73.528 77.802,76.549 78.582,76.729 78.357,77.703 91.998,80.853 92.223,79.878 93.003,80.058 93.700,77.038 92.920,76.858 94.225,71.206 95.005,71.386 95.702,68.366 94.923,68.186 95.147,67.211 81.506,64.062" style="fill:none;stroke-width:0.050000mm;stroke:black"/>
<polygon points="236.406,62.897 236.631,63.872 235.851,64.052 236.549,67.072 237.328,66.892 238.633,72.544 237.853,72.724 238.551,75.744 239.330,75.564 239.555,76.539 253.196,73.389 252.971,72.415 253.751,72.235 253.053,69.214 252.274,69.394 250.969,63.743 251.749,63.563 251.051,60.542 250.272,60.722 250.047,59.748" style="fill:none;stroke-width:0.050000mm;stroke:black"/>
<polygon points="61.792,60.537 61.012,60.357 60.315,63.377 61.094,63.557 59.789,69.209 59.010,69.029 58.313,72.049 59.092,72.229 58.867,73.204 72.508,76.353 72.733,75.379 73.513,75.559 74.210,72.538 73.431,72.358 74.735,66.707 75.515,66.887 76.212,63.866 75.433,63.686 75.658,62.712 62.016,59.562" style="fill:none;stroke-width:0.050000mm;stroke:black"/>
<polygon points="256.109,59.326 256.335,60.300 255.555,60.480 256.253,63.501 257.032,63.321 258.337,68.972 257.556,69.152 258.255,72.173 259.034,71.993 259.258,72.967 272.900,69.818 272.675,68.843 273.455,68.663 272.757,65.643 271.978,65.823 270.673,60.171 271.453,59.992 270.755,56.971 269.976,57.151 269.751,56.177" style="fill:none;stroke-width:0.050000mm;stroke:black"/>
<polygon points="42.087,56.965 41.308,56.785 40.611,59.806 41.390,59.986 40.085,65.637 39.306,65.457 38.609,68.478 39.388,68.658 39.163,69.632 52.804,72.781 53.029,71.807 53.809,71.987 54.506,68.966 53.727,68.787 55.031,63.135 55.811,63.315 56.508,60.295 55.729,60.115 55.954,59.140 42.312,55.991" style="fill:none;stroke-width:0.050000mm;stroke:black"/>
<polygon points="168.832,57.342 168.832,58.342 168.032,58.342 168.032,61.442 168.832,61.442 168.832,67.242 168.032,67.242 168.032,70.342 168.832,70.342 168.832,71.342 182.832,71.342 182.832,70.342 183.632,70.342 183.632,67.242 182.832,67.242 182.832,61.442 183.632,61.442 183.632,58.342 182.832,58.342 182.832,57.342" style="fill:none;stroke-width:0.050000mm;stroke:black"/>
<polygon points="148.639,57.342 148.639,58.342 147.839,58.342 147.839,61.442 148.639,61.442 148.639,67.242 147.839,67.242 147.839,70.342 148.639,70.342 148.639,71.342 162.639,71.342 162.639,70.342 163.439,70.342 163.439,67.242 162.639,67.242 162.639,61.442 163.439,61.442 163.439,58.342 162.639,58.342 162.639,57.342" style="fill:none;stroke-width:0.050000mm;stroke:black"/>
<polygon points="128.634,57.342 128.634,58.342 127.836,58.342 127.836,61.442 128.634,61.442 128.634,67.242 127.836,67.242 127.836,70.342 128.634,70.342 128.634,71.342 142.636,71.342 142.636,70.342 143.436,70.342 143.436,67.242 142.636,67.242 142.636,61.442 143.436,61.442 143.436,58.342 142.636,58.342 142.636,57.342" style="fill:none;stroke-width:0.050000mm;stroke:black"/>
<polygon points="282.410,55.909 282.523,56.903 281.728,56.993 282.079,60.073 282.874,59.983 283.531,65.745 282.736,65.836 283.087,68.916 283.882,68.825 283.995,69.819 297.905,68.234 297.792,67.241 298.586,67.150 298.235,64.070 297.441,64.160 296.784,58.398 297.579,58.307 297.228,55.227 296.433,55.318 296.320,54.324" style="fill:none;stroke-width:0.050000mm;stroke:black"/>
<polygon points="15.705,54.883 14.910,54.792 14.559,57.872 15.354,57.963 14.698,63.726 13.903,63.635 13.552,66.715 14.347,66.806 14.234,67.799 28.144,69.384 28.257,68.390 29.052,68.481 29.403,65.401 28.608,65.310 29.264,59.548 30.059,59.638 30.410,56.558 29.615,56.468 29.728,55.474 15.818,53.889" style="fill:none;stroke-width:0.050000mm;stroke:black"/>
<polygon points="197.567,51.335 197.792,52.310 197.012,52.490 197.710,55.510 198.489,55.330 199.794,60.982 199.014,61.162 199.712,64.182 200.491,64.002 200.716,64.977 214.357,61.827 214.132,60.853 214.912,60.673 214.215,57.652 213.435,57.832 212.130,52.181 212.910,52.001 212.213,48.980 211.433,49.160 211.208,48.186" style="fill:none;stroke-width:0.050000mm;stroke:black"/>
<polygon points="100.630,48.975 99.851,48.795 99.153,51.815 99.933,51.995 98.628,57.647 97.849,57.467 97.151,60.487 97.931,60.667 97.706,61.642 111.347,64.791 111.572,63.817 112.352,63.997 113.049,60.976 112.269,60.796 113.574,55.145 114.354,55.325 115.051,52.304 114.272,52.124 114.496,51.150 100.855,48.000" style="fill:none;stroke-width:0.050000mm;stroke:black"/>
<polygon points="217.057,46.836 217.282,47.810 216.502,47.990 217.200,51.011 217.979,50.831 219.284,56.482 218.504,56.662 219.202,59.683 219.981,59.503 220.206,60.477 233.847,57.328 233.622,56.353 234.402,56.173 233.704,53.153 232.925,53.333 231.620,47.681 232.400,47.501 231.702,44.481 230.923,44.661 230.698,43.686" style="fill:none;stroke-width:0.050000mm;stroke:black"/>
<polygon points="81.141,44.475 80.361,44.295 79.664,47.316 80.443,47.496 79.138,53.147 78.359,52.967 77.662,55.988 78.441,56.168 78.216,57.142 91.857,60.291 92.082,59.317 92.862,59.497 93.559,56.476 92.780,56.296 94.084,50.645 94.864,50.825 95.561,47.805 94.782,47.625 95.007,46.650 81.365,43.501" style="fill:none;stroke-width:0.050000mm;stroke:black"/>
<polygon points="236.118,40.480 236.343,41.454 235.563,41.634 236.261,44.655 237.040,44.475 238.345,50.126 237.566,50.306 238.263,53.327 239.042,53.147 239.267,54.121 252.909,50.972 252.684,49.998 253.463,49.818 252.766,46.797 251.986,46.977 250.682,41.326 251.461,41.146 250.764,38.125 249.984,38.305 249.759,37.331" style="fill:none;stroke-width:0.050000mm;stroke:black"/>
<polygon points="62.079,38.119 61.300,37.940 60.602,40.960 61.382,41.140 60.077,46.791 59.298,46.611 58.600,49.632 59.380,49.812 59.155,50.786 72.796,53.936 73.021,52.961 73.800,53.141 74.498,50.121 73.718,49.941 75.023,44.289 75.803,44.469 76.500,41.449 75.720,41.269 75.945,40.294 62.304,37.145" style="fill:none;stroke-width:0.050000mm;stroke:black"/>
<polygon points="256.251,38.765 256.476,39.739 255.696,39.919 256.393,42.940 257.173,42.760 258.477,48.411 257.698,48.591 258.395,51.611 259.174,51.432 259.400,52.406 273.041,49.257 272.816,48.282 273.596,48.102 272.898,45.082 272.119,45.262 270.814,39.610 271.594,39.430 270.896,36.410 270.117,36.590 269.892,35.615" style="fill:none;stroke-width:0.050000mm;stroke:black"/>
<polygon points="41.947,36.404 41.167,36.224 40.470,39.245 41.249,39.425 39.944,45.076 39.165,44.896 38.468,47.917 39.247,48.097 39.022,49.071 52.663,52.220 52.888,51.246 53.668,51.426 54.365,48.405 53.586,48.225 54.890,42.574 55.670,42.754 56.367,39.733 55.588,39.553 55.813,38.579 42.172,35.430" style="fill:none;stroke-width:0.050000mm;stroke:black"/>
<polygon points="168.832,37.340 168.832,38.340 168.032,38.340 168.032,41.440 168.832,41.440 168.832,47.240 168.032,47.240 168.032,50.340 168.832,50.340 168.832,51.340 182.832,51.340 182.832,50.340 183.632,50.340 183.632,47.240 182.832,47.240 182.832,41.440 183.632,41.440 183.632,38.340 182.832,38.340 182.832,37.340" style="fill:none;stroke-width:0.050000mm;stroke:black"/>
<polygon points="148.639,37.340 148.639,38.340 147.839,38.340 147.839,41.440 148.639,41.440 148.639,47.240 147.839,47.240 147.839,50.340 148.639,50.340 148.639,51.340 162.639,51.340 162.639,50.340 163.439,50.340 163.439,47.240 162.639,47.240 162.639,41.440 163.439,41.440 163.439,38.340 162.639,38.340 162.639,37.340" style="fill:none;stroke-width:0.050000mm;stroke:black"/>
<polygon points="128.634,37.340 128.634,38.340 127.836,38.340 127.836,41.440 128.634,41.440 128.634,47.240 127.836,47.240 127.836,50.340 128.634,50.340 128.634,51.340 142.636,51.340 142.636,50.340 143.436,50.340 143.436,47.240 142.636,47.240 142.636,41.440 143.436,41.440 143.436,38.340 142.636,38.340 142.636,37.340" style="fill:none;stroke-width:0.050000mm;stroke:black"/>
<polygon points="277.707,36.505 277.820,37.498 277.025,37.589 277.376,40.669 278.171,40.578 278.827,46.341 278.032,46.432 278.383,49.512 279.178,49.421 279.291,50.415 293.201,48.830 293.088,47.836 293.883,47.746 293.532,44.666 292.737,44.756 292.081,38.993 292.876,38.903 292.525,35.823 291.730,35.913 291.617,34.920" style="fill:none;stroke-width:0.050000mm;stroke:black"/>
<polygon points="20.387,35.668 19.592,35.577 19.241,38.657 20.036,38.748 19.379,44.510 18.585,44.420 18.234,47.500 19.029,47.591 18.915,48.584 32.825,50.169 32.939,49.175 33.733,49.266 34.084,46.186 33.289,46.095 33.946,40.333 34.741,40.423 35.092,37.343 34.297,37.253 34.410,36.259 20.500,34.674" style="fill:none;stroke-width:0.050000mm;stroke:black"/>
<polygon points="193.067,31.846 193.292,32.820 192.513,33.000 193.210,36.020 193.990,35.840 195.294,41.492 194.515,41.672 195.212,44.692 195.992,44.512 196.217,45.487 209.858,42.337 209.633,41.363 210.412,41.183 209.715,38.163 208.935,38.342 207.631,32.690 208.410,32.510 207.713,29.491 206.933,29.671 206.708,28.696" style="fill:none;stroke-width:0.050000mm;stroke:black"/>
<polygon points="105.130,29.485 104.350,29.305 103.653,32.326 104.433,32.506 103.128,38.157 102.348,37.977 101.651,40.997 102.431,41.177 102.206,42.152 115.847,45.301 116.072,44.327 116.851,44.507 117.549,41.486 116.769,41.306 118.074,35.655 118.853,35.835 119.551,32.814 118.771,32.634 118.996,31.660 105.355,28.511" style="fill:none;stroke-width:0.050000mm;stroke:black"/>
<polygon points="212.557,27.346 212.782,28.320 212.003,28.500 212.700,31.521 213.479,31.341 214.784,36.992 214.005,37.172 214.702,40.193 215.481,40.013 215.706,40.987 229.348,37.838 229.123,36.863 229.902,36.683 229.205,33.663 228.425,33.843 227.121,28.192 227.900,28.012 227.203,24.991 226.423,25.171 226.198,24.197" style="fill:none;stroke-width:0.050000mm;stroke:black"/>
<polygon points="85.640,24.985 84.861,24.805 84.163,27.826 84.943,28.006 83.638,33.657 82.859,33.477 82.161,36.498 82.941,36.678 82.716,37.652 96.357,40.802 96.582,39.827 97.361,40.007 98.059,36.987 97.279,36.807 98.584,31.155 99.363,31.335 100.061,28.315 99.281,28.135 99.506,27.160 85.865,24.011" style="fill:none;stroke-width:0.050000mm;stroke:black"/>
<polygon points="231.618,20.990 231.843,21.965 231.064,22.145 231.761,25.165 232.541,24.985 233.845,30.636 233.066,30.816 233.763,33.837 234.543,33.657 234.768,34.631 248.409,31.482 248.184,30.508 248.963,30.328 248.266,27.307 247.487,27.487 246.182,21.836 246.961,21.656 246.264,18.635 245.485,18.815 245.260,17.841" style="fill:none;stroke-width:0.050000mm;stroke:black"/>
<polygon points="66.579,18.630 65.799,18.450 65.102,21.470 65.881,21.650 64.576,27.302 63.797,27.122 63.100,30.142 63.879,30.322 63.654,31.296 77.296,34.446 77.521,33.471 78.300,33.651 78.997,30.631 78.218,30.451 79.523,24.800 80.302,24.979 80.999,21.959 80.220,21.779 80.445,20.805 66.804,17.655" style="fill:none;stroke-width:0.050000mm;stroke:black"/>
<polygon points="251.751,19.275 251.976,20.249 251.197,20.429 251.894,23.450 252.673,23.270 253.978,28.921 253.199,29.101 253.896,32.122 254.675,31.942 254.900,32.916 268.542,29.767 268.317,28.792 269.096,28.612 268.399,25.592 267.619,25.772 266.315,20.120 267.094,19.941 266.397,16.920 265.617,17.100 265.392,16.126" style="fill:none;stroke-width:0.050000mm;stroke:black"/>
<polygon points="46.446,16.914 45.667,16.734 44.969,19.755 45.749,19.935 44.444,25.586 43.665,25.406 42.967,28.427 43.747,28.607 43.522,29.581 57.163,32.730 57.388,31.756 58.167,31.936 58.865,28.915 58.085,28.736 59.390,23.084 60.169,23.264 60.867,20.244 60.087,20.064 60.312,19.089 46.671,15.940" style="fill:none;stroke-width:0.050000mm;stroke:black"/>
<polygon points="275.064,16.674 275.177,17.667 274.382,17.758 274.733,20.838 275.528,20.748 276.184,26.510 275.389,26.601 275.740,29.681 276.535,29.590 276.648,30.584 290.558,28.999 290.445,28.005 291.240,27.915 290.889,24.835 290.094,24.925 289.438,19.163 290.233,19.072 289.882,15.992 289.087,16.083 288.974,15.089" style="fill:none;stroke-width:0.050000mm;stroke:black"/>
<polygon points="22.673,15.605 21.878,15.514 21.527,18.594 22.322,18.685 21.665,24.447 20.871,24.357 20.520,27.437 21.314,27.527 21.201,28.521 35.111,30.106 35.224,29.112 36.019,29.203 36.370,26.123 35.575,26.032 36.232,20.269 37.027,20.360 37.378,17.280 36.583,17.189 36.696,16.196 22.786,14.611" style="fill:none;stroke-width:0.050000mm;stroke:black"/>
</svg>
