<?xml version="1.0"?>
<!-- Generated by SVGo -->
<svg width="313.432mm" height="119.873mm"
     viewBox="0.000 0.000 313.432 119.873"
     xmlns="http://www.w3.org/2000/svg" 
     xmlns:xlink="http://www.w3.org/1999/xlink">
<polygon points="304.432,5.001 304.746,5.013 305.058,5.050 305.366,5.111 305.668,5.196 305.963,5.305 306.248,5.436 306.522,5.590 306.783,5.764 307.030,5.959 307.261,6.172 307.474,6.403 307.668,6.649 307.843,6.911 307.996,7.185 308.128,7.470 308.237,7.764 308.322,8.067 308.383,8.375 308.420,8.687 308.432,9.001 308.432,110.873 308.420,111.187 308.383,111.499 308.322,111.807 308.237,112.109 308.128,112.404 307.996,112.689 307.843,112.963 307.668,113.224 307.474,113.471 307.261,113.701 307.030,113.915 306.783,114.109 306.522,114.284 306.248,114.437 305.963,114.569 305.668,114.677 305.366,114.762 305.058,114.824 304.746,114.861 304.432,114.873 9.001,114.873 8.687,114.861 8.375,114.824 8.067,114.762 7.764,114.677 7.470,114.569 7.185,114.437 6.911,114.284 6.649,114.109 6.403,113.915 6.172,113.701 5.959,113.471 5.764,113.224 5.590,112.963 5.436,112.689 5.305,112.404 5.196,112.109 5.111,111.807 5.050,111.499 5.013,111.187 5.000,110.873 5.001,9.001 5.013,8.687 5.050,8.375 5.111,8.067 5.196,7.764 5.305,7.470 5.436,7.185 5.590,6.911 5.764,6.649 5.959,6.403 6.172,6.172 6.403,5.959 6.649,5.764 6.911,5.590 7.185,5.436 7.470,5.305 7.764,5.196 8.067,5.111 8.375,5.050 8.687,5.013 9.001,5.000" style="fill:none;stroke-width:0.050000mm;stroke:black"/>
<polygon points="149.639,93.347 149.639,94.347 148.839,94.347 148.839,97.447 149.639,97.447 149.639,103.247 148.839,103.247 148.839,106.347 149.639,106.347 149.639,107.347 163.639,107.347 163.639,106.347 164.439,106.347 164.439,103.247 163.639,103.247 163.639,97.447 164.439,97.447 164.439,94.347 163.639,94.347 163.639,93.347" style="fill:none;stroke-width:0.050000mm;stroke:black"/>
<polygon points="204.773,87.688 204.947,88.672 204.159,88.811 204.697,91.864 205.485,91.725 205.589,92.316 204.087,92.581 203.526,89.400 196.879,90.572 197.440,93.753 196.627,93.896 197.114,96.654 197.926,96.511 199.015,102.685 200.714,102.386 200.922,103.567 204.172,102.994 203.963,101.813 205.662,101.513 204.886,97.111 206.388,96.846 206.492,97.437 205.704,97.576 206.243,100.629 207.030,100.490 207.204,101.475 220.991,99.044 220.818,98.059 221.606,97.920 221.067,94.867 220.279,95.006 220.175,94.415 221.677,94.150 222.453,98.552 224.152,98.253 224.360,99.435 227.610,98.862 227.402,97.680 229.101,97.380 228.012,91.206 228.824,91.062 228.338,88.305 227.526,88.448 226.965,85.267 220.317,86.439 220.878,89.620 219.376,89.885 219.272,89.294 220.060,89.155 219.522,86.102 218.734,86.241 218.560,85.256" style="fill:none;stroke-width:0.050000mm;stroke:black"/>
<polygon points="88.688,84.127 86.989,83.827 85.900,90.002 85.088,89.859 84.602,92.616 85.414,92.759 84.853,95.940 91.501,97.112 92.061,93.931 93.563,94.196 93.459,94.787 92.671,94.648 92.133,97.701 92.921,97.840 92.747,98.825 106.534,101.256 106.708,100.271 107.496,100.410 108.034,97.357 107.246,97.218 107.350,96.627 108.852,96.892 108.292,100.073 114.939,101.245 115.500,98.064 116.312,98.208 116.799,95.450 115.986,95.307 117.075,89.132 115.376,88.833 115.584,87.651 112.335,87.078 112.126,88.260 110.427,87.960 109.651,92.362 108.150,92.097 108.254,91.506 109.041,91.645 109.580,88.592 108.792,88.453 108.966,87.469 95.178,85.038 95.005,86.022 94.217,85.883 93.678,88.936 94.466,89.075 94.362,89.666 92.860,89.401 93.636,84.999 91.938,84.700 92.146,83.518 88.896,82.945" style="fill:none;stroke-width:0.050000mm;stroke:black"/>
<polygon points="259.289,75.351 259.513,76.326 258.734,76.506 259.431,79.526 260.210,79.346 261.516,84.998 260.737,85.178 261.434,88.198 262.214,88.018 262.438,88.993 276.080,85.843 275.855,84.869 276.634,84.689 275.937,81.668 275.157,81.848 273.853,76.197 274.632,76.017 273.935,72.996 273.155,73.176 272.930,72.202" style="fill:none;stroke-width:0.050000mm;stroke:black"/>
<polygon points="40.908,72.991 40.129,72.811 39.431,75.831 40.211,76.011 38.906,81.663 38.126,81.483 37.429,84.503 38.209,84.683 37.984,85.658 51.625,88.807 51.850,87.833 52.629,88.013 53.327,84.992 52.547,84.812 53.852,79.161 54.631,79.341 55.329,76.320 54.549,76.140 54.774,75.166 41.133,72.016" style="fill:none;stroke-width:0.050000mm;stroke:black"/>
<polygon points="169.832,73.345 169.832,74.345 169.032,74.345 169.032,77.444 169.832,77.444 169.832,83.245 169.032,83.245 169.032,86.345 169.832,86.345 169.832,87.345 183.832,87.345 183.832,86.345 184.632,86.345 184.632,83.245 183.832,83.245 183.832,77.444 184.632,77.444 184.632,74.345 183.832,74.345 183.832,73.345" style="fill:none;stroke-width:0.050000mm;stroke:black"/>
<polygon points="149.639,73.345 149.639,74.345 148.839,74.345 148.839,77.444 149.639,77.444 149.639,83.245 148.839,83.245 148.839,86.345 149.639,86.345 149.639,87.345 163.639,87.345 163.639,86.345 164.439,86.345 164.439,83.245 163.639,83.245 163.639,77.444 164.439,77.444 164.439,74.345 163.639,74.345 163.639,73.345" style="fill:none;stroke-width:0.050000mm;stroke:black"/>
<polygon points="129.634,73.345 129.634,74.345 128.836,74.345 128.836,77.444 129.634,77.444 129.634,83.245 128.836,83.245 128.836,86.345 129.634,86.345 129.634,87.345 143.636,87.345 143.636,86.345 144.436,86.345 144.436,83.245 143.636,83.245 143.636,77.444 144.436,77.444 144.436,74.345 143.636,74.345 143.636,73.345" style="fill:none;stroke-width:0.050000mm;stroke:black"/>
<polygon points="198.426,67.897 198.651,68.871 197.871,69.051 198.569,72.071 199.348,71.891 200.653,77.543 199.874,77.723 200.571,80.743 201.350,80.563 201.575,81.538 215.217,78.388 214.992,77.414 215.771,77.234 215.074,74.214 214.294,74.393 212.990,68.742 213.769,68.562 213.072,65.542 212.292,65.722 212.067,64.746" style="fill:none;stroke-width:0.050000mm;stroke:black"/>
<polygon points="101.771,65.536 100.992,65.356 100.294,68.377 101.074,68.557 99.769,74.208 98.990,74.028 98.292,77.048 99.072,77.228 98.847,78.203 112.488,81.352 112.713,80.378 113.492,80.558 114.190,77.537 113.410,77.357 114.715,71.706 115.495,71.886 116.192,68.865 115.412,68.685 115.637,67.711 101.996,64.562" style="fill:none;stroke-width:0.050000mm;stroke:black"/>
<polygon points="217.916,63.397 218.141,64.371 217.361,64.551 218.059,67.572 218.838,67.392 220.143,73.043 219.363,73.223 220.061,76.244 220.840,76.064 221.065,77.038 234.706,73.889 234.481,72.914 235.261,72.734 234.564,69.714 233.784,69.894 232.479,64.243 233.259,64.063 232.561,61.042 231.782,61.222 231.557,60.248" style="fill:none;stroke-width:0.050000mm;stroke:black"/>
<polygon points="82.281,61.036 81.502,60.856 80.805,63.877 81.584,64.057 80.279,69.708 79.500,69.528 78.802,72.549 79.582,72.729 79.357,73.703 92.998,76.853 93.223,75.878 94.003,76.058 94.700,73.038 93.920,72.858 95.225,67.206 96.005,67.386 96.702,64.365 95.923,64.186 96.147,63.211 82.506,60.062" style="fill:none;stroke-width:0.050000mm;stroke:black"/>
<polygon points="237.406,58.897 237.631,59.872 236.851,60.052 237.549,63.072 238.328,62.892 239.633,68.544 238.853,68.724 239.551,71.744 240.330,71.564 240.555,72.539 254.196,69.389 253.971,68.415 254.751,68.235 254.053,65.213 253.274,65.394 251.969,59.743 252.749,59.563 252.051,56.542 251.272,56.722 251.047,55.748" style="fill:none;stroke-width:0.050000mm;stroke:black"/>
<polygon points="62.792,56.537 62.012,56.357 61.315,59.377 62.094,59.557 60.789,65.209 60.010,65.029 59.313,68.049 60.092,68.229 59.867,69.204 73.508,72.353 73.733,71.379 74.513,71.559 75.210,68.538 74.431,68.358 75.735,62.707 76.515,62.887 77.212,59.866 76.433,59.686 76.658,58.712 63.016,55.562" style="fill:none;stroke-width:0.050000mm;stroke:black"/>
<polygon points="257.109,55.326 257.335,56.300 256.554,56.480 257.253,59.501 258.032,59.321 259.337,64.972 258.556,65.151 259.255,68.173 260.034,67.993 260.258,68.967 273.900,65.818 273.675,64.843 274.455,64.663 273.757,61.643 272.978,61.823 271.673,56.171 272.453,55.992 271.755,52.971 270.976,53.151 270.751,52.177" style="fill:none;stroke-width:0.050000mm;stroke:black"/>
<polygon points="43.087,52.965 42.308,52.785 41.611,55.806 42.390,55.986 41.085,61.637 40.306,61.457 39.609,64.478 40.388,64.658 40.163,65.632 53.804,68.781 54.029,67.807 54.809,67.987 55.506,64.966 54.727,64.787 56.031,59.135 56.811,59.315 57.508,56.295 56.729,56.115 56.954,55.140 43.312,51.991" style="fill:none;stroke-width:0.050000mm;stroke:black"/>
<polygon points="169.832,53.342 169.832,54.342 169.032,54.342 169.032,57.442 169.832,57.442 169.832,63.242 169.032,63.242 169.032,66.342 169.832,66.342 169.832,67.342 183.832,67.342 183.832,66.342 184.632,66.342 184.632,63.242 183.832,63.242 183.832,57.442 184.632,57.442 184.632,54.342 183.832,54.342 183.832,53.342" style="fill:none;stroke-width:0.050000mm;stroke:black"/>
<polygon points="149.639,53.342 149.639,54.342 148.839,54.342 148.839,57.442 149.639,57.442 149.639,63.242 148.839,63.242 148.839,66.342 149.639,66.342 149.639,67.342 163.639,67.342 163.639,66.342 164.439,66.342 164.439,63.242 163.639,63.242 163.639,57.442 164.439,57.442 164.439,54.342 163.639,54.342 163.639,53.342" style="fill:none;stroke-width:0.050000mm;stroke:black"/>
<polygon points="129.634,53.342 129.634,54.342 128.836,54.342 128.836,57.442 129.634,57.442 129.634,63.242 128.836,63.242 128.836,66.342 129.634,66.342 129.634,67.342 143.636,67.342 143.636,66.342 144.436,66.342 144.436,63.242 143.636,63.242 143.636,57.442 144.436,57.442 144.436,54.342 143.636,54.342 143.636,53.342" style="fill:none;stroke-width:0.050000mm;stroke:black"/>
<polygon points="283.410,51.909 283.523,52.903 282.728,52.993 283.079,56.073 283.874,55.983 284.531,61.745 283.736,61.836 284.087,64.916 284.882,64.825 284.995,65.819 298.905,64.234 298.792,63.241 299.586,63.150 299.235,60.070 298.441,60.160 297.784,54.398 298.579,54.307 298.228,51.227 297.433,51.318 297.320,50.324" style="fill:none;stroke-width:0.050000mm;stroke:black"/>
<polygon points="16.705,50.883 15.910,50.792 15.559,53.872 16.354,53.963 15.698,59.726 14.903,59.635 14.552,62.715 15.347,62.806 15.234,63.799 29.144,65.383 29.257,64.389 30.052,64.481 30.403,61.401 29.608,61.310 30.264,55.548 31.059,55.638 31.410,52.558 30.615,52.468 30.728,51.474 16.818,49.889" style="fill:none;stroke-width:0.050000mm;stroke:black"/>
<polygon points="198.567,47.335 198.792,48.310 198.012,48.490 198.710,51.510 199.489,51.330 200.794,56.982 200.014,57.162 200.712,60.182 201.491,60.002 201.716,60.977 215.357,57.827 215.132,56.853 215.912,56.673 215.215,53.652 214.435,53.832 213.130,48.181 213.910,48.001 213.213,44.980 212.433,45.160 212.208,44.186" style="fill:none;stroke-width:0.050000mm;stroke:black"/>
<polygon points="101.630,44.975 100.851,44.795 100.153,47.815 100.933,47.995 99.628,53.647 98.849,53.467 98.151,56.487 98.931,56.667 98.706,57.642 112.347,60.791 112.572,59.817 113.352,59.997 114.049,56.976 113.269,56.796 114.574,51.145 115.354,51.325 116.051,48.304 115.272,48.124 115.496,47.150 101.855,44.000" style="fill:none;stroke-width:0.050000mm;stroke:black"/>
<polygon points="218.057,42.836 218.282,43.810 217.502,43.990 218.200,47.011 218.979,46.831 220.284,52.482 219.504,52.662 220.202,55.683 220.981,55.503 221.206,56.477 234.847,53.328 234.622,52.353 235.402,52.173 234.704,49.153 233.925,49.333 232.620,43.681 233.400,43.501 232.702,40.481 231.923,40.661 231.698,39.686" style="fill:none;stroke-width:0.050000mm;stroke:black"/>
<polygon points="82.141,40.475 81.361,40.295 80.664,43.316 81.443,43.496 80.138,49.147 79.359,48.967 78.662,51.988 79.441,52.168 79.216,53.142 92.857,56.291 93.082,55.317 93.862,55.497 94.559,52.476 93.780,52.296 95.084,46.645 95.864,46.825 96.561,43.805 95.782,43.625 96.007,42.650 82.365,39.501" style="fill:none;stroke-width:0.050000mm;stroke:black"/>
<polygon points="237.118,36.480 237.343,37.454 236.563,37.634 237.261,40.655 238.040,40.475 239.345,46.126 238.566,46.306 239.263,49.327 240.042,49.147 240.267,50.121 253.909,46.972 253.684,45.998 254.463,45.818 253.766,42.797 252.986,42.977 251.682,37.326 252.461,37.146 251.764,34.125 250.984,34.305 250.759,33.331" style="fill:none;stroke-width:0.050000mm;stroke:black"/>
<polygon points="63.079,34.119 62.300,33.940 61.602,36.960 62.382,37.140 61.077,42.791 60.298,42.611 59.600,45.632 60.380,45.812 60.155,46.786 73.796,49.936 74.021,48.961 74.800,49.141 75.498,46.121 74.718,45.941 76.023,40.289 76.803,40.469 77.500,37.449 76.720,37.269 76.945,36.294 63.304,33.145" style="fill:none;stroke-width:0.050000mm;stroke:black"/>
<polygon points="257.251,34.765 257.476,35.739 256.696,35.919 257.393,38.940 258.173,38.760 259.477,44.411 258.698,44.591 259.395,47.611 260.174,47.432 260.400,48.406 274.041,45.257 273.816,44.282 274.596,44.102 273.898,41.082 273.119,41.262 271.814,35.610 272.594,35.430 271.896,32.410 271.117,32.590 270.892,31.615" style="fill:none;stroke-width:0.050000mm;stroke:black"/>
<polygon points="42.947,32.404 42.167,32.224 41.470,35.245 42.249,35.425 40.944,41.076 40.165,40.896 39.468,43.917 40.247,44.097 40.022,45.071 53.663,48.220 53.888,47.246 54.668,47.426 55.365,44.405 54.586,44.225 55.890,38.574 56.670,38.754 57.367,35.733 56.588,35.553 56.813,34.579 43.172,31.430" style="fill:none;stroke-width:0.050000mm;stroke:black"/>
<polygon points="169.832,33.340 169.832,34.340 169.032,34.340 169.032,37.440 169.832,37.440 169.832,43.240 169.032,43.240 169.032,46.340 169.832,46.340 169.832,47.340 183.832,47.340 183.832,46.340 184.632,46.340 184.632,43.240 183.832,43.240 183.832,37.440 184.632,37.440 184.632,34.340 183.832,34.340 183.832,33.340" style="fill:none;stroke-width:0.050000mm;stroke:black"/>
<polygon points="149.639,33.340 149.639,34.340 148.839,34.340 148.839,37.440 149.639,37.440 149.639,43.240 148.839,43.240 148.839,46.340 149.639,46.340 149.639,47.340 163.639,47.340 163.639,46.340 164.439,46.340 164.439,43.240 163.639,43.240 163.639,37.440 164.439,37.440 164.439,34.340 163.639,34.340 163.639,33.340" style="fill:none;stroke-width:0.050000mm;stroke:black"/>
<polygon points="129.634,33.340 129.634,34.340 128.836,34.340 128.836,37.440 129.634,37.440 129.634,43.240 128.836,43.240 128.836,46.340 129.634,46.340 129.634,47.340 143.636,47.340 143.636,46.340 144.436,46.340 144.436,43.240 143.636,43.240 143.636,37.440 144.436,37.440 144.436,34.340 143.636,34.340 143.636,33.340" style="fill:none;stroke-width:0.050000mm;stroke:black"/>
<polygon points="281.072,32.235 281.186,33.229 280.391,33.319 280.742,36.399 281.537,36.309 282.193,42.071 281.398,42.162 281.749,45.242 282.544,45.152 282.657,46.145 296.567,44.560 296.454,43.567 297.249,43.476 296.898,40.396 296.103,40.487 295.447,34.724 296.241,34.633 295.891,31.553 295.096,31.644 294.982,30.650" style="fill:none;stroke-width:0.050000mm;stroke:black"/>
<polygon points="19.021,31.398 18.226,31.308 17.875,34.388 18.670,34.478 18.014,40.241 17.219,40.150 16.868,43.230 17.663,43.321 17.549,44.315 31.459,45.899 31.573,44.906 32.367,44.996 32.718,41.916 31.924,41.826 32.580,36.063 33.375,36.154 33.726,33.074 32.931,32.983 33.044,31.989 19.134,30.405" style="fill:none;stroke-width:0.050000mm;stroke:black"/>
<polygon points="194.067,27.846 194.292,28.820 193.513,29.000 194.210,32.020 194.990,31.840 196.294,37.492 195.515,37.672 196.212,40.692 196.992,40.512 197.217,41.487 210.858,38.337 210.633,37.363 211.412,37.183 210.715,34.163 209.935,34.342 208.631,28.691 209.410,28.511 208.713,25.491 207.933,25.671 207.708,24.696" style="fill:none;stroke-width:0.050000mm;stroke:black"/>
<polygon points="106.130,25.485 105.350,25.305 104.653,28.326 105.433,28.506 104.128,34.157 103.348,33.977 102.651,36.997 103.431,37.177 103.206,38.152 116.847,41.301 117.072,40.327 117.851,40.507 118.549,37.486 117.769,37.306 119.074,31.655 119.853,31.835 120.551,28.814 119.771,28.634 119.996,27.660 106.355,24.511" style="fill:none;stroke-width:0.050000mm;stroke:black"/>
<polygon points="213.557,23.346 213.782,24.320 213.003,24.500 213.700,27.521 214.479,27.341 215.784,32.992 215.005,33.172 215.702,36.193 216.481,36.013 216.706,36.987 230.348,33.838 230.123,32.863 230.902,32.683 230.205,29.663 229.425,29.843 228.121,24.192 228.900,24.012 228.203,20.991 227.423,21.171 227.198,20.197" style="fill:none;stroke-width:0.050000mm;stroke:black"/>
<polygon points="86.640,20.985 85.861,20.805 85.163,23.826 85.943,24.006 84.638,29.657 83.859,29.477 83.161,32.498 83.941,32.678 83.716,33.652 97.357,36.802 97.582,35.827 98.361,36.007 99.059,32.987 98.279,32.807 99.584,27.155 100.363,27.335 101.061,24.315 100.281,24.135 100.506,23.160 86.865,20.011" style="fill:none;stroke-width:0.050000mm;stroke:black"/>
<polygon points="232.618,16.990 232.843,17.965 232.064,18.145 232.761,21.165 233.541,20.985 234.845,26.636 234.066,26.816 234.763,29.837 235.543,29.657 235.768,30.631 249.409,27.482 249.184,26.508 249.963,26.328 249.266,23.307 248.487,23.487 247.182,17.836 247.961,17.656 247.264,14.635 246.485,14.815 246.260,13.841" style="fill:none;stroke-width:0.050000mm;stroke:black"/>
<polygon points="67.579,14.630 66.799,14.450 66.102,17.470 66.881,17.650 65.577,23.302 64.797,23.122 64.100,26.142 64.879,26.322 64.654,27.296 78.296,30.446 78.521,29.471 79.300,29.651 79.997,26.631 79.218,26.451 80.523,20.800 81.302,20.979 81.999,17.959 81.220,17.779 81.445,16.805 67.804,13.655" style="fill:none;stroke-width:0.050000mm;stroke:black"/>
<polygon points="252.751,15.275 252.976,16.249 252.197,16.429 252.894,19.450 253.673,19.270 254.978,24.921 254.199,25.101 254.896,28.122 255.675,27.942 255.900,28.916 269.542,25.767 269.317,24.792 270.096,24.612 269.399,21.592 268.619,21.772 267.315,16.120 268.094,15.941 267.397,12.920 266.617,13.100 266.392,12.126" style="fill:none;stroke-width:0.050000mm;stroke:black"/>
<polygon points="47.446,12.914 46.667,12.734 45.969,15.755 46.749,15.935 45.444,21.586 44.665,21.406 43.967,24.427 44.747,24.607 44.522,25.581 58.163,28.730 58.388,27.756 59.167,27.936 59.865,24.915 59.085,24.736 60.390,19.084 61.169,19.264 61.867,16.243 61.087,16.063 61.312,15.089 47.671,11.940" style="fill:none;stroke-width:0.050000mm;stroke:black"/>
<polygon points="276.064,12.674 276.177,13.667 275.382,13.758 275.733,16.838 276.528,16.748 277.184,22.510 276.389,22.601 276.740,25.681 277.535,25.590 277.648,26.584 291.558,24.999 291.445,24.005 292.240,23.915 291.889,20.835 291.094,20.925 290.438,15.163 291.233,15.072 290.882,11.992 290.087,12.083 289.974,11.089" style="fill:none;stroke-width:0.050000mm;stroke:black"/>
<polygon points="23.673,11.605 22.878,11.514 22.527,14.594 23.322,14.685 22.665,20.447 21.871,20.357 21.520,23.437 22.314,23.527 22.201,24.521 36.111,26.106 36.224,25.112 37.019,25.203 37.370,22.123 36.575,22.032 37.232,16.269 38.027,16.360 38.378,13.280 37.583,13.189 37.696,12.196 23.786,10.611" style="fill:none;stroke-width:0.050000mm;stroke:black"/>
</svg>
